<?xml version="1.0" encoding="utf-8"?>
<!-- Generator: Adobe Illustrator 19.1.0, SVG Export Plug-In . SVG Version: 6.00 Build 0)  -->
<svg version="1.1" id="Layer_1" xmlns="http://www.w3.org/2000/svg" xmlns:xlink="http://www.w3.org/1999/xlink" x="0px" y="0px"
	 viewBox="-71 139.3 647.5 326" style="enable-background:new -71 139.3 647.5 326;" xml:space="preserve">
<style type="text/css">
	.st0{fill:#BBBDBF;}
	.st1{fill:none;stroke:#231F20;stroke-width:0.25;stroke-miterlimit:10;}
	.st2{fill:#FFFFFF;stroke:#231F20;stroke-width:0.25;stroke-miterlimit:10;}
	.st3{fill:#F49CB1;stroke:#231F20;stroke-width:0.25;stroke-miterlimit:10;}
	.st4{fill:#BBBDBF;stroke:#231F20;stroke-width:0.25;stroke-miterlimit:10;}
	.st5{fill:#231F20;}
	.st6{font-family:'CourierNewPSMT';}
	.st7{font-size:7px;}
	.st8{font-size:8px;}
	.st9{font-family:'CourierNewPS-BoldMT';}
	.st10{fill:none;stroke:#231F20;stroke-width:0.5;stroke-miterlimit:10;}
	.st11{font-size:12px;}
</style>
<rect x="92.2" y="288.6" class="st0" width="240.7" height="10"/>
<rect x="92.2" y="308.6" class="st0" width="240.7" height="10"/>
<line class="st1" x1="401.2" y1="197.2" x2="401.2" y2="226.6"/>
<line class="st1" x1="413.2" y1="197.2" x2="413.2" y2="226.6"/>
<line class="st1" x1="425.2" y1="197.2" x2="425.2" y2="226.6"/>
<line class="st1" x1="437.2" y1="197.2" x2="437.2" y2="226.6"/>
<line class="st1" x1="449.2" y1="197.2" x2="449.2" y2="226.6"/>
<line class="st1" x1="461.2" y1="197.2" x2="461.2" y2="226.6"/>
<line class="st1" x1="88.2" y1="197.2" x2="88.2" y2="226.6"/>
<line class="st1" x1="100.2" y1="197.2" x2="100.2" y2="226.6"/>
<line class="st1" x1="112.2" y1="197.2" x2="112.2" y2="226.6"/>
<line class="st1" x1="124.2" y1="197.2" x2="124.2" y2="226.6"/>
<line class="st1" x1="136.2" y1="197.2" x2="136.2" y2="226.6"/>
<line class="st1" x1="148.2" y1="197.2" x2="148.2" y2="226.6"/>
<line class="st1" x1="160.2" y1="197.2" x2="160.2" y2="226.6"/>
<line class="st1" x1="172.2" y1="197.2" x2="172.2" y2="226.6"/>
<line class="st1" x1="184.2" y1="197.2" x2="184.2" y2="226.6"/>
<line class="st1" x1="196.2" y1="197.2" x2="196.2" y2="226.6"/>
<line class="st1" x1="208.2" y1="197.2" x2="208.2" y2="226.6"/>
<line class="st1" x1="220.2" y1="197.2" x2="220.2" y2="226.6"/>
<line class="st1" x1="232.2" y1="197.2" x2="232.2" y2="226.6"/>
<line class="st1" x1="244.2" y1="197.2" x2="244.2" y2="226.6"/>
<line class="st1" x1="256.2" y1="197.2" x2="256.2" y2="226.6"/>
<line class="st1" x1="268.2" y1="197.2" x2="268.2" y2="226.6"/>
<line class="st1" x1="280.2" y1="197.2" x2="280.2" y2="226.6"/>
<line class="st1" x1="292.2" y1="197.2" x2="292.2" y2="226.6"/>
<line class="st1" x1="304.2" y1="197.2" x2="304.2" y2="226.6"/>
<line class="st1" x1="316.2" y1="197.2" x2="316.2" y2="226.6"/>
<line class="st1" x1="328.2" y1="197.2" x2="328.2" y2="226.6"/>
<line class="st1" x1="340.2" y1="197.2" x2="340.2" y2="226.6"/>
<line class="st1" x1="352.2" y1="197.2" x2="352.2" y2="226.6"/>
<line class="st1" x1="364.2" y1="197.2" x2="364.2" y2="226.6"/>
<line class="st1" x1="376.2" y1="197.2" x2="376.2" y2="226.6"/>
<line class="st1" x1="388.2" y1="197.2" x2="388.2" y2="226.6"/>
<line class="st1" x1="473.2" y1="197.2" x2="473.2" y2="226.6"/>
<rect x="88.2" y="197.2" class="st2" width="12" height="29.3"/>
<rect x="100.2" y="197.2" class="st2" width="12" height="29.3"/>
<rect x="112.2" y="197.2" class="st2" width="12" height="29.3"/>
<rect x="124.2" y="197.2" class="st2" width="12" height="29.3"/>
<rect x="136.2" y="197.2" class="st2" width="12" height="29.3"/>
<rect x="148.2" y="197.2" class="st2" width="12" height="29.3"/>
<rect x="160.2" y="197.2" class="st2" width="12" height="29.3"/>
<rect x="172.2" y="197.2" class="st2" width="12" height="29.3"/>
<rect x="184.2" y="197.2" class="st2" width="12" height="29.3"/>
<rect x="196.2" y="197.2" class="st2" width="12" height="29.3"/>
<rect x="208.2" y="197.2" class="st2" width="12" height="29.3"/>
<rect x="220.2" y="197.2" class="st2" width="12" height="29.3"/>
<rect x="232.2" y="197.2" class="st2" width="12" height="29.3"/>
<rect x="244.2" y="197.2" class="st3" width="12" height="29.3"/>
<rect x="256.2" y="197.2" class="st4" width="12" height="29.3"/>
<rect x="268.2" y="197.2" class="st3" width="12" height="29.3"/>
<rect x="280.2" y="197.2" class="st2" width="12" height="29.3"/>
<rect x="292.2" y="197.2" class="st2" width="12" height="29.3"/>
<rect x="304.2" y="197.2" class="st2" width="12" height="29.3"/>
<rect x="316.2" y="197.2" class="st2" width="12" height="29.3"/>
<rect x="328.2" y="197.2" class="st2" width="12" height="29.3"/>
<rect x="340.2" y="197.2" class="st3" width="12" height="29.3"/>
<rect x="352.2" y="197.2" class="st3" width="12" height="29.3"/>
<rect x="364.2" y="197.2" class="st3" width="12" height="29.3"/>
<rect x="376.2" y="197.2" class="st3" width="12" height="29.3"/>
<rect x="388.2" y="197.2" class="st3" width="13" height="29.3"/>
<rect x="401.2" y="197.2" class="st3" width="12" height="29.3"/>
<rect x="413.2" y="197.2" class="st3" width="12" height="29.3"/>
<rect x="425.2" y="197.2" class="st3" width="12" height="29.3"/>
<rect x="437.2" y="197.2" class="st3" width="12" height="29.3"/>
<rect x="449.2" y="197.2" class="st3" width="12" height="29.3"/>
<rect x="461.2" y="197.2" class="st3" width="12" height="29.3"/>
<line class="st1" x1="88.2" y1="197.2" x2="473.2" y2="197.2"/>
<text transform="matrix(1 0 0 1 464.1538 195.8775)" class="st5 st6 st7">0</text>
<text transform="matrix(1 0 0 1 452.1538 195.8775)" class="st5 st6 st7">1</text>
<text transform="matrix(1 0 0 1 440.1538 195.8775)" class="st5 st6 st7">2</text>
<text transform="matrix(1 0 0 1 428.1538 195.8775)" class="st5 st6 st7">3</text>
<text transform="matrix(1 0 0 1 416.1538 195.8775)" class="st5 st6 st7">4</text>
<text transform="matrix(1 0 0 1 404.1538 195.8775)" class="st5 st6 st7">5</text>
<text transform="matrix(1 0 0 1 392.1538 195.8775)" class="st5 st6 st7">6</text>
<text transform="matrix(1 0 0 1 380.1538 195.8775)" class="st5 st6 st7">7</text>
<text transform="matrix(1 0 0 1 368.1538 195.8775)" class="st5 st6 st7">8</text>
<text transform="matrix(1 0 0 1 356.1538 195.8775)" class="st5 st6 st7">9</text>
<text transform="matrix(1 0 0 1 341.9536 195.8775)" class="st5 st6 st7">10</text>
<text transform="matrix(1 0 0 1 329.9536 195.8775)" class="st5 st6 st7">11</text>
<text transform="matrix(1 0 0 1 317.9536 195.8775)" class="st5 st6 st7">12</text>
<text transform="matrix(1 0 0 1 305.9536 195.8775)" class="st5 st6 st7">13</text>
<text transform="matrix(1 0 0 1 293.9536 195.8775)" class="st5 st6 st7">14</text>
<text transform="matrix(1 0 0 1 281.9536 195.8775)" class="st5 st6 st7">15</text>
<text transform="matrix(1 0 0 1 269.9536 195.8775)" class="st5 st6 st7">16</text>
<text transform="matrix(1 0 0 1 257.9536 195.8775)" class="st5 st6 st7">17</text>
<text transform="matrix(1 0 0 1 245.9536 195.8775)" class="st5 st6 st7">18</text>
<text transform="matrix(1 0 0 1 233.9536 195.8775)" class="st5 st6 st7">19</text>
<text transform="matrix(1 0 0 1 89.9536 195.8775)" class="st5 st6 st7">31</text>
<text transform="matrix(1 0 0 1 464.1538 155.8775)" class="st5 st6 st7">32</text>
<text transform="matrix(1 0 0 1 89.9536 155.8775)" class="st5 st6 st7">63</text>
<line class="st1" x1="401.2" y1="157.2" x2="401.2" y2="186.6"/>
<line class="st1" x1="413.2" y1="157.2" x2="413.2" y2="186.6"/>
<line class="st1" x1="425.2" y1="157.2" x2="425.2" y2="186.6"/>
<line class="st1" x1="437.2" y1="157.2" x2="437.2" y2="186.6"/>
<line class="st1" x1="449.2" y1="157.2" x2="449.2" y2="186.6"/>
<line class="st1" x1="461.2" y1="157.2" x2="461.2" y2="186.6"/>
<line class="st1" x1="88.2" y1="157.2" x2="88.2" y2="186.6"/>
<line class="st1" x1="100.2" y1="157.2" x2="100.2" y2="186.6"/>
<line class="st1" x1="112.2" y1="157.2" x2="112.2" y2="186.6"/>
<line class="st1" x1="124.2" y1="157.2" x2="124.2" y2="186.6"/>
<line class="st1" x1="136.2" y1="157.2" x2="136.2" y2="186.6"/>
<line class="st1" x1="148.2" y1="157.2" x2="148.2" y2="186.6"/>
<line class="st1" x1="160.2" y1="157.2" x2="160.2" y2="186.6"/>
<line class="st1" x1="172.2" y1="157.2" x2="172.2" y2="186.6"/>
<line class="st1" x1="184.2" y1="157.2" x2="184.2" y2="186.6"/>
<line class="st1" x1="196.2" y1="157.2" x2="196.2" y2="186.6"/>
<line class="st1" x1="208.2" y1="157.2" x2="208.2" y2="186.6"/>
<line class="st1" x1="220.2" y1="157.2" x2="220.2" y2="186.6"/>
<line class="st1" x1="232.2" y1="157.2" x2="232.2" y2="186.6"/>
<line class="st1" x1="244.2" y1="157.2" x2="244.2" y2="186.6"/>
<line class="st1" x1="256.2" y1="157.2" x2="256.2" y2="186.6"/>
<line class="st1" x1="268.2" y1="157.2" x2="268.2" y2="186.6"/>
<line class="st1" x1="280.2" y1="157.2" x2="280.2" y2="186.6"/>
<line class="st1" x1="292.2" y1="157.2" x2="292.2" y2="186.6"/>
<line class="st1" x1="304.2" y1="157.2" x2="304.2" y2="186.6"/>
<line class="st1" x1="316.2" y1="157.2" x2="316.2" y2="186.6"/>
<line class="st1" x1="328.2" y1="157.2" x2="328.2" y2="186.6"/>
<line class="st1" x1="340.2" y1="157.2" x2="340.2" y2="186.6"/>
<line class="st1" x1="352.2" y1="157.2" x2="352.2" y2="186.6"/>
<line class="st1" x1="364.2" y1="157.2" x2="364.2" y2="186.6"/>
<line class="st1" x1="376.2" y1="157.2" x2="376.2" y2="186.6"/>
<line class="st1" x1="388.2" y1="157.2" x2="388.2" y2="186.6"/>
<line class="st1" x1="473.2" y1="157.2" x2="473.2" y2="186.6"/>
<rect x="88.2" y="157.2" class="st2" width="12" height="29.3"/>
<rect x="100.2" y="157.2" class="st2" width="12" height="29.3"/>
<rect x="112.2" y="157.2" class="st2" width="12" height="29.3"/>
<rect x="124.2" y="157.2" class="st2" width="12" height="29.3"/>
<rect x="136.2" y="157.2" class="st2" width="12" height="29.3"/>
<rect x="148.2" y="157.2" class="st2" width="12" height="29.3"/>
<rect x="160.2" y="157.2" class="st2" width="12" height="29.3"/>
<rect x="172.2" y="157.2" class="st2" width="12" height="29.3"/>
<rect x="184.2" y="157.2" class="st2" width="12" height="29.3"/>
<rect x="196.2" y="157.2" class="st2" width="12" height="29.3"/>
<rect x="208.2" y="157.2" class="st2" width="12" height="29.3"/>
<rect x="220.2" y="157.2" class="st2" width="12" height="29.3"/>
<rect x="232.2" y="157.2" class="st2" width="12" height="29.3"/>
<rect x="244.2" y="157.2" class="st2" width="12" height="29.3"/>
<rect x="256.2" y="157.2" class="st2" width="12" height="29.3"/>
<rect x="268.2" y="157.2" class="st2" width="12" height="29.3"/>
<rect x="280.2" y="157.2" class="st2" width="12" height="29.3"/>
<rect x="292.2" y="157.2" class="st2" width="12" height="29.3"/>
<rect x="304.2" y="157.2" class="st2" width="12" height="29.3"/>
<rect x="316.2" y="157.2" class="st2" width="12" height="29.3"/>
<rect x="328.2" y="157.2" class="st2" width="12" height="29.3"/>
<rect x="340.2" y="157.2" class="st2" width="12" height="29.3"/>
<rect x="352.2" y="157.2" class="st2" width="12" height="29.3"/>
<rect x="364.2" y="157.2" class="st2" width="12" height="29.3"/>
<rect x="376.2" y="157.2" class="st2" width="12" height="29.3"/>
<rect x="388.2" y="157.2" class="st2" width="13" height="29.3"/>
<rect x="401.2" y="157.2" class="st2" width="12" height="29.3"/>
<rect x="413.2" y="157.2" class="st2" width="12" height="29.3"/>
<rect x="425.2" y="157.2" class="st2" width="12" height="29.3"/>
<rect x="437.2" y="157.2" class="st2" width="12" height="29.3"/>
<rect x="449.2" y="157.2" class="st2" width="12" height="29.3"/>
<rect x="461.2" y="157.2" class="st2" width="12" height="29.3"/>
<line class="st1" x1="88.2" y1="157.2" x2="473.2" y2="157.2"/>
<line class="st1" x1="88.2" y1="186.6" x2="473.2" y2="186.6"/>
<text transform="matrix(1 0 0 1 464.7534 204.8774)"><tspan x="0" y="0" class="st5 st6 st8">V</tspan><tspan x="0" y="9.6" class="st5 st6 st8">M</tspan><tspan x="0" y="19.2" class="st5 st6 st8">E</tspan></text>
<text transform="matrix(1 0 0 1 428.7534 208.8774)"><tspan x="0" y="0" class="st5 st6 st8">D</tspan><tspan x="0" y="9.6" class="st5 st6 st8">E</tspan></text>
<rect x="88.2" y="157.2" class="st4" width="385" height="29.3"/>
<rect x="88.2" y="197.2" class="st4" width="156" height="29.3"/>
<text transform="matrix(1 0 0 1 452.7534 204.8774)"><tspan x="0" y="0" class="st5 st6 st8">P</tspan><tspan x="0" y="9.6" class="st5 st6 st8">V</tspan><tspan x="0" y="19.2" class="st5 st6 st8">I</tspan></text>
<text transform="matrix(1 0 0 1 440.7534 204.8774)"><tspan x="0" y="0" class="st5 st6 st8">T</tspan><tspan x="0" y="9.6" class="st5 st6 st8">S</tspan><tspan x="0" y="19.2" class="st5 st6 st8">D</tspan></text>
<text transform="matrix(1 0 0 1 416.7534 204.8774)"><tspan x="0" y="0" class="st5 st6 st8">P</tspan><tspan x="0" y="9.6" class="st5 st6 st8">S</tspan><tspan x="0" y="19.2" class="st5 st6 st8">E</tspan></text>
<text transform="matrix(1 0 0 1 404.7534 204.8774)"><tspan x="0" y="0" class="st5 st6 st8">P</tspan><tspan x="0" y="9.6" class="st5 st6 st8">A</tspan><tspan x="0" y="19.2" class="st5 st6 st8">E</tspan></text>
<text transform="matrix(1 0 0 1 392.7534 204.8774)"><tspan x="0" y="0" class="st5 st6 st8">M</tspan><tspan x="0" y="9.6" class="st5 st6 st8">C</tspan><tspan x="0" y="19.2" class="st5 st6 st8">E</tspan></text>
<text transform="matrix(1 0 0 1 379.7534 204.8774)"><tspan x="0" y="0" class="st5 st6 st8">P</tspan><tspan x="0" y="9.6" class="st5 st6 st8">G</tspan><tspan x="0" y="19.2" class="st5 st6 st8">E</tspan></text>
<text transform="matrix(1 0 0 1 367.7534 204.8774)"><tspan x="0" y="0" class="st5 st6 st8">P</tspan><tspan x="0" y="9.6" class="st5 st6 st8">C</tspan><tspan x="0" y="19.2" class="st5 st6 st8">E</tspan></text>
<rect x="280.2" y="197.2" class="st4" width="60" height="29.3"/>
<rect x="92.2" y="328.6" class="st0" width="240.7" height="10"/>
<text transform="matrix(1 0 0 1 96.5522 275.8775)" class="st5 st9 st8">Bits</text>
<text transform="matrix(1 0 0 1 127.9507 275.8775)" class="st5 st9 st8">Mnemonic</text>
<text transform="matrix(1 0 0 1 177.7495 275.8775)" class="st5 st9 st8">Description</text>
<text transform="matrix(1 0 0 1 316.9526 275.8775)" class="st5 st9 st8">R/W</text>
<text transform="matrix(1 0 0 1 106.5522 315.8775)" class="st5 st6 st8">17</text>
<text transform="matrix(1 0 0 1 106.5522 325.8775)" class="st5 st6 st8">16</text>
<text transform="matrix(1 0 0 1 92.1499 335.8775)" class="st5 st6 st8">15:11</text>
<text transform="matrix(1 0 0 1 106.5522 345.8775)" class="st5 st6 st8">10</text>
<text transform="matrix(1 0 0 1 111.353 355.8775)" class="st5 st6 st8">9</text>
<text transform="matrix(1 0 0 1 111.353 365.8775)" class="st5 st6 st8">8</text>
<text transform="matrix(1 0 0 1 111.353 375.8775)" class="st5 st6 st8">7</text>
<text transform="matrix(1 0 0 1 111.353 385.8775)" class="st5 st6 st8">6</text>
<text transform="matrix(1 0 0 1 111.353 395.8775)" class="st5 st6 st8">5</text>
<text transform="matrix(1 0 0 1 111.353 405.8775)" class="st5 st6 st8">4</text>
<text transform="matrix(1 0 0 1 111.353 415.8775)" class="st5 st6 st8">3</text>
<text transform="matrix(1 0 0 1 111.353 425.8775)" class="st5 st6 st8">2</text>
<text transform="matrix(1 0 0 1 111.353 435.8775)" class="st5 st6 st8">1</text>
<text transform="matrix(1 0 0 1 111.353 445.8775)" class="st5 st6 st8">0</text>
<text transform="matrix(1 0 0 1 316.9526 325.8775)" class="st5 st6 st8">R/W</text>
<text transform="matrix(1 0 0 1 316.9526 345.8775)" class="st5 st6 st8">R/W</text>
<text transform="matrix(1 0 0 1 316.9526 355.8775)" class="st5 st6 st8">R/W</text>
<text transform="matrix(1 0 0 1 316.9526 375.8775)" class="st5 st6 st8">R/W</text>
<text transform="matrix(1 0 0 1 316.9526 395.8775)" class="st5 st6 st8">R/W</text>
<text transform="matrix(1 0 0 1 316.9526 415.8775)" class="st5 st6 st8">R/W</text>
<text transform="matrix(1 0 0 1 316.9526 425.8775)" class="st5 st6 st8">R/W</text>
<text transform="matrix(1 0 0 1 316.9526 435.8775)" class="st5 st6 st8">R/W</text>
<text transform="matrix(1 0 0 1 316.9526 445.8775)" class="st5 st6 st8">R/W</text>
<text transform="matrix(1 0 0 1 126.9507 325.8775)" class="st5 st6 st8">FSGSBASE</text>
<text transform="matrix(1 0 0 1 122.1499 345.8775)" class="st5 st6 st8">OSXMMEXCPT</text>
<text transform="matrix(1 0 0 1 131.7515 355.8775)" class="st5 st6 st8">OSFXSR</text>
<text transform="matrix(1 0 0 1 138.9526 375.8775)" class="st5 st6 st8">PGE</text>
<text transform="matrix(1 0 0 1 138.9526 395.8775)" class="st5 st6 st8">PAE</text>
<text transform="matrix(1 0 0 1 138.9526 405.8775)" class="st5 st6 st8">PSE</text>
<text transform="matrix(1 0 0 1 141.353 415.8775)" class="st5 st6 st8">DE</text>
<text transform="matrix(1 0 0 1 138.9526 425.8775)" class="st5 st6 st8">TSD</text>
<text transform="matrix(1 0 0 1 138.9526 435.8775)" class="st5 st6 st8">PVI</text>
<text transform="matrix(1 0 0 1 138.9526 445.8775)" class="st5 st6 st8">VME</text>
<text transform="matrix(1 0 0 1 179.1538 315.8775)" class="st5 st6 st8">Reserved</text>
<text transform="matrix(1 0 0 1 179.1538 325.8775)" class="st5 st6 st8">Enable *.BASE instructions </text>
<text transform="matrix(1 0 0 1 179.1538 335.8775)" class="st5 st6 st8">Reserved</text>
<text transform="matrix(1 0 0 1 179.1538 345.8775)" class="st5 st6 st8">OS Unmasked Exception</text>
<text transform="matrix(1 0 0 1 179.1538 355.8775)" class="st5 st6 st8">OS FXSAVE/FXRSTOP</text>
<text transform="matrix(1 0 0 1 179.1538 365.8775)" class="st5 st6 st8">Perfomance-Monitoring Count.</text>
<text transform="matrix(1 0 0 1 179.1538 375.8775)" class="st5 st6 st8">Page-Global Enable</text>
<text transform="matrix(1 0 0 1 179.1538 385.8775)" class="st5 st6 st8">Machine Check Enable</text>
<text transform="matrix(1 0 0 1 179.1538 395.8775)" class="st5 st6 st8">Physical-Address Extension</text>
<text transform="matrix(1 0 0 1 179.1538 405.8775)" class="st5 st6 st8">Page Size Extensions</text>
<text transform="matrix(1 0 0 1 179.1538 415.8775)" class="st5 st6 st8">Debugging Extensions</text>
<text transform="matrix(1 0 0 1 179.1538 425.8775)" class="st5 st6 st8">Time Stamp Disable</text>
<text transform="matrix(1 0 0 1 179.1538 435.8775)" class="st5 st6 st8">Pr.-Mode Virt. Interrupts</text>
<text transform="matrix(1 0 0 1 179.1538 445.8775)" class="st5 st6 st8">Virtual-8086 Mode Ext.</text>
<line class="st10" x1="92.2" y1="282.2" x2="332.8" y2="282.2"/>
<line class="st1" x1="340.7" y1="434.9" x2="455.2" y2="434.9"/>
<line class="st1" x1="455.2" y1="434.9" x2="455.2" y2="235.5"/>
<line class="st1" x1="340.7" y1="444.9" x2="467.2" y2="444.9"/>
<line class="st1" x1="467.2" y1="235.5" x2="467.2" y2="444.9"/>
<line class="st1" x1="340.7" y1="424.9" x2="443.2" y2="424.9"/>
<line class="st1" x1="443.2" y1="235.5" x2="443.2" y2="424.9"/>
<line class="st1" x1="431.2" y1="235.5" x2="431.2" y2="414.9"/>
<line class="st1" x1="340.7" y1="414.9" x2="431.2" y2="414.9"/>
<line class="st1" x1="419.2" y1="235.5" x2="419.2" y2="404.9"/>
<line class="st1" x1="407.2" y1="235.5" x2="407.2" y2="394.9"/>
<line class="st1" x1="340.7" y1="404.9" x2="419.2" y2="404.9"/>
<line class="st1" x1="340.7" y1="394.9" x2="407.2" y2="394.9"/>
<line class="st1" x1="395.2" y1="235.5" x2="395.2" y2="384.9"/>
<line class="st1" x1="340.7" y1="384.9" x2="395.2" y2="384.9"/>
<line class="st1" x1="383.2" y1="235.5" x2="383.2" y2="374.9"/>
<line class="st1" x1="340.7" y1="374.9" x2="383.2" y2="374.9"/>
<line class="st1" x1="371.2" y1="235.5" x2="371.2" y2="364.9"/>
<line class="st1" x1="359.2" y1="235.5" x2="359.2" y2="354.9"/>
<line class="st1" x1="347.2" y1="235.5" x2="347.2" y2="344.9"/>
<line class="st1" x1="340.7" y1="364.9" x2="371.2" y2="364.9"/>
<line class="st1" x1="340.7" y1="344.9" x2="347.2" y2="344.9"/>
<line class="st1" x1="340.7" y1="354.9" x2="359.2" y2="354.9"/>
<text transform="matrix(1 0 0 1 92.1499 295.8775)" class="st5 st6 st8">63:19</text>
<text transform="matrix(1 0 0 1 106.5522 305.8775)" class="st5 st6 st8">18</text>
<text transform="matrix(1 0 0 1 316.9526 305.8775)" class="st5 st6 st8">R/W</text>
<text transform="matrix(1 0 0 1 138.9526 385.8775)" class="st5 st6 st8">MCE</text>
<text transform="matrix(1 0 0 1 129.3511 305.8775)" class="st5 st6 st8">OSXSAVE</text>
<text transform="matrix(1 0 0 1 179.1538 295.8775)" class="st5 st6 st8">Reserved, Must be Zero</text>
<text transform="matrix(1 0 0 1 179.1538 305.8775)" class="st5 st6 st8">XSAVE and Processor</text>
<text transform="matrix(1 0 0 1 138.9526 365.8775)" class="st5 st6 st8">PCE</text>
<text transform="matrix(1 0 0 1 316.9526 385.8775)" class="st5 st6 st8">R/W</text>
<text transform="matrix(1 0 0 1 316.9526 365.8775)" class="st5 st6 st8">R/W</text>
<line class="st1" x1="250.7" y1="239.6" x2="67" y2="239.6"/>
<line class="st1" x1="274.7" y1="242.6" x2="79" y2="242.6"/>
<line class="st1" x1="250.7" y1="239.6" x2="250.7" y2="235.5"/>
<line class="st1" x1="274.7" y1="242.6" x2="274.7" y2="235.5"/>
<line class="st1" x1="79" y1="242.6" x2="79" y2="304.9"/>
<line class="st1" x1="67" y1="239.6" x2="67" y2="324.9"/>
<line class="st1" x1="67" y1="324.9" x2="85.7" y2="324.9"/>
<line class="st1" x1="79" y1="304.9" x2="86.3" y2="304.9"/>
<text transform="matrix(1 0 0 1 316.9526 405.8775)" class="st5 st6 st8">R/W</text>
<g>
	<rect x="-2.7" y="187.9" class="st3" width="23.7" height="12.9"/>
	<text transform="matrix(1 0 0 1 -1.6557 197.6056)" class="st5 st6 st11">CR4</text>
	<line class="st1" x1="9.1" y1="200.8" x2="9.1" y2="202.1"/>
	<line class="st1" x1="5.8" y1="200.8" x2="5.8" y2="202.1"/>
	<line class="st1" x1="12.5" y1="200.8" x2="12.5" y2="202.1"/>
	<line class="st1" x1="15.9" y1="200.8" x2="15.9" y2="202.1"/>
	<line class="st1" x1="2.4" y1="200.8" x2="2.4" y2="202.1"/>
	<line class="st1" x1="9.1" y1="186.6" x2="9.1" y2="187.9"/>
	<line class="st1" x1="5.8" y1="186.6" x2="5.8" y2="187.9"/>
	<line class="st1" x1="12.5" y1="186.6" x2="12.5" y2="187.9"/>
	<line class="st1" x1="15.9" y1="186.6" x2="15.9" y2="187.9"/>
	<line class="st1" x1="2.4" y1="186.6" x2="2.4" y2="187.9"/>
</g>
</svg>
