<?xml version="1.0" encoding="utf-8"?>
<!-- Generator: Adobe Illustrator 19.1.0, SVG Export Plug-In . SVG Version: 6.00 Build 0)  -->
<svg version="1.1" id="Layer_1" xmlns="http://www.w3.org/2000/svg" xmlns:xlink="http://www.w3.org/1999/xlink" x="0px" y="0px"
	 viewBox="-71 139.3 647.5 298" style="enable-background:new -71 139.3 647.5 298;" xml:space="preserve">
<style type="text/css">
	.st0{fill:#F49CB1;stroke:#231F20;stroke-width:0.25;stroke-miterlimit:10;}
	.st1{fill:#231F20;}
	.st2{font-family:'CourierNewPSMT';}
	.st3{font-size:12px;}
	.st4{fill:none;stroke:#231F20;stroke-width:0.25;stroke-miterlimit:10;}
	.st5{fill:#FFFFFF;stroke:#231F20;stroke-width:0.25;stroke-miterlimit:10;}
	.st6{fill:#BBBDBF;stroke:#231F20;stroke-width:0.25;stroke-miterlimit:10;}
	.st7{fill:#B2DDC7;stroke:#231F20;stroke-width:0.25;stroke-miterlimit:10;}
	.st8{font-size:7px;}
	.st9{fill:#BBBDBF;}
	.st10{font-size:8px;}
	.st11{font-family:'CourierNewPS-BoldMT';}
	.st12{fill:none;stroke:#231F20;stroke-width:0.5;stroke-miterlimit:10;}
</style>
<g>
	<rect x="-2.7" y="187.9" class="st0" width="23.7" height="12.9"/>
	<text transform="matrix(1 0 0 1 -1.6557 197.6056)" class="st1 st2 st3">CR0</text>
	<line class="st4" x1="9.1" y1="200.8" x2="9.1" y2="202.1"/>
	<line class="st4" x1="5.8" y1="200.8" x2="5.8" y2="202.1"/>
	<line class="st4" x1="12.5" y1="200.8" x2="12.5" y2="202.1"/>
	<line class="st4" x1="15.9" y1="200.8" x2="15.9" y2="202.1"/>
	<line class="st4" x1="2.4" y1="200.8" x2="2.4" y2="202.1"/>
	<line class="st4" x1="9.1" y1="186.6" x2="9.1" y2="187.9"/>
	<line class="st4" x1="5.8" y1="186.6" x2="5.8" y2="187.9"/>
	<line class="st4" x1="12.5" y1="186.6" x2="12.5" y2="187.9"/>
	<line class="st4" x1="15.9" y1="186.6" x2="15.9" y2="187.9"/>
	<line class="st4" x1="2.4" y1="186.6" x2="2.4" y2="187.9"/>
</g>
<line class="st4" x1="112" y1="251.6" x2="112.2" y2="235.5"/>
<line class="st4" x1="124.2" y1="248.6" x2="124.2" y2="235.5"/>
<line class="st4" x1="136.2" y1="245.6" x2="136.2" y2="235.5"/>
<line class="st4" x1="419.2" y1="197.2" x2="419.2" y2="226.6"/>
<line class="st4" x1="431.2" y1="197.2" x2="431.2" y2="226.6"/>
<line class="st4" x1="443.2" y1="197.2" x2="443.2" y2="226.6"/>
<line class="st4" x1="455.2" y1="197.2" x2="455.2" y2="226.6"/>
<line class="st4" x1="467.2" y1="197.2" x2="467.2" y2="226.6"/>
<line class="st4" x1="479.2" y1="197.2" x2="479.2" y2="226.6"/>
<line class="st4" x1="106.2" y1="197.2" x2="106.2" y2="226.6"/>
<line class="st4" x1="118.2" y1="197.2" x2="118.2" y2="226.6"/>
<line class="st4" x1="130.2" y1="197.2" x2="130.2" y2="226.6"/>
<line class="st4" x1="142.2" y1="197.2" x2="142.2" y2="226.6"/>
<line class="st4" x1="154.2" y1="197.2" x2="154.2" y2="226.6"/>
<line class="st4" x1="166.2" y1="197.2" x2="166.2" y2="226.6"/>
<line class="st4" x1="178.2" y1="197.2" x2="178.2" y2="226.6"/>
<line class="st4" x1="190.2" y1="197.2" x2="190.2" y2="226.6"/>
<line class="st4" x1="202.2" y1="197.2" x2="202.2" y2="226.6"/>
<line class="st4" x1="214.2" y1="197.2" x2="214.2" y2="226.6"/>
<line class="st4" x1="226.2" y1="197.2" x2="226.2" y2="226.6"/>
<line class="st4" x1="238.2" y1="197.2" x2="238.2" y2="226.6"/>
<line class="st4" x1="250.2" y1="197.2" x2="250.2" y2="226.6"/>
<line class="st4" x1="262.2" y1="197.2" x2="262.2" y2="226.6"/>
<line class="st4" x1="274.2" y1="197.2" x2="274.2" y2="226.6"/>
<line class="st4" x1="286.2" y1="197.2" x2="286.2" y2="226.6"/>
<line class="st4" x1="298.2" y1="197.2" x2="298.2" y2="226.6"/>
<line class="st4" x1="310.2" y1="197.2" x2="310.2" y2="226.6"/>
<line class="st4" x1="322.2" y1="197.2" x2="322.2" y2="226.6"/>
<line class="st4" x1="334.2" y1="197.2" x2="334.2" y2="226.6"/>
<line class="st4" x1="346.2" y1="197.2" x2="346.2" y2="226.6"/>
<line class="st4" x1="358.2" y1="197.2" x2="358.2" y2="226.6"/>
<line class="st4" x1="370.2" y1="197.2" x2="370.2" y2="226.6"/>
<line class="st4" x1="382.2" y1="197.2" x2="382.2" y2="226.6"/>
<line class="st4" x1="394.2" y1="197.2" x2="394.2" y2="226.6"/>
<line class="st4" x1="406.2" y1="197.2" x2="406.2" y2="226.6"/>
<line class="st4" x1="491.2" y1="197.2" x2="491.2" y2="226.6"/>
<rect x="106.2" y="197.2" class="st0" width="12" height="29.3"/>
<rect x="118.2" y="197.2" class="st0" width="12" height="29.3"/>
<rect x="130.2" y="197.2" class="st0" width="12" height="29.3"/>
<rect x="142.2" y="197.2" class="st5" width="12" height="29.3"/>
<rect x="154.2" y="197.2" class="st5" width="12" height="29.3"/>
<rect x="166.2" y="197.2" class="st5" width="12" height="29.3"/>
<rect x="178.2" y="197.2" class="st5" width="12" height="29.3"/>
<rect x="190.2" y="197.2" class="st5" width="12" height="29.3"/>
<rect x="202.2" y="197.2" class="st5" width="12" height="29.3"/>
<rect x="214.2" y="197.2" class="st5" width="12" height="29.3"/>
<rect x="226.2" y="197.2" class="st5" width="12" height="29.3"/>
<rect x="238.2" y="197.2" class="st5" width="12" height="29.3"/>
<rect x="250.2" y="197.2" class="st5" width="12" height="29.3"/>
<rect x="262.2" y="197.2" class="st0" width="12" height="29.3"/>
<rect x="274.2" y="197.2" class="st6" width="12" height="29.3"/>
<rect x="286.2" y="197.2" class="st0" width="12" height="29.3"/>
<rect x="298.2" y="197.2" class="st5" width="12" height="29.3"/>
<rect x="310.2" y="197.2" class="st5" width="12" height="29.3"/>
<rect x="322.2" y="197.2" class="st5" width="12" height="29.3"/>
<rect x="334.2" y="197.2" class="st5" width="12" height="29.3"/>
<rect x="346.2" y="197.2" class="st5" width="12" height="29.3"/>
<rect x="358.2" y="197.2" class="st5" width="12" height="29.3"/>
<rect x="370.2" y="197.2" class="st5" width="12" height="29.3"/>
<rect x="382.2" y="197.2" class="st5" width="12" height="29.3"/>
<rect x="394.2" y="197.2" class="st5" width="12" height="29.3"/>
<rect x="406.2" y="197.2" class="st5" width="13" height="29.3"/>
<rect x="431.2" y="197.2" class="st0" width="12" height="29.3"/>
<rect x="443.2" y="197.2" class="st0" width="12" height="29.3"/>
<rect x="455.2" y="197.2" class="st0" width="12" height="29.3"/>
<rect x="467.2" y="197.2" class="st0" width="12" height="29.3"/>
<rect x="479.2" y="197.2" class="st0" width="12" height="29.3"/>
<line class="st7" x1="106.2" y1="197.2" x2="491.2" y2="197.2"/>
<line class="st4" x1="106.2" y1="226.6" x2="491.2" y2="226.6"/>
<text transform="matrix(1 0 0 1 482.1538 195.8775)" class="st1 st2 st8">0</text>
<text transform="matrix(1 0 0 1 470.1538 195.8775)" class="st1 st2 st8">1</text>
<text transform="matrix(1 0 0 1 458.1538 195.8775)" class="st1 st2 st8">2</text>
<text transform="matrix(1 0 0 1 446.1538 195.8775)" class="st1 st2 st8">3</text>
<text transform="matrix(1 0 0 1 434.1538 195.8775)" class="st1 st2 st8">4</text>
<text transform="matrix(1 0 0 1 422.1538 195.8775)" class="st1 st2 st8">5</text>
<text transform="matrix(1 0 0 1 410.1538 195.8775)" class="st1 st2 st8">6</text>
<text transform="matrix(1 0 0 1 299.9536 195.8775)" class="st1 st2 st8">15</text>
<text transform="matrix(1 0 0 1 287.9536 195.8775)" class="st1 st2 st8">16</text>
<text transform="matrix(1 0 0 1 275.9536 195.8775)" class="st1 st2 st8">17</text>
<text transform="matrix(1 0 0 1 263.9536 195.8775)" class="st1 st2 st8">18</text>
<text transform="matrix(1 0 0 1 251.9536 195.8775)" class="st1 st2 st8">19</text>
<text transform="matrix(1 0 0 1 143.9536 195.8775)" class="st1 st2 st8">28</text>
<text transform="matrix(1 0 0 1 131.9536 195.8775)" class="st1 st2 st8">29</text>
<text transform="matrix(1 0 0 1 119.9536 195.8775)" class="st1 st2 st8">30</text>
<text transform="matrix(1 0 0 1 107.9536 195.8775)" class="st1 st2 st8">31</text>
<text transform="matrix(1 0 0 1 482.1538 155.8775)" class="st1 st2 st8">32</text>
<text transform="matrix(1 0 0 1 107.9536 155.8775)" class="st1 st2 st8">63</text>
<line class="st4" x1="419.2" y1="157.2" x2="419.2" y2="186.6"/>
<line class="st4" x1="431.2" y1="157.2" x2="431.2" y2="186.6"/>
<line class="st4" x1="443.2" y1="157.2" x2="443.2" y2="186.6"/>
<line class="st4" x1="455.2" y1="157.2" x2="455.2" y2="186.6"/>
<line class="st4" x1="467.2" y1="157.2" x2="467.2" y2="186.6"/>
<line class="st4" x1="479.2" y1="157.2" x2="479.2" y2="186.6"/>
<line class="st4" x1="106.2" y1="157.2" x2="106.2" y2="186.6"/>
<line class="st4" x1="118.2" y1="157.2" x2="118.2" y2="186.6"/>
<line class="st4" x1="130.2" y1="157.2" x2="130.2" y2="186.6"/>
<line class="st4" x1="142.2" y1="157.2" x2="142.2" y2="186.6"/>
<line class="st4" x1="154.2" y1="157.2" x2="154.2" y2="186.6"/>
<line class="st4" x1="166.2" y1="157.2" x2="166.2" y2="186.6"/>
<line class="st4" x1="178.2" y1="157.2" x2="178.2" y2="186.6"/>
<line class="st4" x1="190.2" y1="157.2" x2="190.2" y2="186.6"/>
<line class="st4" x1="202.2" y1="157.2" x2="202.2" y2="186.6"/>
<line class="st4" x1="214.2" y1="157.2" x2="214.2" y2="186.6"/>
<line class="st4" x1="226.2" y1="157.2" x2="226.2" y2="186.6"/>
<line class="st4" x1="238.2" y1="157.2" x2="238.2" y2="186.6"/>
<line class="st4" x1="250.2" y1="157.2" x2="250.2" y2="186.6"/>
<line class="st4" x1="262.2" y1="157.2" x2="262.2" y2="186.6"/>
<line class="st4" x1="274.2" y1="157.2" x2="274.2" y2="186.6"/>
<line class="st4" x1="286.2" y1="157.2" x2="286.2" y2="186.6"/>
<line class="st4" x1="298.2" y1="157.2" x2="298.2" y2="186.6"/>
<line class="st4" x1="310.2" y1="157.2" x2="310.2" y2="186.6"/>
<line class="st4" x1="322.2" y1="157.2" x2="322.2" y2="186.6"/>
<line class="st4" x1="334.2" y1="157.2" x2="334.2" y2="186.6"/>
<line class="st4" x1="346.2" y1="157.2" x2="346.2" y2="186.6"/>
<line class="st4" x1="358.2" y1="157.2" x2="358.2" y2="186.6"/>
<line class="st4" x1="370.2" y1="157.2" x2="370.2" y2="186.6"/>
<line class="st4" x1="382.2" y1="157.2" x2="382.2" y2="186.6"/>
<line class="st4" x1="394.2" y1="157.2" x2="394.2" y2="186.6"/>
<line class="st4" x1="406.2" y1="157.2" x2="406.2" y2="186.6"/>
<line class="st4" x1="491.2" y1="157.2" x2="491.2" y2="186.6"/>
<rect x="106.2" y="157.2" class="st5" width="12" height="29.3"/>
<rect x="118.2" y="157.2" class="st5" width="12" height="29.3"/>
<rect x="130.2" y="157.2" class="st5" width="12" height="29.3"/>
<rect x="142.2" y="157.2" class="st5" width="12" height="29.3"/>
<rect x="154.2" y="157.2" class="st5" width="12" height="29.3"/>
<rect x="166.2" y="157.2" class="st5" width="12" height="29.3"/>
<rect x="178.2" y="157.2" class="st5" width="12" height="29.3"/>
<rect x="190.2" y="157.2" class="st5" width="12" height="29.3"/>
<rect x="202.2" y="157.2" class="st5" width="12" height="29.3"/>
<rect x="214.2" y="157.2" class="st5" width="12" height="29.3"/>
<rect x="226.2" y="157.2" class="st5" width="12" height="29.3"/>
<rect x="238.2" y="157.2" class="st5" width="12" height="29.3"/>
<rect x="250.2" y="157.2" class="st5" width="12" height="29.3"/>
<rect x="262.2" y="157.2" class="st5" width="12" height="29.3"/>
<rect x="274.2" y="157.2" class="st5" width="12" height="29.3"/>
<rect x="286.2" y="157.2" class="st5" width="12" height="29.3"/>
<rect x="298.2" y="157.2" class="st5" width="12" height="29.3"/>
<rect x="310.2" y="157.2" class="st5" width="12" height="29.3"/>
<rect x="322.2" y="157.2" class="st5" width="12" height="29.3"/>
<rect x="334.2" y="157.2" class="st5" width="12" height="29.3"/>
<rect x="346.2" y="157.2" class="st5" width="12" height="29.3"/>
<rect x="358.2" y="157.2" class="st5" width="12" height="29.3"/>
<rect x="370.2" y="157.2" class="st5" width="12" height="29.3"/>
<rect x="382.2" y="157.2" class="st5" width="12" height="29.3"/>
<rect x="394.2" y="157.2" class="st5" width="12" height="29.3"/>
<rect x="406.2" y="157.2" class="st5" width="13" height="29.3"/>
<rect x="419.2" y="157.2" class="st5" width="12" height="29.3"/>
<rect x="431.2" y="157.2" class="st5" width="12" height="29.3"/>
<rect x="443.2" y="157.2" class="st5" width="12" height="29.3"/>
<rect x="455.2" y="157.2" class="st5" width="12" height="29.3"/>
<rect x="467.2" y="157.2" class="st5" width="12" height="29.3"/>
<rect x="479.2" y="157.2" class="st5" width="12" height="29.3"/>
<rect x="110.2" y="358.6" class="st9" width="240.7" height="10"/>
<rect x="110.2" y="338.6" class="st9" width="240.7" height="10"/>
<rect x="110.2" y="278.6" class="st9" width="240.7" height="10"/>
<rect x="110.2" y="318.6" class="st9" width="240.7" height="10"/>
<text transform="matrix(1 0 0 1 110.1499 285.8775)" class="st9 st2 st10">63:32</text>
<text transform="matrix(1 0 0 1 114.5522 265.8775)" class="st1 st11 st10">Bits</text>
<text transform="matrix(1 0 0 1 152.9507 265.8775)" class="st1 st11 st10">Mnemonic</text>
<text transform="matrix(1 0 0 1 205.7495 265.8775)" class="st1 st11 st10">Description</text>
<text transform="matrix(1 0 0 1 334.9526 265.8775)" class="st1 st11 st10">R/W</text>
<text transform="matrix(1 0 0 1 124.5522 295.8775)" class="st1 st2 st10">31</text>
<text transform="matrix(1 0 0 1 124.5522 305.8775)" class="st1 st2 st10">30</text>
<text transform="matrix(1 0 0 1 124.5522 315.8775)" class="st1 st2 st10">29</text>
<text transform="matrix(1 0 0 1 110.1499 325.8775)" class="st1 st2 st10">28:19</text>
<text transform="matrix(1 0 0 1 124.5522 335.8775)" class="st1 st2 st10">18</text>
<text transform="matrix(1 0 0 1 124.5522 345.8775)" class="st1 st2 st10">17</text>
<text transform="matrix(1 0 0 1 124.5522 355.8775)" class="st1 st2 st10">16</text>
<text transform="matrix(1 0 0 1 114.9507 365.8775)" class="st1 st2 st10">15:6</text>
<text transform="matrix(1 0 0 1 129.353 375.8775)" class="st1 st2 st10">5</text>
<text transform="matrix(1 0 0 1 129.353 385.8775)" class="st1 st2 st10">4</text>
<text transform="matrix(1 0 0 1 129.353 395.8775)" class="st1 st2 st10">3</text>
<text transform="matrix(1 0 0 1 129.353 405.8775)" class="st1 st2 st10">2</text>
<text transform="matrix(1 0 0 1 129.353 415.8775)" class="st1 st2 st10">1</text>
<text transform="matrix(1 0 0 1 129.353 425.8775)" class="st1 st2 st10">0</text>
<text transform="matrix(1 0 0 1 334.9526 295.8775)" class="st1 st2 st10">R/W</text>
<text transform="matrix(1 0 0 1 334.9526 305.8775)" class="st1 st2 st10">R/W</text>
<text transform="matrix(1 0 0 1 334.9526 315.8775)" class="st1 st2 st10">R/W</text>
<text transform="matrix(1 0 0 1 334.9526 335.8775)" class="st1 st2 st10">R/W</text>
<text transform="matrix(1 0 0 1 334.9526 355.8775)" class="st1 st2 st10">R/W</text>
<text transform="matrix(1 0 0 1 334.9526 375.8775)" class="st1 st2 st10">R/W</text>
<text transform="matrix(1 0 0 1 339.7534 385.8775)" class="st1 st2 st10">R</text>
<text transform="matrix(1 0 0 1 334.9526 395.8775)" class="st1 st2 st10">R/W</text>
<text transform="matrix(1 0 0 1 334.9526 405.8775)" class="st1 st2 st10">R/W</text>
<text transform="matrix(1 0 0 1 334.9526 415.8775)" class="st1 st2 st10">R/W</text>
<text transform="matrix(1 0 0 1 334.9526 425.8775)" class="st1 st2 st10">R/W</text>
<text transform="matrix(1 0 0 1 166.353 295.8775)" class="st1 st2 st10">RG</text>
<text transform="matrix(1 0 0 1 166.353 305.8775)" class="st1 st2 st10">CD</text>
<text transform="matrix(1 0 0 1 166.353 315.8775)" class="st1 st2 st10">NW</text>
<text transform="matrix(1 0 0 1 166.353 335.8775)" class="st1 st2 st10">AM</text>
<text transform="matrix(1 0 0 1 166.353 355.8775)" class="st1 st2 st10">WP</text>
<text transform="matrix(1 0 0 1 166.353 375.8775)" class="st1 st2 st10">NE</text>
<text transform="matrix(1 0 0 1 166.353 385.8775)" class="st1 st2 st10">ET</text>
<text transform="matrix(1 0 0 1 166.353 395.8775)" class="st1 st2 st10">TS</text>
<text transform="matrix(1 0 0 1 166.353 405.8775)" class="st1 st2 st10">EM</text>
<text transform="matrix(1 0 0 1 166.353 415.8775)" class="st1 st2 st10">MP</text>
<text transform="matrix(1 0 0 1 166.353 425.8775)" class="st1 st2 st10">PE</text>
<text transform="matrix(1 0 0 1 207.1538 285.8775)" class="st1 st2 st10">Reserved, Must be Zero</text>
<text transform="matrix(1 0 0 1 207.1538 295.8775)" class="st1 st2 st10">Paging</text>
<text transform="matrix(1 0 0 1 207.1538 305.8775)" class="st1 st2 st10">Cache Disable</text>
<text transform="matrix(1 0 0 1 207.1538 315.8775)" class="st1 st2 st10">Not Writethrough</text>
<text transform="matrix(1 0 0 1 207.1538 325.8775)" class="st1 st2 st10">Reserved</text>
<text transform="matrix(1 0 0 1 207.1538 335.8775)" class="st1 st2 st10">Alignment Mask</text>
<text transform="matrix(1 0 0 1 207.1538 345.8775)" class="st1 st2 st10">Reserved</text>
<text transform="matrix(1 0 0 1 207.1538 355.8775)" class="st1 st2 st10">Write Protection</text>
<text transform="matrix(1 0 0 1 207.1538 365.8775)" class="st1 st2 st10">Reserved</text>
<text transform="matrix(1 0 0 1 207.1538 375.8775)" class="st1 st2 st10">Numeric Error</text>
<text transform="matrix(1 0 0 1 207.1538 385.8775)" class="st1 st2 st10">Extension Type</text>
<text transform="matrix(1 0 0 1 207.1538 395.8775)" class="st1 st2 st10">Task Switched</text>
<text transform="matrix(1 0 0 1 207.1538 405.8775)" class="st1 st2 st10">Emulation</text>
<text transform="matrix(1 0 0 1 207.1538 415.8775)" class="st1 st2 st10">Monitor Coprocessor</text>
<text transform="matrix(1 0 0 1 207.1538 425.8775)" class="st1 st2 st10">Protection Enabled</text>
<text transform="matrix(1 0 0 1 110.1499 285.8775)" class="st1 st2 st10">63:32</text>
<line class="st12" x1="110.2" y1="272.2" x2="350.8" y2="272.2"/>
<text transform="matrix(1 0 0 1 482.7534 208.8774)"><tspan x="0" y="0" class="st1 st2 st10">P</tspan><tspan x="0" y="9.6" class="st1 st2 st10">E</tspan></text>
<text transform="matrix(1 0 0 1 470.7534 208.8774)"><tspan x="0" y="0" class="st1 st2 st10">M</tspan><tspan x="0" y="9.6" class="st1 st2 st10">P</tspan></text>
<text transform="matrix(1 0 0 1 458.7534 208.8774)"><tspan x="0" y="0" class="st1 st2 st10">E</tspan><tspan x="0" y="9.6" class="st1 st2 st10">M</tspan></text>
<text transform="matrix(1 0 0 1 446.7534 208.8774)"><tspan x="0" y="0" class="st1 st2 st10">T</tspan><tspan x="0" y="9.6" class="st1 st2 st10">S</tspan></text>
<text transform="matrix(1 0 0 1 434.7534 208.8774)"><tspan x="0" y="0" class="st1 st2 st10">E</tspan><tspan x="0" y="9.6" class="st1 st2 st10">T</tspan></text>
<text transform="matrix(1 0 0 1 289.7534 208.8774)"><tspan x="0" y="0" class="st1 st2 st10">W</tspan><tspan x="0" y="9.6" class="st1 st2 st10">P</tspan></text>
<text transform="matrix(1 0 0 1 265.7534 208.8774)"><tspan x="0" y="0" class="st1 st2 st10">A</tspan><tspan x="0" y="9.6" class="st1 st2 st10">M</tspan></text>
<text transform="matrix(1 0 0 1 133.5996 208.8774)"><tspan x="0" y="0" class="st1 st2 st10">N</tspan><tspan x="0" y="9.6" class="st1 st2 st10">W</tspan></text>
<text transform="matrix(1 0 0 1 121.5996 208.8774)"><tspan x="0" y="0" class="st1 st2 st10">C</tspan><tspan x="0" y="9.6" class="st1 st2 st10">D</tspan></text>
<text transform="matrix(1 0 0 1 109.5996 208.8774)"><tspan x="0" y="0" class="st1 st2 st10">R</tspan><tspan x="0" y="9.6" class="st1 st2 st10">G</tspan></text>
<rect x="142.2" y="197.2" class="st6" width="120" height="29.3"/>
<rect x="298.2" y="197.2" class="st6" width="121" height="29.3"/>
<line class="st4" x1="106.2" y1="157.2" x2="491.2" y2="157.2"/>
<rect x="106.2" y="157.2" class="st6" width="385" height="29.3"/>
<line class="st4" x1="106.2" y1="186.6" x2="491.2" y2="186.6"/>
<line class="st4" x1="358.7" y1="414.9" x2="473.2" y2="414.9"/>
<line class="st4" x1="473.2" y1="414.9" x2="473.2" y2="235.5"/>
<line class="st4" x1="358.7" y1="424.9" x2="485.2" y2="424.9"/>
<line class="st4" x1="485.2" y1="235.5" x2="485.2" y2="424.9"/>
<line class="st4" x1="358.7" y1="404.9" x2="461.2" y2="404.9"/>
<line class="st4" x1="461.2" y1="235.5" x2="461.2" y2="404.9"/>
<line class="st4" x1="449.2" y1="235.5" x2="449.2" y2="394.9"/>
<line class="st4" x1="358.7" y1="394.9" x2="449.2" y2="394.9"/>
<line class="st4" x1="437.2" y1="235.5" x2="437.2" y2="384.9"/>
<line class="st4" x1="425.2" y1="235.5" x2="425.2" y2="374.9"/>
<line class="st4" x1="358.7" y1="384.9" x2="437.2" y2="384.9"/>
<line class="st4" x1="358.7" y1="374.9" x2="425.2" y2="374.9"/>
<line class="st4" x1="268.2" y1="235.5" x2="268.2" y2="242.6"/>
<line class="st4" x1="292.2" y1="235.5" x2="292.2" y2="239.6"/>
<line class="st4" x1="292.2" y1="239.6" x2="412.7" y2="239.6"/>
<line class="st4" x1="413.2" y1="239.6" x2="413.2" y2="354.9"/>
<line class="st4" x1="358.7" y1="354.9" x2="413.2" y2="354.9"/>
<line class="st4" x1="401.2" y1="242.6" x2="401.2" y2="334.9"/>
<line class="st4" x1="358.7" y1="334.9" x2="401.2" y2="334.9"/>
<line class="st4" x1="268.2" y1="242.6" x2="401.2" y2="242.6"/>
<line class="st4" x1="136.2" y1="245.6" x2="389.2" y2="245.6"/>
<line class="st4" x1="124.2" y1="248.6" x2="377.2" y2="248.6"/>
<line class="st4" x1="112" y1="251.6" x2="365.2" y2="251.6"/>
<line class="st4" x1="389.2" y1="245.6" x2="389.2" y2="315.2"/>
<line class="st4" x1="377.2" y1="248.6" x2="377.2" y2="305.2"/>
<line class="st4" x1="365.2" y1="251.6" x2="365.2" y2="294.9"/>
<line class="st4" x1="358.7" y1="314.9" x2="389.2" y2="314.9"/>
<line class="st4" x1="358.7" y1="294.9" x2="365.2" y2="294.9"/>
<line class="st4" x1="358.7" y1="304.9" x2="377.2" y2="304.9"/>
<rect x="419.2" y="197.2" class="st0" width="12" height="29.3"/>
<text transform="matrix(1 0 0 1 422.7534 208.8774)"><tspan x="0" y="0" class="st1 st2 st10">N</tspan><tspan x="0" y="9.6" class="st1 st2 st10">E</tspan></text>
</svg>
