<?xml version="1.0" encoding="utf-8"?>
<!-- Generator: Adobe Illustrator 19.1.0, SVG Export Plug-In . SVG Version: 6.00 Build 0)  -->
<svg version="1.1" id="Layer_1" xmlns="http://www.w3.org/2000/svg" xmlns:xlink="http://www.w3.org/1999/xlink" x="0px" y="0px"
	 viewBox="-71 139.3 647.5 335.7" style="enable-background:new -71 139.3 647.5 335.7;" xml:space="preserve">
<style type="text/css">
	.st0{fill:#BBBDBF;}
	.st1{fill:none;stroke:#231F20;stroke-width:0.25;stroke-miterlimit:10;}
	.st2{fill:#FFFFFF;stroke:#231F20;stroke-width:0.25;stroke-miterlimit:10;}
	.st3{fill:#B2DDC7;stroke:#231F20;stroke-width:0.25;stroke-miterlimit:10;}
	.st4{fill:#BBBDBF;stroke:#231F20;stroke-width:0.25;stroke-miterlimit:10;}
	.st5{fill:#231F20;}
	.st6{font-family:'CourierNewPSMT';}
	.st7{font-size:7px;}
	.st8{font-size:8px;}
	.st9{font-family:'CourierNewPS-BoldMT';}
	.st10{fill:none;stroke:#231F20;stroke-width:0.5;stroke-miterlimit:10;}
	.st11{font-size:12px;}
</style>
<rect x="82.2" y="277.7" class="st0" width="240.7" height="10"/>
<rect x="82.2" y="297.7" class="st0" width="240.7" height="10"/>
<line class="st1" x1="391.2" y1="186.4" x2="391.2" y2="215.7"/>
<line class="st1" x1="403.2" y1="186.4" x2="403.2" y2="215.7"/>
<line class="st1" x1="415.2" y1="186.4" x2="415.2" y2="215.7"/>
<line class="st1" x1="427.2" y1="186.4" x2="427.2" y2="215.7"/>
<line class="st1" x1="439.2" y1="186.4" x2="439.2" y2="215.7"/>
<line class="st1" x1="451.2" y1="186.4" x2="451.2" y2="215.7"/>
<line class="st1" x1="78.2" y1="186.4" x2="78.2" y2="215.7"/>
<line class="st1" x1="90.2" y1="186.4" x2="90.2" y2="215.7"/>
<line class="st1" x1="102.2" y1="186.4" x2="102.2" y2="215.7"/>
<line class="st1" x1="114.2" y1="186.4" x2="114.2" y2="215.7"/>
<line class="st1" x1="126.2" y1="186.4" x2="126.2" y2="215.7"/>
<line class="st1" x1="138.2" y1="186.4" x2="138.2" y2="215.7"/>
<line class="st1" x1="150.2" y1="186.4" x2="150.2" y2="215.7"/>
<line class="st1" x1="162.2" y1="186.4" x2="162.2" y2="215.7"/>
<line class="st1" x1="174.2" y1="186.4" x2="174.2" y2="215.7"/>
<line class="st1" x1="186.2" y1="186.4" x2="186.2" y2="215.7"/>
<line class="st1" x1="198.2" y1="186.4" x2="198.2" y2="215.7"/>
<line class="st1" x1="210.2" y1="186.4" x2="210.2" y2="215.7"/>
<line class="st1" x1="222.2" y1="186.4" x2="222.2" y2="215.7"/>
<line class="st1" x1="234.2" y1="186.4" x2="234.2" y2="215.7"/>
<line class="st1" x1="246.2" y1="186.4" x2="246.2" y2="215.7"/>
<line class="st1" x1="258.2" y1="186.4" x2="258.2" y2="215.7"/>
<line class="st1" x1="270.2" y1="186.4" x2="270.2" y2="215.7"/>
<line class="st1" x1="282.2" y1="186.4" x2="282.2" y2="215.7"/>
<line class="st1" x1="294.2" y1="186.4" x2="294.2" y2="215.7"/>
<line class="st1" x1="306.2" y1="186.4" x2="306.2" y2="215.7"/>
<line class="st1" x1="318.2" y1="186.4" x2="318.2" y2="215.7"/>
<line class="st1" x1="330.2" y1="186.4" x2="330.2" y2="215.7"/>
<line class="st1" x1="342.2" y1="186.4" x2="342.2" y2="215.7"/>
<line class="st1" x1="354.2" y1="186.4" x2="354.2" y2="215.7"/>
<line class="st1" x1="366.2" y1="186.4" x2="366.2" y2="215.7"/>
<line class="st1" x1="378.2" y1="186.4" x2="378.2" y2="215.7"/>
<line class="st1" x1="463.2" y1="186.4" x2="463.2" y2="215.7"/>
<rect x="78.2" y="186.4" class="st2" width="12" height="29.3"/>
<rect x="90.2" y="186.4" class="st2" width="12" height="29.3"/>
<rect x="102.2" y="186.4" class="st2" width="12" height="29.3"/>
<rect x="114.2" y="186.4" class="st2" width="12" height="29.3"/>
<rect x="126.2" y="186.4" class="st2" width="12" height="29.3"/>
<rect x="138.2" y="186.4" class="st2" width="12" height="29.3"/>
<rect x="150.2" y="186.4" class="st2" width="12" height="29.3"/>
<rect x="162.2" y="186.4" class="st2" width="12" height="29.3"/>
<rect x="174.2" y="186.4" class="st2" width="12" height="29.3"/>
<rect x="186.2" y="186.4" class="st2" width="12" height="29.3"/>
<rect x="198.2" y="186.4" class="st2" width="12" height="29.3"/>
<rect x="210.2" y="186.4" class="st2" width="12" height="29.3"/>
<rect x="222.2" y="186.4" class="st2" width="12" height="29.3"/>
<rect x="234.2" y="186.4" class="st3" width="12" height="29.3"/>
<rect x="246.2" y="186.4" class="st4" width="12" height="29.3"/>
<rect x="258.2" y="186.4" class="st3" width="12" height="29.3"/>
<rect x="270.2" y="186.4" class="st2" width="12" height="29.3"/>
<rect x="282.2" y="186.4" class="st2" width="12" height="29.3"/>
<rect x="294.2" y="186.4" class="st2" width="12" height="29.3"/>
<rect x="306.2" y="186.4" class="st2" width="12" height="29.3"/>
<rect x="318.2" y="186.4" class="st2" width="12" height="29.3"/>
<rect x="330.2" y="186.4" class="st3" width="12" height="29.3"/>
<rect x="342.2" y="186.4" class="st3" width="12" height="29.3"/>
<rect x="354.2" y="186.4" class="st3" width="12" height="29.3"/>
<rect x="366.2" y="186.4" class="st3" width="12" height="29.3"/>
<rect x="378.2" y="186.4" class="st3" width="13" height="29.3"/>
<rect x="391.2" y="186.4" class="st3" width="12" height="29.3"/>
<rect x="403.2" y="186.4" class="st3" width="12" height="29.3"/>
<rect x="415.2" y="186.4" class="st3" width="12" height="29.3"/>
<rect x="427.2" y="186.4" class="st3" width="12" height="29.3"/>
<rect x="439.2" y="186.4" class="st3" width="12" height="29.3"/>
<rect x="451.2" y="186.4" class="st3" width="12" height="29.3"/>
<line class="st1" x1="78.2" y1="186.4" x2="463.2" y2="186.4"/>
<text transform="matrix(1 0 0 1 454.1538 185.0004)" class="st5 st6 st7">0</text>
<text transform="matrix(1 0 0 1 442.1538 185.0004)" class="st5 st6 st7">1</text>
<text transform="matrix(1 0 0 1 430.1538 185.0004)" class="st5 st6 st7">2</text>
<text transform="matrix(1 0 0 1 418.1538 185.0004)" class="st5 st6 st7">3</text>
<text transform="matrix(1 0 0 1 406.1538 185.0004)" class="st5 st6 st7">4</text>
<text transform="matrix(1 0 0 1 394.1538 185.0004)" class="st5 st6 st7">5</text>
<text transform="matrix(1 0 0 1 382.1538 185.0004)" class="st5 st6 st7">6</text>
<text transform="matrix(1 0 0 1 370.1538 185.0004)" class="st5 st6 st7">7</text>
<text transform="matrix(1 0 0 1 358.1538 185.0004)" class="st5 st6 st7">8</text>
<text transform="matrix(1 0 0 1 346.1538 185.0004)" class="st5 st6 st7">9</text>
<text transform="matrix(1 0 0 1 331.9536 185.0004)" class="st5 st6 st7">10</text>
<text transform="matrix(1 0 0 1 319.9536 185.0004)" class="st5 st6 st7">11</text>
<text transform="matrix(1 0 0 1 307.9536 185.0004)" class="st5 st6 st7">12</text>
<text transform="matrix(1 0 0 1 295.9536 185.0004)" class="st5 st6 st7">13</text>
<text transform="matrix(1 0 0 1 283.9536 185.0004)" class="st5 st6 st7">14</text>
<text transform="matrix(1 0 0 1 271.9536 185.0004)" class="st5 st6 st7">15</text>
<text transform="matrix(1 0 0 1 259.9536 185.0004)" class="st5 st6 st7">16</text>
<text transform="matrix(1 0 0 1 247.9536 185.0004)" class="st5 st6 st7">17</text>
<text transform="matrix(1 0 0 1 235.9536 185.0004)" class="st5 st6 st7">18</text>
<text transform="matrix(1 0 0 1 223.9536 185.0004)" class="st5 st6 st7">19</text>
<text transform="matrix(1 0 0 1 79.9536 185.0004)" class="st5 st6 st7">31</text>
<text transform="matrix(1 0 0 1 454.7534 194.0003)"><tspan x="0" y="0" class="st5 st6 st8">V</tspan><tspan x="0" y="9.6" class="st5 st6 st8">M</tspan><tspan x="0" y="19.2" class="st5 st6 st8">E</tspan></text>
<text transform="matrix(1 0 0 1 418.7534 198.0003)"><tspan x="0" y="0" class="st5 st6 st8">D</tspan><tspan x="0" y="9.6" class="st5 st6 st8">E</tspan></text>
<rect x="78.2" y="186.4" class="st4" width="156" height="29.3"/>
<text transform="matrix(1 0 0 1 442.7534 194.0003)"><tspan x="0" y="0" class="st5 st6 st8">P</tspan><tspan x="0" y="9.6" class="st5 st6 st8">V</tspan><tspan x="0" y="19.2" class="st5 st6 st8">I</tspan></text>
<text transform="matrix(1 0 0 1 430.7534 194.0003)"><tspan x="0" y="0" class="st5 st6 st8">T</tspan><tspan x="0" y="9.6" class="st5 st6 st8">S</tspan><tspan x="0" y="19.2" class="st5 st6 st8">D</tspan></text>
<text transform="matrix(1 0 0 1 406.7534 194.0003)"><tspan x="0" y="0" class="st5 st6 st8">P</tspan><tspan x="0" y="9.6" class="st5 st6 st8">S</tspan><tspan x="0" y="19.2" class="st5 st6 st8">E</tspan></text>
<text transform="matrix(1 0 0 1 394.7534 194.0003)"><tspan x="0" y="0" class="st5 st6 st8">P</tspan><tspan x="0" y="9.6" class="st5 st6 st8">A</tspan><tspan x="0" y="19.2" class="st5 st6 st8">E</tspan></text>
<text transform="matrix(1 0 0 1 382.7534 194.0003)"><tspan x="0" y="0" class="st5 st6 st8">M</tspan><tspan x="0" y="9.6" class="st5 st6 st8">C</tspan><tspan x="0" y="19.2" class="st5 st6 st8">E</tspan></text>
<text transform="matrix(1 0 0 1 369.7534 194.0003)"><tspan x="0" y="0" class="st5 st6 st8">P</tspan><tspan x="0" y="9.6" class="st5 st6 st8">G</tspan><tspan x="0" y="19.2" class="st5 st6 st8">E</tspan></text>
<text transform="matrix(1 0 0 1 357.7534 194.0003)"><tspan x="0" y="0" class="st5 st6 st8">P</tspan><tspan x="0" y="9.6" class="st5 st6 st8">C</tspan><tspan x="0" y="19.2" class="st5 st6 st8">E</tspan></text>
<rect x="270.2" y="186.4" class="st4" width="60" height="29.3"/>
<rect x="82.2" y="317.7" class="st0" width="240.7" height="10"/>
<text transform="matrix(1 0 0 1 86.5522 265.0004)" class="st5 st9 st8">Bits</text>
<text transform="matrix(1 0 0 1 117.9507 265.0004)" class="st5 st9 st8">Mnemonic</text>
<text transform="matrix(1 0 0 1 167.7495 265.0004)" class="st5 st9 st8">Description</text>
<text transform="matrix(1 0 0 1 306.9526 265.0004)" class="st5 st9 st8">R/W</text>
<text transform="matrix(1 0 0 1 96.5522 305.0004)" class="st5 st6 st8">17</text>
<text transform="matrix(1 0 0 1 96.5522 315.0004)" class="st5 st6 st8">16</text>
<text transform="matrix(1 0 0 1 82.1499 325.0004)" class="st5 st6 st8">15:11</text>
<text transform="matrix(1 0 0 1 96.5522 335.0004)" class="st5 st6 st8">10</text>
<text transform="matrix(1 0 0 1 101.353 345.0004)" class="st5 st6 st8">9</text>
<text transform="matrix(1 0 0 1 101.353 355.0004)" class="st5 st6 st8">8</text>
<text transform="matrix(1 0 0 1 101.353 365.0004)" class="st5 st6 st8">7</text>
<text transform="matrix(1 0 0 1 101.353 375.0004)" class="st5 st6 st8">6</text>
<text transform="matrix(1 0 0 1 101.353 385.0004)" class="st5 st6 st8">5</text>
<text transform="matrix(1 0 0 1 101.353 395.0004)" class="st5 st6 st8">4</text>
<text transform="matrix(1 0 0 1 101.353 405.0004)" class="st5 st6 st8">3</text>
<text transform="matrix(1 0 0 1 101.353 415.0004)" class="st5 st6 st8">2</text>
<text transform="matrix(1 0 0 1 101.353 425.0004)" class="st5 st6 st8">1</text>
<text transform="matrix(1 0 0 1 101.353 435.0004)" class="st5 st6 st8">0</text>
<text transform="matrix(1 0 0 1 306.9526 315.0004)" class="st5 st6 st8">R/W</text>
<text transform="matrix(1 0 0 1 306.9526 335.0004)" class="st5 st6 st8">R/W</text>
<text transform="matrix(1 0 0 1 306.9526 345.0004)" class="st5 st6 st8">R/W</text>
<text transform="matrix(1 0 0 1 306.9526 365.0004)" class="st5 st6 st8">R/W</text>
<text transform="matrix(1 0 0 1 306.9526 385.0004)" class="st5 st6 st8">R/W</text>
<text transform="matrix(1 0 0 1 306.9526 405.0004)" class="st5 st6 st8">R/W</text>
<text transform="matrix(1 0 0 1 306.9526 415.0004)" class="st5 st6 st8">R/W</text>
<text transform="matrix(1 0 0 1 306.9526 425.0004)" class="st5 st6 st8">R/W</text>
<text transform="matrix(1 0 0 1 306.9526 435.0004)" class="st5 st6 st8">R/W</text>
<text transform="matrix(1 0 0 1 116.9507 315.0004)" class="st5 st6 st8">FSGSBASE</text>
<text transform="matrix(1 0 0 1 112.1499 335.0004)" class="st5 st6 st8">OSXMMEXCPT</text>
<text transform="matrix(1 0 0 1 121.7515 345.0004)" class="st5 st6 st8">OSFXSR</text>
<text transform="matrix(1 0 0 1 128.9526 365.0004)" class="st5 st6 st8">PGE</text>
<text transform="matrix(1 0 0 1 128.9526 385.0004)" class="st5 st6 st8">PAE</text>
<text transform="matrix(1 0 0 1 128.9526 395.0004)" class="st5 st6 st8">PSE</text>
<text transform="matrix(1 0 0 1 131.353 405.0004)" class="st5 st6 st8">DE</text>
<text transform="matrix(1 0 0 1 128.9526 415.0004)" class="st5 st6 st8">TSD</text>
<text transform="matrix(1 0 0 1 128.9526 425.0004)" class="st5 st6 st8">PVI</text>
<text transform="matrix(1 0 0 1 128.9526 435.0004)" class="st5 st6 st8">VME</text>
<text transform="matrix(1 0 0 1 169.1538 305.0004)" class="st5 st6 st8">Reserved</text>
<text transform="matrix(1 0 0 1 169.1538 315.0004)" class="st5 st6 st8">Enable *BASE instructions </text>
<text transform="matrix(1 0 0 1 169.1538 325.0004)" class="st5 st6 st8">Reserved</text>
<text transform="matrix(1 0 0 1 169.1538 335.0004)" class="st5 st6 st8">OS Unmasked Exception</text>
<text transform="matrix(1 0 0 1 169.1538 345.0004)" class="st5 st6 st8">OS FXSAVE/FXRSTOP</text>
<text transform="matrix(1 0 0 1 169.1538 355.0004)" class="st5 st6 st8">Perfomance-Monitoring Count.</text>
<text transform="matrix(1 0 0 1 169.1538 365.0004)" class="st5 st6 st8">Page-Global Enable</text>
<text transform="matrix(1 0 0 1 169.1538 375.0004)" class="st5 st6 st8">Machine Check Enable</text>
<text transform="matrix(1 0 0 1 169.1538 385.0004)" class="st5 st6 st8">Physical-Address Extension</text>
<text transform="matrix(1 0 0 1 169.1538 395.0004)" class="st5 st6 st8">Page Size Extensions</text>
<text transform="matrix(1 0 0 1 169.1538 405.0004)" class="st5 st6 st8">Debugging Extensions</text>
<text transform="matrix(1 0 0 1 169.1538 415.0004)" class="st5 st6 st8">Time Stamp Disable</text>
<text transform="matrix(1 0 0 1 169.1538 425.0004)" class="st5 st6 st8">Pr.-Mode Virt. Interrupts</text>
<text transform="matrix(1 0 0 1 169.1538 435.0004)" class="st5 st6 st8">Virtual-8086 Mode Ext.</text>
<line class="st10" x1="82.2" y1="271.4" x2="322.8" y2="271.4"/>
<line class="st1" x1="330.7" y1="424" x2="445.2" y2="424"/>
<line class="st1" x1="445.2" y1="424" x2="445.2" y2="224.6"/>
<line class="st1" x1="330.7" y1="434" x2="457.2" y2="434"/>
<line class="st1" x1="457.2" y1="224.6" x2="457.2" y2="434"/>
<line class="st1" x1="330.7" y1="414" x2="433.2" y2="414"/>
<line class="st1" x1="433.2" y1="224.6" x2="433.2" y2="414"/>
<line class="st1" x1="421.2" y1="224.6" x2="421.2" y2="404"/>
<line class="st1" x1="330.7" y1="404" x2="421.2" y2="404"/>
<line class="st1" x1="409.2" y1="224.6" x2="409.2" y2="394"/>
<line class="st1" x1="397.2" y1="224.6" x2="397.2" y2="384"/>
<line class="st1" x1="330.7" y1="394" x2="409.2" y2="394"/>
<line class="st1" x1="330.7" y1="384" x2="397.2" y2="384"/>
<line class="st1" x1="385.2" y1="224.6" x2="385.2" y2="374"/>
<line class="st1" x1="330.7" y1="374" x2="385.2" y2="374"/>
<line class="st1" x1="373.2" y1="224.6" x2="373.2" y2="364"/>
<line class="st1" x1="330.7" y1="364" x2="373.2" y2="364"/>
<line class="st1" x1="361.2" y1="224.6" x2="361.2" y2="354"/>
<line class="st1" x1="349.2" y1="224.6" x2="349.2" y2="344"/>
<line class="st1" x1="337.2" y1="224.6" x2="337.2" y2="334"/>
<line class="st1" x1="330.7" y1="354" x2="361.2" y2="354"/>
<line class="st1" x1="330.7" y1="334" x2="337.2" y2="334"/>
<line class="st1" x1="330.7" y1="344" x2="349.2" y2="344"/>
<text transform="matrix(1 0 0 1 82.1499 285.0004)" class="st5 st6 st8">31:19</text>
<text transform="matrix(1 0 0 1 96.5522 295.0004)" class="st5 st6 st8">18</text>
<text transform="matrix(1 0 0 1 306.9526 295.0004)" class="st5 st6 st8">R/W</text>
<text transform="matrix(1 0 0 1 128.9526 375.0004)" class="st5 st6 st8">MCE</text>
<text transform="matrix(1 0 0 1 119.3511 295.0004)" class="st5 st6 st8">OSXSAVE</text>
<text transform="matrix(1 0 0 1 169.1538 285.0004)" class="st5 st6 st8">Reserved, Must be Zero</text>
<text transform="matrix(1 0 0 1 169.1538 295.0004)" class="st5 st6 st8">XSAVE and Processor</text>
<text transform="matrix(1 0 0 1 128.9526 355.0004)" class="st5 st6 st8">PCE</text>
<text transform="matrix(1 0 0 1 306.9526 375.0004)" class="st5 st6 st8">R/W</text>
<text transform="matrix(1 0 0 1 306.9526 355.0004)" class="st5 st6 st8">R/W</text>
<line class="st1" x1="240.7" y1="228.7" x2="57" y2="228.7"/>
<line class="st1" x1="264.7" y1="231.7" x2="69" y2="231.7"/>
<line class="st1" x1="240.7" y1="228.7" x2="240.7" y2="224.6"/>
<line class="st1" x1="264.7" y1="231.7" x2="264.7" y2="224.6"/>
<line class="st1" x1="69" y1="231.7" x2="69" y2="294"/>
<line class="st1" x1="57" y1="228.7" x2="57" y2="314"/>
<line class="st1" x1="57" y1="314" x2="75.7" y2="314"/>
<line class="st1" x1="69" y1="294" x2="76.3" y2="294"/>
<text transform="matrix(1 0 0 1 306.9526 395.0004)" class="st5 st6 st8">R/W</text>
<g>
	<rect x="-2.7" y="194.6" class="st3" width="23.7" height="12.9"/>
	<text transform="matrix(1 0 0 1 -1.655 204.2771)" class="st5 st6 st11">CR4</text>
	<line class="st1" x1="9.1" y1="207.5" x2="9.1" y2="208.8"/>
	<line class="st1" x1="5.8" y1="207.5" x2="5.8" y2="208.8"/>
	<line class="st1" x1="12.5" y1="207.5" x2="12.5" y2="208.8"/>
	<line class="st1" x1="15.9" y1="207.5" x2="15.9" y2="208.8"/>
	<line class="st1" x1="2.4" y1="207.5" x2="2.4" y2="208.8"/>
	<line class="st1" x1="9.1" y1="193.2" x2="9.1" y2="194.6"/>
	<line class="st1" x1="5.8" y1="193.2" x2="5.8" y2="194.6"/>
	<line class="st1" x1="12.5" y1="193.2" x2="12.5" y2="194.6"/>
	<line class="st1" x1="15.9" y1="193.2" x2="15.9" y2="194.6"/>
	<line class="st1" x1="2.4" y1="193.2" x2="2.4" y2="194.6"/>
</g>
</svg>
