<?xml version="1.0" encoding="utf-8"?>
<!-- Generator: Adobe Illustrator 19.1.0, SVG Export Plug-In . SVG Version: 6.00 Build 0)  -->
<svg version="1.1" id="Layer_1" xmlns="http://www.w3.org/2000/svg" xmlns:xlink="http://www.w3.org/1999/xlink" x="0px" y="0px"
	 viewBox="-71 139.3 647.5 335.7" style="enable-background:new -71 139.3 647.5 335.7;" xml:space="preserve">
<style type="text/css">
	.st0{fill:none;stroke:#231F20;stroke-width:0.25;stroke-miterlimit:10;}
	.st1{fill:#B2DDC7;stroke:#231F20;stroke-width:0.25;stroke-miterlimit:10;}
	.st2{fill:#FFFFFF;stroke:#231F20;stroke-width:0.25;stroke-miterlimit:10;}
	.st3{fill:#BBBDBF;stroke:#231F20;stroke-width:0.25;stroke-miterlimit:10;}
	.st4{fill:#231F20;}
	.st5{font-family:'CourierNewPSMT';}
	.st6{font-size:7px;}
	.st7{fill:#BBBDBF;}
	.st8{font-family:'CourierNewPS-BoldMT';}
	.st9{font-size:8px;}
	.st10{fill:none;stroke:#231F20;stroke-width:0.5;stroke-miterlimit:10;}
	.st11{font-size:12px;}
</style>
<line class="st0" x1="104" y1="251.6" x2="104.2" y2="235.5"/>
<line class="st0" x1="116.2" y1="248.6" x2="116.2" y2="235.5"/>
<line class="st0" x1="128.2" y1="245.6" x2="128.2" y2="235.5"/>
<line class="st0" x1="411.2" y1="197.2" x2="411.2" y2="226.6"/>
<line class="st0" x1="423.2" y1="197.2" x2="423.2" y2="226.6"/>
<line class="st0" x1="435.2" y1="197.2" x2="435.2" y2="226.6"/>
<line class="st0" x1="447.2" y1="197.2" x2="447.2" y2="226.6"/>
<line class="st0" x1="459.2" y1="197.2" x2="459.2" y2="226.6"/>
<line class="st0" x1="471.2" y1="197.2" x2="471.2" y2="226.6"/>
<line class="st0" x1="98.2" y1="197.2" x2="98.2" y2="226.6"/>
<line class="st0" x1="110.2" y1="197.2" x2="110.2" y2="226.6"/>
<line class="st0" x1="122.2" y1="197.2" x2="122.2" y2="226.6"/>
<line class="st0" x1="134.2" y1="197.2" x2="134.2" y2="226.6"/>
<line class="st0" x1="146.2" y1="197.2" x2="146.2" y2="226.6"/>
<line class="st0" x1="158.2" y1="197.2" x2="158.2" y2="226.6"/>
<line class="st0" x1="170.2" y1="197.2" x2="170.2" y2="226.6"/>
<line class="st0" x1="182.2" y1="197.2" x2="182.2" y2="226.6"/>
<line class="st0" x1="194.2" y1="197.2" x2="194.2" y2="226.6"/>
<line class="st0" x1="206.2" y1="197.2" x2="206.2" y2="226.6"/>
<line class="st0" x1="218.2" y1="197.2" x2="218.2" y2="226.6"/>
<line class="st0" x1="230.2" y1="197.2" x2="230.2" y2="226.6"/>
<line class="st0" x1="242.2" y1="197.2" x2="242.2" y2="226.6"/>
<line class="st0" x1="254.2" y1="197.2" x2="254.2" y2="226.6"/>
<line class="st0" x1="266.2" y1="197.2" x2="266.2" y2="226.6"/>
<line class="st0" x1="278.2" y1="197.2" x2="278.2" y2="226.6"/>
<line class="st0" x1="290.2" y1="197.2" x2="290.2" y2="226.6"/>
<line class="st0" x1="302.2" y1="197.2" x2="302.2" y2="226.6"/>
<line class="st0" x1="314.2" y1="197.2" x2="314.2" y2="226.6"/>
<line class="st0" x1="326.2" y1="197.2" x2="326.2" y2="226.6"/>
<line class="st0" x1="338.2" y1="197.2" x2="338.2" y2="226.6"/>
<line class="st0" x1="350.2" y1="197.2" x2="350.2" y2="226.6"/>
<line class="st0" x1="362.2" y1="197.2" x2="362.2" y2="226.6"/>
<line class="st0" x1="374.2" y1="197.2" x2="374.2" y2="226.6"/>
<line class="st0" x1="386.2" y1="197.2" x2="386.2" y2="226.6"/>
<line class="st0" x1="398.2" y1="197.2" x2="398.2" y2="226.6"/>
<line class="st0" x1="483.2" y1="197.2" x2="483.2" y2="226.6"/>
<rect x="98.2" y="197.2" class="st1" width="12" height="29.3"/>
<rect x="110.2" y="197.2" class="st1" width="12" height="29.3"/>
<rect x="122.2" y="197.2" class="st1" width="12" height="29.3"/>
<rect x="134.2" y="197.2" class="st2" width="12" height="29.3"/>
<rect x="146.2" y="197.2" class="st2" width="12" height="29.3"/>
<rect x="158.2" y="197.2" class="st2" width="12" height="29.3"/>
<rect x="170.2" y="197.2" class="st2" width="12" height="29.3"/>
<rect x="182.2" y="197.2" class="st2" width="12" height="29.3"/>
<rect x="194.2" y="197.2" class="st2" width="12" height="29.3"/>
<rect x="206.2" y="197.2" class="st2" width="12" height="29.3"/>
<rect x="218.2" y="197.2" class="st2" width="12" height="29.3"/>
<rect x="230.2" y="197.2" class="st2" width="12" height="29.3"/>
<rect x="242.2" y="197.2" class="st2" width="12" height="29.3"/>
<rect x="254.2" y="197.2" class="st1" width="12" height="29.3"/>
<rect x="266.2" y="197.2" class="st3" width="12" height="29.3"/>
<rect x="278.2" y="197.2" class="st1" width="12" height="29.3"/>
<rect x="290.2" y="197.2" class="st2" width="12" height="29.3"/>
<rect x="302.2" y="197.2" class="st2" width="12" height="29.3"/>
<rect x="314.2" y="197.2" class="st2" width="12" height="29.3"/>
<rect x="326.2" y="197.2" class="st2" width="12" height="29.3"/>
<rect x="338.2" y="197.2" class="st2" width="12" height="29.3"/>
<rect x="350.2" y="197.2" class="st2" width="12" height="29.3"/>
<rect x="362.2" y="197.2" class="st2" width="12" height="29.3"/>
<rect x="374.2" y="197.2" class="st2" width="12" height="29.3"/>
<rect x="386.2" y="197.2" class="st2" width="12" height="29.3"/>
<rect x="398.2" y="197.2" class="st2" width="13" height="29.3"/>
<rect x="411.2" y="197.2" class="st1" width="12" height="29.3"/>
<rect x="423.2" y="197.2" class="st1" width="12" height="29.3"/>
<rect x="435.2" y="197.2" class="st1" width="12" height="29.3"/>
<rect x="447.2" y="197.2" class="st1" width="12" height="29.3"/>
<rect x="459.2" y="197.2" class="st1" width="12" height="29.3"/>
<rect x="471.2" y="197.2" class="st1" width="12" height="29.3"/>
<line class="st1" x1="98.2" y1="197.2" x2="483.2" y2="197.2"/>
<line class="st0" x1="98.2" y1="226.6" x2="483.2" y2="226.6"/>
<text transform="matrix(1 0 0 1 474.1538 195.8775)" class="st4 st5 st6">0</text>
<text transform="matrix(1 0 0 1 462.1538 195.8775)" class="st4 st5 st6">1</text>
<text transform="matrix(1 0 0 1 450.1538 195.8775)" class="st4 st5 st6">2</text>
<text transform="matrix(1 0 0 1 438.1538 195.8775)" class="st4 st5 st6">3</text>
<text transform="matrix(1 0 0 1 426.1538 195.8775)" class="st4 st5 st6">4</text>
<text transform="matrix(1 0 0 1 414.1538 195.8775)" class="st4 st5 st6">5</text>
<text transform="matrix(1 0 0 1 402.1538 195.8775)" class="st4 st5 st6">6</text>
<text transform="matrix(1 0 0 1 291.9536 195.8775)" class="st4 st5 st6">15</text>
<text transform="matrix(1 0 0 1 279.9536 195.8775)" class="st4 st5 st6">16</text>
<text transform="matrix(1 0 0 1 267.9536 195.8775)" class="st4 st5 st6">17</text>
<text transform="matrix(1 0 0 1 255.9536 195.8775)" class="st4 st5 st6">18</text>
<text transform="matrix(1 0 0 1 243.9536 195.8775)" class="st4 st5 st6">19</text>
<text transform="matrix(1 0 0 1 135.9536 195.8775)" class="st4 st5 st6">28</text>
<text transform="matrix(1 0 0 1 123.9536 195.8775)" class="st4 st5 st6">29</text>
<text transform="matrix(1 0 0 1 111.9536 195.8775)" class="st4 st5 st6">30</text>
<text transform="matrix(1 0 0 1 99.9536 195.8775)" class="st4 st5 st6">31</text>
<rect x="102.2" y="358.6" class="st7" width="240.7" height="10"/>
<rect x="102.2" y="338.6" class="st7" width="240.7" height="10"/>
<rect x="102.2" y="318.6" class="st7" width="240.7" height="10"/>
<text transform="matrix(1 0 0 1 106.5522 275.8775)" class="st4 st8 st9">Bits</text>
<text transform="matrix(1 0 0 1 144.9507 275.8775)" class="st4 st8 st9">Mnemonic</text>
<text transform="matrix(1 0 0 1 197.7495 275.8775)" class="st4 st8 st9">Description</text>
<text transform="matrix(1 0 0 1 326.9526 275.8775)" class="st4 st8 st9">R/W</text>
<text transform="matrix(1 0 0 1 116.5522 295.8775)" class="st4 st5 st9">31</text>
<text transform="matrix(1 0 0 1 116.5522 305.8775)" class="st4 st5 st9">30</text>
<text transform="matrix(1 0 0 1 116.5522 315.8775)" class="st4 st5 st9">29</text>
<text transform="matrix(1 0 0 1 102.1499 325.8775)" class="st4 st5 st9">28:19</text>
<text transform="matrix(1 0 0 1 116.5522 335.8775)" class="st4 st5 st9">18</text>
<text transform="matrix(1 0 0 1 116.5522 345.8775)" class="st4 st5 st9">17</text>
<text transform="matrix(1 0 0 1 116.5522 355.8775)" class="st4 st5 st9">16</text>
<text transform="matrix(1 0 0 1 106.9507 365.8775)" class="st4 st5 st9">15:6</text>
<text transform="matrix(1 0 0 1 121.353 375.8775)" class="st4 st5 st9">5</text>
<text transform="matrix(1 0 0 1 121.353 385.8775)" class="st4 st5 st9">4</text>
<text transform="matrix(1 0 0 1 121.353 395.8775)" class="st4 st5 st9">3</text>
<text transform="matrix(1 0 0 1 121.353 405.8775)" class="st4 st5 st9">2</text>
<text transform="matrix(1 0 0 1 121.353 415.8775)" class="st4 st5 st9">1</text>
<text transform="matrix(1 0 0 1 121.353 425.8775)" class="st4 st5 st9">0</text>
<text transform="matrix(1 0 0 1 326.9526 295.8775)" class="st4 st5 st9">R/W</text>
<text transform="matrix(1 0 0 1 326.9526 305.8775)" class="st4 st5 st9">R/W</text>
<text transform="matrix(1 0 0 1 326.9526 315.8775)" class="st4 st5 st9">R/W</text>
<text transform="matrix(1 0 0 1 326.9526 335.8775)" class="st4 st5 st9">R/W</text>
<text transform="matrix(1 0 0 1 326.9526 355.8775)" class="st4 st5 st9">R/W</text>
<text transform="matrix(1 0 0 1 326.9526 375.8775)" class="st4 st5 st9">R/W</text>
<text transform="matrix(1 0 0 1 331.7534 385.8775)" class="st4 st5 st9">R</text>
<text transform="matrix(1 0 0 1 326.9526 395.8775)" class="st4 st5 st9">R/W</text>
<text transform="matrix(1 0 0 1 326.9526 405.8775)" class="st4 st5 st9">R/W</text>
<text transform="matrix(1 0 0 1 326.9526 415.8775)" class="st4 st5 st9">R/W</text>
<text transform="matrix(1 0 0 1 326.9526 425.8775)" class="st4 st5 st9">R/W</text>
<text transform="matrix(1 0 0 1 158.353 295.8775)" class="st4 st5 st9">RG</text>
<text transform="matrix(1 0 0 1 158.353 305.8775)" class="st4 st5 st9">CD</text>
<text transform="matrix(1 0 0 1 158.353 315.8775)" class="st4 st5 st9">NW</text>
<text transform="matrix(1 0 0 1 158.353 335.8775)" class="st4 st5 st9">AM</text>
<text transform="matrix(1 0 0 1 158.353 355.8775)" class="st4 st5 st9">WP</text>
<text transform="matrix(1 0 0 1 158.353 375.8775)" class="st4 st5 st9">NE</text>
<text transform="matrix(1 0 0 1 158.353 385.8775)" class="st4 st5 st9">ET</text>
<text transform="matrix(1 0 0 1 158.353 395.8775)" class="st4 st5 st9">TS</text>
<text transform="matrix(1 0 0 1 158.353 405.8775)" class="st4 st5 st9">EM</text>
<text transform="matrix(1 0 0 1 158.353 415.8775)" class="st4 st5 st9">MP</text>
<text transform="matrix(1 0 0 1 158.353 425.8775)" class="st4 st5 st9">PE</text>
<text transform="matrix(1 0 0 1 199.1538 295.8775)" class="st4 st5 st9">Paging</text>
<text transform="matrix(1 0 0 1 199.1538 305.8775)" class="st4 st5 st9">Cache Disable</text>
<text transform="matrix(1 0 0 1 199.1538 315.8775)" class="st4 st5 st9">Not Writethrough</text>
<text transform="matrix(1 0 0 1 199.1538 325.8775)" class="st4 st5 st9">Reserved</text>
<text transform="matrix(1 0 0 1 199.1538 335.8775)" class="st4 st5 st9">Alignment Mask</text>
<text transform="matrix(1 0 0 1 199.1538 345.8775)" class="st4 st5 st9">Reserved</text>
<text transform="matrix(1 0 0 1 199.1538 355.8775)" class="st4 st5 st9">Write Protection</text>
<text transform="matrix(1 0 0 1 199.1538 365.8775)" class="st4 st5 st9">Reserved</text>
<text transform="matrix(1 0 0 1 199.1538 375.8775)" class="st4 st5 st9">Numeric Error</text>
<text transform="matrix(1 0 0 1 199.1538 385.8775)" class="st4 st5 st9">Extension Type</text>
<text transform="matrix(1 0 0 1 199.1538 395.8775)" class="st4 st5 st9">Task Switched</text>
<text transform="matrix(1 0 0 1 199.1538 405.8775)" class="st4 st5 st9">Emulation</text>
<text transform="matrix(1 0 0 1 199.1538 415.8775)" class="st4 st5 st9">Monitor Coprocessor</text>
<text transform="matrix(1 0 0 1 199.1538 425.8775)" class="st4 st5 st9">Protection Enabled</text>
<line class="st10" x1="102.2" y1="282.2" x2="342.8" y2="282.2"/>
<text transform="matrix(1 0 0 1 474.7534 208.8774)"><tspan x="0" y="0" class="st4 st5 st9">P</tspan><tspan x="0" y="9.6" class="st4 st5 st9">E</tspan></text>
<text transform="matrix(1 0 0 1 462.7534 208.8774)"><tspan x="0" y="0" class="st4 st5 st9">M</tspan><tspan x="0" y="9.6" class="st4 st5 st9">P</tspan></text>
<text transform="matrix(1 0 0 1 450.7534 208.8774)"><tspan x="0" y="0" class="st4 st5 st9">E</tspan><tspan x="0" y="9.6" class="st4 st5 st9">M</tspan></text>
<text transform="matrix(1 0 0 1 438.7534 208.8774)"><tspan x="0" y="0" class="st4 st5 st9">T</tspan><tspan x="0" y="9.6" class="st4 st5 st9">S</tspan></text>
<text transform="matrix(1 0 0 1 426.7534 208.8774)"><tspan x="0" y="0" class="st4 st5 st9">E</tspan><tspan x="0" y="9.6" class="st4 st5 st9">T</tspan></text>
<text transform="matrix(1 0 0 1 414.7534 208.8774)"><tspan x="0" y="0" class="st4 st5 st9">N</tspan><tspan x="0" y="9.6" class="st4 st5 st9">E</tspan></text>
<text transform="matrix(1 0 0 1 281.7534 208.8774)"><tspan x="0" y="0" class="st4 st5 st9">W</tspan><tspan x="0" y="9.6" class="st4 st5 st9">P</tspan></text>
<text transform="matrix(1 0 0 1 257.7534 208.8774)"><tspan x="0" y="0" class="st4 st5 st9">A</tspan><tspan x="0" y="9.6" class="st4 st5 st9">M</tspan></text>
<text transform="matrix(1 0 0 1 125.5996 208.8774)"><tspan x="0" y="0" class="st4 st5 st9">N</tspan><tspan x="0" y="9.6" class="st4 st5 st9">W</tspan></text>
<text transform="matrix(1 0 0 1 113.5996 208.8774)"><tspan x="0" y="0" class="st4 st5 st9">C</tspan><tspan x="0" y="9.6" class="st4 st5 st9">D</tspan></text>
<text transform="matrix(1 0 0 1 101.5996 208.8774)"><tspan x="0" y="0" class="st4 st5 st9">R</tspan><tspan x="0" y="9.6" class="st4 st5 st9">G</tspan></text>
<rect x="134.2" y="197.2" class="st3" width="120" height="29.3"/>
<rect x="290.2" y="197.2" class="st3" width="121" height="29.3"/>
<line class="st0" x1="350.7" y1="414.9" x2="465.2" y2="414.9"/>
<line class="st0" x1="465.2" y1="414.9" x2="465.2" y2="235.5"/>
<line class="st0" x1="350.7" y1="424.9" x2="477.2" y2="424.9"/>
<line class="st0" x1="477.2" y1="235.5" x2="477.2" y2="424.9"/>
<line class="st0" x1="350.7" y1="404.9" x2="453.2" y2="404.9"/>
<line class="st0" x1="453.2" y1="235.5" x2="453.2" y2="404.9"/>
<line class="st0" x1="441.2" y1="235.5" x2="441.2" y2="394.9"/>
<line class="st0" x1="350.7" y1="394.9" x2="441.2" y2="394.9"/>
<line class="st0" x1="429.2" y1="235.5" x2="429.2" y2="384.9"/>
<line class="st0" x1="417.2" y1="235.5" x2="417.2" y2="374.9"/>
<line class="st0" x1="350.7" y1="384.9" x2="429.2" y2="384.9"/>
<line class="st0" x1="350.7" y1="374.9" x2="417.2" y2="374.9"/>
<line class="st0" x1="260.2" y1="235.5" x2="260.2" y2="242.6"/>
<line class="st0" x1="284.2" y1="235.5" x2="284.2" y2="239.6"/>
<line class="st0" x1="284.2" y1="239.6" x2="404.7" y2="239.6"/>
<line class="st0" x1="405.2" y1="239.6" x2="405.2" y2="354.9"/>
<line class="st0" x1="350.7" y1="354.9" x2="405.2" y2="354.9"/>
<line class="st0" x1="393.2" y1="242.6" x2="393.2" y2="334.9"/>
<line class="st0" x1="350.7" y1="334.9" x2="393.2" y2="334.9"/>
<line class="st0" x1="260.2" y1="242.6" x2="393.2" y2="242.6"/>
<line class="st0" x1="128.2" y1="245.6" x2="381.2" y2="245.6"/>
<line class="st0" x1="116.2" y1="248.6" x2="369.2" y2="248.6"/>
<line class="st0" x1="104" y1="251.6" x2="357.2" y2="251.6"/>
<line class="st0" x1="381.2" y1="245.6" x2="381.2" y2="315.2"/>
<line class="st0" x1="369.2" y1="248.6" x2="369.2" y2="305.2"/>
<line class="st0" x1="357.2" y1="251.6" x2="357.2" y2="294.9"/>
<line class="st0" x1="350.7" y1="314.9" x2="381.2" y2="314.9"/>
<line class="st0" x1="350.7" y1="294.9" x2="357.2" y2="294.9"/>
<line class="st0" x1="350.7" y1="304.9" x2="369.2" y2="304.9"/>
<g>
	<rect x="-2.7" y="205.5" class="st1" width="23.7" height="12.9"/>
	<text transform="matrix(1 0 0 1 -1.655 215.1543)" class="st4 st5 st11">CR0</text>
	<line class="st0" x1="9.1" y1="218.3" x2="9.1" y2="219.7"/>
	<line class="st0" x1="5.8" y1="218.3" x2="5.8" y2="219.7"/>
	<line class="st0" x1="12.5" y1="218.3" x2="12.5" y2="219.7"/>
	<line class="st0" x1="15.9" y1="218.3" x2="15.9" y2="219.7"/>
	<line class="st0" x1="2.4" y1="218.3" x2="2.4" y2="219.7"/>
	<line class="st0" x1="9.1" y1="204.1" x2="9.1" y2="205.5"/>
	<line class="st0" x1="5.8" y1="204.1" x2="5.8" y2="205.5"/>
	<line class="st0" x1="12.5" y1="204.1" x2="12.5" y2="205.5"/>
	<line class="st0" x1="15.9" y1="204.1" x2="15.9" y2="205.5"/>
	<line class="st0" x1="2.4" y1="204.1" x2="2.4" y2="205.5"/>
</g>
</svg>
