<?xml version="1.0" encoding="utf-8"?>
<!-- Generator: Adobe Illustrator 19.1.0, SVG Export Plug-In . SVG Version: 6.00 Build 0)  -->
<svg version="1.1" id="Layer_1" xmlns="http://www.w3.org/2000/svg" xmlns:xlink="http://www.w3.org/1999/xlink" x="0px" y="0px"
	 viewBox="-71 76.6 647.5 384" style="enable-background:new -71 76.6 647.5 384;" xml:space="preserve">
<style type="text/css">
	.st0{fill:#FFFBD4;stroke:#231F20;stroke-width:0.25;stroke-miterlimit:10;}
	.st1{fill:#231F20;}
	.st2{font-family:'CourierNewPSMT';}
	.st3{font-size:12px;}
	.st4{fill:none;stroke:#231F20;stroke-width:0.25;stroke-miterlimit:10;}
	.st5{fill:#FFFFFF;stroke:#231F20;stroke-width:0.25;stroke-miterlimit:10;}
	.st6{fill:none;stroke:#BBBDBF;stroke-width:0.25;stroke-miterlimit:10;}
	.st7{fill:#231F20;stroke:#231F20;stroke-width:0.25;stroke-miterlimit:10;}
	.st8{fill:#B2DDC7;stroke:#231F20;stroke-width:0.25;stroke-miterlimit:10;}
	.st9{fill:#B2DDC7;}
</style>
<rect x="198.5" y="383.7" class="st0" width="80.5" height="27"/>
<g>
	<rect x="-29.2" y="197.8" class="st0" width="23.7" height="12.9"/>
	<text transform="matrix(1 0 0 1 -24.5482 207.5001)" class="st1 st2 st3">CS</text>
	<line class="st4" x1="-17.3" y1="210.7" x2="-17.3" y2="212"/>
	<line class="st4" x1="-20.7" y1="210.7" x2="-20.7" y2="212"/>
	<line class="st4" x1="-14" y1="210.7" x2="-14" y2="212"/>
	<line class="st4" x1="-10.6" y1="210.7" x2="-10.6" y2="212"/>
	<line class="st4" x1="-24.1" y1="210.7" x2="-24.1" y2="212"/>
	<line class="st4" x1="-17.3" y1="196.5" x2="-17.3" y2="197.8"/>
	<line class="st4" x1="-20.7" y1="196.5" x2="-20.7" y2="197.8"/>
	<line class="st4" x1="-14" y1="196.5" x2="-14" y2="197.8"/>
	<line class="st4" x1="-10.6" y1="196.5" x2="-10.6" y2="197.8"/>
	<line class="st4" x1="-24.1" y1="196.5" x2="-24.1" y2="197.8"/>
</g>
<g>
	<rect x="-29.2" y="217.8" class="st0" width="23.7" height="12.9"/>
	<text transform="matrix(1 0 0 1 -24.5482 227.5001)" class="st1 st2 st3">DS</text>
	<line class="st4" x1="-17.3" y1="230.7" x2="-17.3" y2="232"/>
	<line class="st4" x1="-20.7" y1="230.7" x2="-20.7" y2="232"/>
	<line class="st4" x1="-14" y1="230.7" x2="-14" y2="232"/>
	<line class="st4" x1="-10.6" y1="230.7" x2="-10.6" y2="232"/>
	<line class="st4" x1="-24.1" y1="230.7" x2="-24.1" y2="232"/>
	<line class="st4" x1="-17.3" y1="216.5" x2="-17.3" y2="217.8"/>
	<line class="st4" x1="-20.7" y1="216.5" x2="-20.7" y2="217.8"/>
	<line class="st4" x1="-14" y1="216.5" x2="-14" y2="217.8"/>
	<line class="st4" x1="-10.6" y1="216.5" x2="-10.6" y2="217.8"/>
	<line class="st4" x1="-24.1" y1="216.5" x2="-24.1" y2="217.8"/>
</g>
<g>
	<rect x="-29.2" y="297.8" class="st0" width="23.7" height="12.9"/>
	<text transform="matrix(1 0 0 1 -24.5482 307.5001)" class="st1 st2 st3">SS</text>
	<line class="st4" x1="-17.3" y1="310.7" x2="-17.3" y2="312"/>
	<line class="st4" x1="-20.7" y1="310.7" x2="-20.7" y2="312"/>
	<line class="st4" x1="-14" y1="310.7" x2="-14" y2="312"/>
	<line class="st4" x1="-10.6" y1="310.7" x2="-10.6" y2="312"/>
	<line class="st4" x1="-24.1" y1="310.7" x2="-24.1" y2="312"/>
	<line class="st4" x1="-17.3" y1="296.5" x2="-17.3" y2="297.8"/>
	<line class="st4" x1="-20.7" y1="296.5" x2="-20.7" y2="297.8"/>
	<line class="st4" x1="-14" y1="296.5" x2="-14" y2="297.8"/>
	<line class="st4" x1="-10.6" y1="296.5" x2="-10.6" y2="297.8"/>
	<line class="st4" x1="-24.1" y1="296.5" x2="-24.1" y2="297.8"/>
</g>
<g>
	<rect x="-29.2" y="237.8" class="st0" width="23.7" height="12.9"/>
	<text transform="matrix(1 0 0 1 -24.5482 247.5001)" class="st1 st2 st3">ES</text>
	<line class="st4" x1="-17.3" y1="250.7" x2="-17.3" y2="252"/>
	<line class="st4" x1="-20.7" y1="250.7" x2="-20.7" y2="252"/>
	<line class="st4" x1="-14" y1="250.7" x2="-14" y2="252"/>
	<line class="st4" x1="-10.6" y1="250.7" x2="-10.6" y2="252"/>
	<line class="st4" x1="-24.1" y1="250.7" x2="-24.1" y2="252"/>
	<line class="st4" x1="-17.3" y1="236.5" x2="-17.3" y2="237.8"/>
	<line class="st4" x1="-20.7" y1="236.5" x2="-20.7" y2="237.8"/>
	<line class="st4" x1="-14" y1="236.5" x2="-14" y2="237.8"/>
	<line class="st4" x1="-10.6" y1="236.5" x2="-10.6" y2="237.8"/>
	<line class="st4" x1="-24.1" y1="236.5" x2="-24.1" y2="237.8"/>
</g>
<g>
	<rect x="-29.2" y="257.8" class="st0" width="23.7" height="12.9"/>
	<text transform="matrix(1 0 0 1 -24.5482 267.5001)" class="st1 st2 st3">FS</text>
	<line class="st4" x1="-17.3" y1="270.7" x2="-17.3" y2="272"/>
	<line class="st4" x1="-20.7" y1="270.7" x2="-20.7" y2="272"/>
	<line class="st4" x1="-14" y1="270.7" x2="-14" y2="272"/>
	<line class="st4" x1="-10.6" y1="270.7" x2="-10.6" y2="272"/>
	<line class="st4" x1="-24.1" y1="270.7" x2="-24.1" y2="272"/>
	<line class="st4" x1="-17.3" y1="256.5" x2="-17.3" y2="257.8"/>
	<line class="st4" x1="-20.7" y1="256.5" x2="-20.7" y2="257.8"/>
	<line class="st4" x1="-14" y1="256.5" x2="-14" y2="257.8"/>
	<line class="st4" x1="-10.6" y1="256.5" x2="-10.6" y2="257.8"/>
	<line class="st4" x1="-24.1" y1="256.5" x2="-24.1" y2="257.8"/>
</g>
<g>
	<rect x="-29.2" y="277.8" class="st0" width="23.7" height="12.9"/>
	<text transform="matrix(1 0 0 1 -24.5482 287.5001)" class="st1 st2 st3">GS</text>
	<line class="st4" x1="-17.3" y1="290.7" x2="-17.3" y2="292"/>
	<line class="st4" x1="-20.7" y1="290.7" x2="-20.7" y2="292"/>
	<line class="st4" x1="-14" y1="290.7" x2="-14" y2="292"/>
	<line class="st4" x1="-10.6" y1="290.7" x2="-10.6" y2="292"/>
	<line class="st4" x1="-24.1" y1="290.7" x2="-24.1" y2="292"/>
	<line class="st4" x1="-17.3" y1="276.5" x2="-17.3" y2="277.8"/>
	<line class="st4" x1="-20.7" y1="276.5" x2="-20.7" y2="277.8"/>
	<line class="st4" x1="-14" y1="276.5" x2="-14" y2="277.8"/>
	<line class="st4" x1="-10.6" y1="276.5" x2="-10.6" y2="277.8"/>
	<line class="st4" x1="-24.1" y1="276.5" x2="-24.1" y2="277.8"/>
</g>
<g>
	<rect x="316.2" y="288.5" class="st5" width="160.3" height="43.2"/>
	<line class="st6" x1="316.2" y1="310.1" x2="476.4" y2="310.1"/>
	<line class="st6" x1="396.3" y1="288.7" x2="396.3" y2="310.3"/>
	<text transform="matrix(1 0 0 1 382.5878 324.699)" class="st1 st2 st3">Base</text>
	<text transform="matrix(1 0 0 1 418.9874 302.7431)" class="st1 st2 st3">Limit</text>
</g>
<line class="st4" x1="316.2" y1="212" x2="316.2" y2="411.4"/>
<line class="st4" x1="476.4" y1="212" x2="476.4" y2="411.4"/>
<line class="st4" x1="316.2" y1="212" x2="476.4" y2="212"/>
<line class="st4" x1="316.2" y1="411.4" x2="476.4" y2="411.4"/>
<text transform="matrix(1 0 0 1 -43.1506 171.0992)"><tspan x="0" y="0" class="st1 st2 st3">Segment </tspan><tspan x="-3.6" y="14.4" class="st1 st2 st3">Registers</tspan></text>
<text transform="matrix(1 0 0 1 320.6425 181.0992)"><tspan x="0" y="0" class="st1 st2 st3">Global/Local(TI=0/1)</tspan><tspan x="10.8" y="14.4" class="st1 st2 st3">Descriptors Table</tspan></text>
<rect x="100.8" y="83.5" class="st0" width="160.3" height="27"/>
<line class="st4" x1="212.7" y1="83.5" x2="212.7" y2="110.5"/>
<text transform="matrix(1 0 0 1 216.4518 100.2742)" class="st1 st2 st3">TI</text>
<text transform="matrix(1 0 0 1 107.5323 99.9774)" class="st1 st2 st3">Selector Index</text>
<text transform="matrix(1 0 0 1 237.1852 100.2747)" class="st1 st2 st3">RPL</text>
<line class="st4" x1="234" y1="83.5" x2="234" y2="110.5"/>
<line class="st4" x1="395.6" y1="129.6" x2="395.6" y2="166.5"/>
<line class="st4" x1="216.7" y1="129.6" x2="216.7" y2="110.5"/>
<line class="st4" x1="58.2" y1="204.2" x2="-5.5" y2="204.2"/>
<line class="st4" x1="58.2" y1="204.6" x2="58.2" y2="97.8"/>
<line class="st4" x1="58.2" y1="97.4" x2="100.5" y2="97.4"/>
<polygon class="st7" points="99.7,97.4 95.2,94.8 95.2,100 "/>
<rect x="61.7" y="383.7" class="st8" width="136.8" height="27"/>
<text transform="matrix(1 0 0 1 87.7334 400.2031)" class="st1 st2 st3">Base Address</text>
<rect x="100.8" y="163.5" class="st0" width="160.3" height="27"/>
<line class="st4" x1="212.7" y1="163.5" x2="212.7" y2="190.5"/>
<text transform="matrix(1 0 0 1 106.5323 179.9774)" class="st1 st2 st3">Selector Index</text>
<text transform="matrix(1 0 0 1 224.8512 180.2742)" class="st1 st2 st3">000</text>
<text transform="matrix(1 0 0 1 222.9375 400.2031)" class="st1 st2 st3">Limit</text>
<line class="st4" x1="198.5" y1="383.7" x2="198.5" y2="410.7"/>
<line class="st4" x1="151.9" y1="110.5" x2="151.9" y2="163.5"/>
<polygon class="st7" points="151.9,163.5 154.5,159 149.4,159 "/>
<polygon class="st7" points="395.6,166.5 398.2,163.2 393,163.2 "/>
<circle class="st4" cx="151.1" cy="248.6" r="13.7"/>
<rect x="150.3" y="244.4" class="st7" width="1.5" height="8.4"/>
<rect x="146.9" y="247.8" class="st7" width="8.4" height="1.5"/>
<line class="st4" x1="151" y1="191" x2="151" y2="232.1"/>
<line class="st4" x1="151.1" y1="311.1" x2="151.1" y2="262.3"/>
<polygon class="st7" points="151.1,262.7 148.5,267.2 153.7,267.2 "/>
<polygon class="st7" points="151.1,234.4 153.7,229.9 148.5,229.9 "/>
<line class="st4" x1="130.9" y1="383.7" x2="130.9" y2="311.1"/>
<line class="st4" x1="130.9" y1="311.1" x2="151.1" y2="311.1"/>
<line class="st4" x1="39.3" y1="397.4" x2="60.5" y2="397.4"/>
<polygon class="st7" points="59.7,397.4 55.2,394.8 55.2,400 "/>
<line class="st4" x1="39.3" y1="397.4" x2="39.3" y2="442.6"/>
<line class="st4" x1="39.3" y1="442.6" x2="15.7" y2="442.6"/>
<line class="st4" x1="164.8" y1="248.6" x2="286.5" y2="248.6"/>
<line class="st4" x1="286.5" y1="248.6" x2="286.5" y2="331.7"/>
<line class="st4" x1="286.5" y1="331.7" x2="316.2" y2="331.7"/>
<polygon class="st7" points="316,331.7 311.5,329.1 311.5,334.3 "/>
<circle class="st4" cx="239.1" cy="310.6" r="13.7"/>
<rect x="238.3" y="306.4" class="st7" width="1.5" height="8.4"/>
<rect x="234.9" y="309.8" class="st7" width="8.4" height="1.5"/>
<line class="st4" x1="239.1" y1="383.7" x2="239.1" y2="324.3"/>
<line class="st4" x1="151.1" y1="311.1" x2="225.3" y2="311.1"/>
<polygon class="st7" points="239.3,324.7 236.7,329.2 241.9,329.2 "/>
<polygon class="st7" points="224.6,311.3 220.1,308.7 220.1,313.9 "/>
<line class="st4" x1="239.1" y1="296.8" x2="239.1" y2="212"/>
<line class="st4" x1="239.1" y1="212" x2="316.2" y2="212"/>
<polygon class="st7" points="316.2,212 311.7,209.4 311.7,214.6 "/>
<line class="st4" x1="216.7" y1="129.6" x2="395.6" y2="129.6"/>
<g>
	<rect x="-26.7" y="436.1" class="st0" width="42.5" height="12.9"/>
	<line class="st4" x1="-5.4" y1="434.8" x2="-5.4" y2="436.1"/>
	<line class="st4" x1="-2.4" y1="434.8" x2="-2.4" y2="436.1"/>
	<line class="st4" x1="0.6" y1="434.8" x2="0.6" y2="436.1"/>
	<line class="st4" x1="3.6" y1="434.8" x2="3.6" y2="436.1"/>
	<line class="st4" x1="6.6" y1="434.8" x2="6.6" y2="436.1"/>
	<line class="st4" x1="9.6" y1="434.8" x2="9.6" y2="436.1"/>
	<line class="st4" x1="-20.4" y1="434.8" x2="-20.4" y2="436.1"/>
	<line class="st4" x1="-17.4" y1="434.8" x2="-17.4" y2="436.1"/>
	<line class="st4" x1="-14.4" y1="434.8" x2="-14.4" y2="436.1"/>
	<line class="st4" x1="-11.4" y1="434.8" x2="-11.4" y2="436.1"/>
	<line class="st4" x1="-8.4" y1="434.8" x2="-8.4" y2="436.1"/>
	<line class="st4" x1="-5.4" y1="449" x2="-5.4" y2="450.4"/>
	<line class="st4" x1="-2.4" y1="449" x2="-2.4" y2="450.4"/>
	<line class="st4" x1="0.6" y1="449" x2="0.6" y2="450.4"/>
	<line class="st4" x1="3.6" y1="449" x2="3.6" y2="450.4"/>
	<line class="st4" x1="6.6" y1="449" x2="6.6" y2="450.4"/>
	<line class="st4" x1="9.6" y1="449" x2="9.6" y2="450.4"/>
	<line class="st4" x1="-20.4" y1="449" x2="-20.4" y2="450.4"/>
	<line class="st4" x1="-17.4" y1="449" x2="-17.4" y2="450.4"/>
	<line class="st4" x1="-14.4" y1="449" x2="-14.4" y2="450.4"/>
	<line class="st4" x1="-11.4" y1="449" x2="-11.4" y2="450.4"/>
	<line class="st4" x1="-8.4" y1="449" x2="-8.4" y2="450.4"/>
	<line class="st4" x1="-23.4" y1="434.8" x2="-23.4" y2="436.1"/>
	<line class="st4" x1="12.6" y1="434.8" x2="12.6" y2="436.1"/>
	<line class="st4" x1="12.6" y1="449" x2="12.6" y2="450.4"/>
	<line class="st4" x1="-23.4" y1="449" x2="-23.4" y2="450.4"/>
	<rect x="-26.7" y="436.1" class="st9" width="27.4" height="12.9"/>
	<text transform="matrix(1 0 0 1 -19.7743 445.8978)" class="st1 st2 st3">GDTR</text>
</g>
</svg>
