<?xml version="1.0" encoding="utf-8"?>
<!-- Generator: Adobe Illustrator 19.1.0, SVG Export Plug-In . SVG Version: 6.00 Build 0)  -->
<svg version="1.1" id="Layer_1" xmlns="http://www.w3.org/2000/svg" xmlns:xlink="http://www.w3.org/1999/xlink" x="0px" y="0px"
	 viewBox="-71 139.3 647.5 323" style="enable-background:new -71 139.3 647.5 323;" xml:space="preserve">
<style type="text/css">
	.st0{fill:#E6E7E8;stroke:#231F20;stroke-width:0.25;stroke-miterlimit:10;}
	.st1{fill:#FFFFFF;stroke:#231F20;stroke-width:0.25;stroke-miterlimit:10;}
	.st2{fill:#F1F1F2;stroke:#231F20;stroke-width:0.25;stroke-miterlimit:10;}
	.st3{fill:#231F20;}
	.st4{font-family:'CourierNewPSMT';}
	.st5{font-size:12px;}
	.st6{fill:none;stroke:#231F20;stroke-width:0.25;stroke-miterlimit:10;}
	.st7{fill:#231F20;stroke:#231F20;stroke-width:0.25;stroke-miterlimit:10;}
	.st8{fill:#FFFBD4;stroke:#231F20;stroke-width:0.25;stroke-miterlimit:10;}
	.st9{fill:none;stroke:#BBBDBF;stroke-width:0.25;stroke-miterlimit:10;}
	.st10{fill:#B2DDC7;}
</style>
<rect x="410.5" y="210.3" class="st0" width="160.3" height="179.3"/>
<rect x="410.5" y="238.6" class="st1" width="160.3" height="102.3"/>
<rect x="-55.9" y="152.8" class="st2" width="128.6" height="27"/>
<text transform="matrix(1 0 0 1 -48.3905 169.3002)" class="st3 st4 st5">Interrupt Vector</text>
<circle class="st6" cx="90.6" cy="208.6" r="13.7"/>
<rect x="89.8" y="204.4" class="st7" width="1.5" height="8.4"/>
<rect x="89.8" y="204.4" transform="matrix(-0.5003 0.8658 -0.8658 -0.5003 316.5244 234.4628)" class="st7" width="1.5" height="8.4"/>
<polygon class="st7" points="79.2,199.5 78.8,195.5 75.2,199.2 "/>
<line class="st6" x1="65.5" y1="185.8" x2="78.9" y2="199.2"/>
<text transform="matrix(1 0 0 1 12.0523 234.6035)" class="st3 st4 st5">4</text>
<polygon class="st7" points="94.3,205.9 95,207.3 87.4,211.4 86.6,210 "/>
<polygon class="st7" points="79.1,217.5 75,217.8 78.7,221.5 "/>
<line class="st6" x1="65.4" y1="231.1" x2="78.8" y2="217.8"/>
<line class="st6" x1="65.4" y1="231.1" x2="24.3" y2="231.1"/>
<rect x="-54.9" y="376.4" class="st8" width="138.2" height="27"/>
<text transform="matrix(1 0 0 1 -44.6689 392.9011)" class="st3 st4 st5">IDT Base Address</text>
<ellipse class="st6" cx="140.1" cy="278.3" rx="13.2" ry="13.7"/>
<rect x="139.4" y="274.1" class="st7" width="1.5" height="8.4"/>
<rect x="136.1" y="277.5" class="st7" width="8.1" height="1.5"/>
<polygon class="st7" points="140.1,264.5 142.7,258 137.5,258 "/>
<line class="st6" x1="100.9" y1="389.9" x2="100.9" y2="279.2"/>
<line class="st6" x1="181.7" y1="389.9" x2="84.8" y2="389.9"/>
<rect x="180.5" y="210.3" class="st6" width="160.3" height="179.3"/>
<polygon class="st7" points="179.2,389.9 172.8,387.3 172.8,392.5 "/>
<line class="st6" x1="410.1" y1="341" x2="357.1" y2="341"/>
<line class="st6" x1="357.1" y1="341" x2="357.1" y2="267.5"/>
<line class="st6" x1="393.6" y1="294.5" x2="340.8" y2="294.5"/>
<polygon class="st7" points="410.5,341 404.1,338.4 404.1,343.6 "/>
<line class="st6" x1="409.8" y1="324.5" x2="393.4" y2="324.5"/>
<polygon class="st7" points="410.3,324.5 403.8,321.9 403.8,327.1 "/>
<line class="st6" x1="340.8" y1="267.5" x2="357.1" y2="267.5"/>
<line class="st6" x1="393.6" y1="294.5" x2="393.6" y2="324.5"/>
<rect x="410.5" y="238.6" class="st6" width="160.3" height="102.3"/>
<rect x="410.5" y="297.5" class="st6" width="160.3" height="27"/>
<text transform="matrix(1 0 0 1 251.8273 269.8228)" class="st3 st4 st5">CS</text>
<text transform="matrix(1 0 0 1 237.4249 297.8228)" class="st3 st4 st5">Offset</text>
<polygon class="st7" points="180.8,308 174.3,305.4 174.3,310.6 "/>
<line class="st6" x1="180.5" y1="254" x2="340.8" y2="254"/>
<line class="st6" x1="180.5" y1="308" x2="340.8" y2="308"/>
<line class="st9" x1="180.5" y1="281" x2="340.8" y2="281"/>
<text transform="matrix(1 0 0 1 427.8185 312.8228)" class="st3 st4 st5">Interrupt Handler</text>
<text transform="matrix(1 0 0 1 187.0167 179.8228)"><tspan x="0" y="0" class="st3 st4 st5">Interrupt-Desctiptor</tspan><tspan x="54" y="14.4" class="st3 st4 st5">Table</tspan></text>
<text transform="matrix(1 0 0 1 435.0197 179.8228)"><tspan x="0" y="0" class="st3 st4 st5">Virtual Address</tspan><tspan x="36" y="14.4" class="st3 st4 st5">Space</tspan></text>
<polygon class="st7" points="125.7,279.2 119.3,276.6 119.3,281.8 "/>
<line class="st6" x1="100.9" y1="279.2" x2="124.9" y2="279.2"/>
<line class="st6" x1="140.1" y1="208.6" x2="140.1" y2="264.6"/>
<line class="st6" x1="140.1" y1="292" x2="140.1" y2="308"/>
<line class="st6" x1="140.1" y1="308" x2="180.5" y2="308"/>
<line class="st6" x1="17.1" y1="403.4" x2="17.1" y2="444.5"/>
<line class="st6" x1="140.1" y1="208.6" x2="104.3" y2="208.6"/>
<line class="st6" x1="-34.8" y1="444.5" x2="17.1" y2="444.5"/>
<polygon class="st7" points="17.1,404.2 14.5,410.7 19.7,410.7 "/>
<g>
	<rect x="-47.2" y="438" class="st8" width="42.5" height="12.9"/>
	<line class="st6" x1="-25.9" y1="436.7" x2="-25.9" y2="438"/>
	<line class="st6" x1="-22.9" y1="436.7" x2="-22.9" y2="438"/>
	<line class="st6" x1="-19.9" y1="436.7" x2="-19.9" y2="438"/>
	<line class="st6" x1="-16.9" y1="436.7" x2="-16.9" y2="438"/>
	<line class="st6" x1="-13.9" y1="436.7" x2="-13.9" y2="438"/>
	<line class="st6" x1="-10.9" y1="436.7" x2="-10.9" y2="438"/>
	<line class="st6" x1="-40.9" y1="436.7" x2="-40.9" y2="438"/>
	<line class="st6" x1="-37.9" y1="436.7" x2="-37.9" y2="438"/>
	<line class="st6" x1="-34.9" y1="436.7" x2="-34.9" y2="438"/>
	<line class="st6" x1="-31.9" y1="436.7" x2="-31.9" y2="438"/>
	<line class="st6" x1="-28.9" y1="436.7" x2="-28.9" y2="438"/>
	<line class="st6" x1="-25.9" y1="450.9" x2="-25.9" y2="452.3"/>
	<line class="st6" x1="-22.9" y1="450.9" x2="-22.9" y2="452.3"/>
	<line class="st6" x1="-19.9" y1="450.9" x2="-19.9" y2="452.3"/>
	<line class="st6" x1="-16.9" y1="450.9" x2="-16.9" y2="452.3"/>
	<line class="st6" x1="-13.9" y1="450.9" x2="-13.9" y2="452.3"/>
	<line class="st6" x1="-10.9" y1="450.9" x2="-10.9" y2="452.3"/>
	<line class="st6" x1="-40.9" y1="450.9" x2="-40.9" y2="452.3"/>
	<line class="st6" x1="-37.9" y1="450.9" x2="-37.9" y2="452.3"/>
	<line class="st6" x1="-34.9" y1="450.9" x2="-34.9" y2="452.3"/>
	<line class="st6" x1="-31.9" y1="450.9" x2="-31.9" y2="452.3"/>
	<line class="st6" x1="-28.9" y1="450.9" x2="-28.9" y2="452.3"/>
	<line class="st6" x1="-43.9" y1="436.7" x2="-43.9" y2="438"/>
	<line class="st6" x1="-7.9" y1="436.7" x2="-7.9" y2="438"/>
	<line class="st6" x1="-7.9" y1="450.9" x2="-7.9" y2="452.3"/>
	<line class="st6" x1="-43.9" y1="450.9" x2="-43.9" y2="452.3"/>
	<rect x="-47.2" y="438" class="st10" width="27.4" height="12.9"/>
	<text transform="matrix(1 0 0 1 -40.2852 447.7994)" class="st3 st4 st5">IDTR</text>
</g>
<line class="st6" x1="8.5" y1="185.8" x2="8.4" y2="179.8"/>
<line class="st6" x1="8.5" y1="185.8" x2="65.5" y2="185.8"/>
</svg>
