<?xml version="1.0" encoding="utf-8"?>
<!-- Generator: Adobe Illustrator 19.1.0, SVG Export Plug-In . SVG Version: 6.00 Build 0)  -->
<svg version="1.1" id="Layer_1" xmlns="http://www.w3.org/2000/svg" xmlns:xlink="http://www.w3.org/1999/xlink" x="0px" y="0px"
	 viewBox="-71 76.6 647.5 94.5" style="enable-background:new -71 76.6 647.5 94.5;" xml:space="preserve">
<style type="text/css">
	.st0{fill:none;stroke:#231F20;stroke-width:0.25;stroke-miterlimit:10;}
	.st1{fill:#FFFFFF;stroke:#231F20;stroke-width:0.25;stroke-miterlimit:10;}
	.st2{fill:#231F20;}
	.st3{font-family:'CourierNewPSMT';}
	.st4{font-size:7px;}
	.st5{fill:#BBBDBF;stroke:#231F20;stroke-width:0.25;stroke-miterlimit:10;}
	.st6{font-size:8px;}
</style>
<line class="st0" x1="367.5" y1="131.7" x2="367.5" y2="161"/>
<line class="st0" x1="379.5" y1="131.7" x2="379.5" y2="161"/>
<line class="st0" x1="391.5" y1="131.7" x2="391.5" y2="161"/>
<line class="st0" x1="403.5" y1="131.7" x2="403.5" y2="161"/>
<line class="st0" x1="415.5" y1="131.7" x2="415.5" y2="161"/>
<line class="st0" x1="427.5" y1="131.7" x2="427.5" y2="161"/>
<line class="st0" x1="54.5" y1="131.7" x2="54.5" y2="161"/>
<line class="st0" x1="66.5" y1="131.7" x2="66.5" y2="161"/>
<line class="st0" x1="78.5" y1="131.7" x2="78.5" y2="161"/>
<line class="st0" x1="90.5" y1="131.7" x2="90.5" y2="161"/>
<line class="st0" x1="102.5" y1="131.7" x2="102.5" y2="161"/>
<line class="st0" x1="114.5" y1="131.7" x2="114.5" y2="161"/>
<line class="st0" x1="126.5" y1="131.7" x2="126.5" y2="161"/>
<line class="st0" x1="138.5" y1="131.7" x2="138.5" y2="161"/>
<line class="st0" x1="150.5" y1="131.7" x2="150.5" y2="161"/>
<line class="st0" x1="162.5" y1="131.7" x2="162.5" y2="161"/>
<line class="st0" x1="174.5" y1="131.7" x2="174.5" y2="161"/>
<line class="st0" x1="186.5" y1="131.7" x2="186.5" y2="161"/>
<line class="st0" x1="198.5" y1="131.7" x2="198.5" y2="161"/>
<line class="st0" x1="210.5" y1="131.7" x2="210.5" y2="161"/>
<line class="st0" x1="222.5" y1="131.7" x2="222.5" y2="161"/>
<line class="st0" x1="234.5" y1="131.7" x2="234.5" y2="161"/>
<line class="st0" x1="246.5" y1="131.7" x2="246.5" y2="161"/>
<line class="st0" x1="258.5" y1="131.7" x2="258.5" y2="161"/>
<line class="st0" x1="270.5" y1="131.7" x2="270.5" y2="161"/>
<line class="st0" x1="282.5" y1="131.7" x2="282.5" y2="161"/>
<line class="st0" x1="294.5" y1="131.7" x2="294.5" y2="161"/>
<line class="st0" x1="306.5" y1="131.7" x2="306.5" y2="161"/>
<line class="st0" x1="318.5" y1="131.7" x2="318.5" y2="161"/>
<line class="st0" x1="330.5" y1="131.7" x2="330.5" y2="161"/>
<line class="st0" x1="342.5" y1="131.7" x2="342.5" y2="161"/>
<line class="st0" x1="354.5" y1="131.7" x2="354.5" y2="161"/>
<line class="st0" x1="439.5" y1="131.7" x2="439.5" y2="161"/>
<rect x="54.5" y="131.7" class="st1" width="12" height="29.3"/>
<rect x="66.5" y="131.7" class="st1" width="12" height="29.3"/>
<rect x="78.5" y="131.7" class="st1" width="12" height="29.3"/>
<rect x="90.5" y="131.7" class="st1" width="12" height="29.3"/>
<rect x="102.5" y="131.7" class="st1" width="12" height="29.3"/>
<rect x="114.5" y="131.7" class="st1" width="12" height="29.3"/>
<rect x="126.5" y="131.7" class="st1" width="12" height="29.3"/>
<rect x="138.5" y="131.7" class="st1" width="12" height="29.3"/>
<rect x="150.5" y="131.7" class="st1" width="12" height="29.3"/>
<rect x="162.5" y="131.7" class="st1" width="12" height="29.3"/>
<rect x="174.5" y="131.7" class="st1" width="12" height="29.3"/>
<rect x="186.5" y="131.7" class="st1" width="12" height="29.3"/>
<rect x="198.5" y="131.7" class="st1" width="12" height="29.3"/>
<rect x="210.5" y="131.7" class="st1" width="12" height="29.3"/>
<rect x="222.5" y="131.7" class="st1" width="12" height="29.3"/>
<rect x="234.5" y="131.7" class="st1" width="12" height="29.3"/>
<rect x="246.5" y="131.7" class="st1" width="12" height="29.3"/>
<rect x="258.5" y="131.7" class="st1" width="12" height="29.3"/>
<rect x="270.5" y="131.7" class="st1" width="12" height="29.3"/>
<rect x="282.5" y="131.7" class="st1" width="12" height="29.3"/>
<rect x="294.5" y="131.7" class="st1" width="12" height="29.3"/>
<rect x="306.5" y="131.7" class="st1" width="12" height="29.3"/>
<rect x="318.5" y="131.7" class="st1" width="12" height="29.3"/>
<rect x="330.5" y="131.7" class="st1" width="12" height="29.3"/>
<rect x="342.5" y="131.7" class="st1" width="12" height="29.3"/>
<rect x="354.5" y="131.7" class="st1" width="13" height="29.3"/>
<rect x="367.5" y="131.7" class="st1" width="12" height="29.3"/>
<rect x="379.5" y="131.7" class="st1" width="12" height="29.3"/>
<rect x="391.5" y="131.7" class="st1" width="12" height="29.3"/>
<rect x="403.5" y="131.7" class="st1" width="12" height="29.3"/>
<rect x="415.5" y="131.7" class="st1" width="12" height="29.3"/>
<rect x="427.5" y="131.7" class="st1" width="12" height="29.3"/>
<line class="st0" x1="54.5" y1="131.7" x2="439.5" y2="131.7"/>
<line class="st0" x1="54.5" y1="161" x2="439.5" y2="161"/>
<text transform="matrix(1 0 0 1 430.5 130.3095)" class="st2 st3 st4">0</text>
<text transform="matrix(1 0 0 1 248.3003 130.3095)" class="st2 st3 st4">15</text>
<text transform="matrix(1 0 0 1 236.3003 130.3095)" class="st2 st3 st4">16</text>
<text transform="matrix(1 0 0 1 56.3003 130.3095)" class="st2 st3 st4">31</text>
<text transform="matrix(1 0 0 1 430.5 90.3094)" class="st2 st3 st4">32</text>
<text transform="matrix(1 0 0 1 346.5005 90.3094)" class="st2 st3 st4">39</text>
<text transform="matrix(1 0 0 1 334.5005 90.3094)" class="st2 st3 st4">40</text>
<text transform="matrix(1 0 0 1 296.3003 90.3094)" class="st2 st3 st4">43</text>
<text transform="matrix(1 0 0 1 284.3003 90.3094)" class="st2 st3 st4">44</text>
<text transform="matrix(1 0 0 1 272.3003 90.3094)" class="st2 st3 st4">45</text>
<text transform="matrix(1 0 0 1 260.3003 90.3094)" class="st2 st3 st4">46</text>
<text transform="matrix(1 0 0 1 248.3003 90.3094)" class="st2 st3 st4">47</text>
<text transform="matrix(1 0 0 1 236.3003 90.3094)" class="st2 st3 st4">48</text>
<text transform="matrix(1 0 0 1 200.3003 90.3094)" class="st2 st3 st4">51</text>
<text transform="matrix(1 0 0 1 188.3003 90.3094)" class="st2 st3 st4">52</text>
<text transform="matrix(1 0 0 1 176.3003 90.3094)" class="st2 st3 st4">53</text>
<text transform="matrix(1 0 0 1 164.3003 90.3094)" class="st2 st3 st4">54</text>
<text transform="matrix(1 0 0 1 152.3003 90.3094)" class="st2 st3 st4">55</text>
<text transform="matrix(1 0 0 1 140.3003 90.3094)" class="st2 st3 st4">56</text>
<text transform="matrix(1 0 0 1 56.3003 90.3094)" class="st2 st3 st4">63</text>
<line class="st0" x1="367.5" y1="91.7" x2="367.5" y2="121"/>
<line class="st0" x1="379.5" y1="91.7" x2="379.5" y2="121"/>
<line class="st0" x1="391.5" y1="91.7" x2="391.5" y2="121"/>
<line class="st0" x1="403.5" y1="91.7" x2="403.5" y2="121"/>
<line class="st0" x1="415.5" y1="91.7" x2="415.5" y2="121"/>
<line class="st0" x1="427.5" y1="91.7" x2="427.5" y2="121"/>
<line class="st0" x1="54.5" y1="91.7" x2="54.5" y2="121"/>
<line class="st0" x1="66.5" y1="91.7" x2="66.5" y2="121"/>
<line class="st0" x1="78.5" y1="91.7" x2="78.5" y2="121"/>
<line class="st0" x1="90.5" y1="91.7" x2="90.5" y2="121"/>
<line class="st0" x1="102.5" y1="91.7" x2="102.5" y2="121"/>
<line class="st0" x1="114.5" y1="91.7" x2="114.5" y2="121"/>
<line class="st0" x1="126.5" y1="91.7" x2="126.5" y2="121"/>
<line class="st0" x1="138.5" y1="91.7" x2="138.5" y2="121"/>
<line class="st0" x1="150.5" y1="91.7" x2="150.5" y2="121"/>
<line class="st0" x1="162.5" y1="91.7" x2="162.5" y2="121"/>
<line class="st0" x1="174.5" y1="91.7" x2="174.5" y2="121"/>
<line class="st0" x1="186.5" y1="91.7" x2="186.5" y2="121"/>
<line class="st0" x1="198.5" y1="91.7" x2="198.5" y2="121"/>
<line class="st0" x1="210.5" y1="91.7" x2="210.5" y2="121"/>
<line class="st0" x1="222.5" y1="91.7" x2="222.5" y2="121"/>
<line class="st0" x1="234.5" y1="91.7" x2="234.5" y2="121"/>
<line class="st0" x1="246.5" y1="91.7" x2="246.5" y2="121"/>
<line class="st0" x1="258.5" y1="91.7" x2="258.5" y2="121"/>
<line class="st0" x1="270.5" y1="91.7" x2="270.5" y2="121"/>
<line class="st0" x1="282.5" y1="91.7" x2="282.5" y2="121"/>
<line class="st0" x1="294.5" y1="91.7" x2="294.5" y2="121"/>
<line class="st0" x1="306.5" y1="91.7" x2="306.5" y2="121"/>
<line class="st0" x1="318.5" y1="91.7" x2="318.5" y2="121"/>
<line class="st0" x1="330.5" y1="91.7" x2="330.5" y2="121"/>
<line class="st0" x1="342.5" y1="91.7" x2="342.5" y2="121"/>
<line class="st0" x1="354.5" y1="91.7" x2="354.5" y2="121"/>
<line class="st0" x1="439.5" y1="91.7" x2="439.5" y2="121"/>
<rect x="54.5" y="91.7" class="st1" width="12" height="29.3"/>
<rect x="66.5" y="91.7" class="st1" width="12" height="29.3"/>
<rect x="78.5" y="91.7" class="st1" width="12" height="29.3"/>
<rect x="90.5" y="91.7" class="st1" width="12" height="29.3"/>
<rect x="102.5" y="91.7" class="st1" width="12" height="29.3"/>
<rect x="114.5" y="91.7" class="st1" width="12" height="29.3"/>
<rect x="126.5" y="91.7" class="st1" width="12" height="29.3"/>
<rect x="138.5" y="91.7" class="st1" width="12" height="29.3"/>
<rect x="150.5" y="91.7" class="st1" width="12" height="29.3"/>
<rect x="162.5" y="91.7" class="st1" width="12" height="29.3"/>
<rect x="174.5" y="91.7" class="st5" width="12" height="29.3"/>
<rect x="186.5" y="91.7" class="st1" width="12" height="29.3"/>
<rect x="198.5" y="91.7" class="st1" width="12" height="29.3"/>
<rect x="210.5" y="91.7" class="st1" width="12" height="29.3"/>
<rect x="222.5" y="91.7" class="st1" width="12" height="29.3"/>
<rect x="234.5" y="91.7" class="st1" width="12" height="29.3"/>
<rect x="246.5" y="91.7" class="st1" width="12" height="29.3"/>
<rect x="258.5" y="91.7" class="st1" width="12" height="29.3"/>
<rect x="270.5" y="91.7" class="st1" width="12" height="29.3"/>
<rect x="282.5" y="91.7" class="st1" width="12" height="29.3"/>
<rect x="294.5" y="91.7" class="st1" width="12" height="29.3"/>
<rect x="306.5" y="91.7" class="st1" width="12" height="29.3"/>
<rect x="318.5" y="91.7" class="st1" width="12" height="29.3"/>
<rect x="330.5" y="91.7" class="st1" width="12" height="29.3"/>
<rect x="342.5" y="91.7" class="st1" width="12" height="29.3"/>
<rect x="354.5" y="91.7" class="st1" width="13" height="29.3"/>
<rect x="367.5" y="91.7" class="st1" width="12" height="29.3"/>
<rect x="379.5" y="91.7" class="st1" width="12" height="29.3"/>
<rect x="391.5" y="91.7" class="st1" width="12" height="29.3"/>
<rect x="403.5" y="91.7" class="st1" width="12" height="29.3"/>
<rect x="415.5" y="91.7" class="st1" width="12" height="29.3"/>
<rect x="427.5" y="91.7" class="st1" width="12" height="29.3"/>
<rect x="246.5" y="131.7" class="st1" width="193" height="29.3"/>
<rect x="54.5" y="131.7" class="st1" width="192" height="29.3"/>
<rect x="342.5" y="91.7" class="st1" width="97" height="29.3"/>
<rect x="294.5" y="91.7" class="st1" width="48" height="29.3"/>
<rect x="258.5" y="91.7" class="st1" width="24" height="29.3"/>
<rect x="198.5" y="91.7" class="st1" width="48" height="29.3"/>
<rect x="54.5" y="91.7" class="st1" width="96" height="29.3"/>
<line class="st0" x1="54.5" y1="91.7" x2="439.5" y2="91.7"/>
<line class="st0" x1="54.5" y1="121" x2="439.5" y2="121"/>
<text transform="matrix(1 0 0 1 190.1001 99.3093)"><tspan x="0" y="0" class="st2 st3 st6">A</tspan><tspan x="0" y="9.6" class="st2 st3 st6">V</tspan><tspan x="0" y="19.2" class="st2 st3 st6">L</tspan></text>
<text transform="matrix(1 0 0 1 166.1001 99.3093)"><tspan x="0" y="0" class="st2 st3 st6">D</tspan><tspan x="0" y="9.6" class="st2 st3 st6">/</tspan><tspan x="0" y="19.2" class="st2 st3 st6">B</tspan></text>
<text transform="matrix(1 0 0 1 205.6978 99.3093)"><tspan x="0" y="0" class="st2 st3 st6">Segment</tspan><tspan x="4.8" y="9.6" class="st2 st3 st6">Limit</tspan><tspan x="0" y="19.2" class="st2 st3 st6">[19:16]</tspan></text>
<text transform="matrix(1 0 0 1 250.1001 109.3093)" class="st2 st3 st6">P</text>
<text transform="matrix(1 0 0 1 263.2993 109.3093)" class="st2 st3 st6">DPL</text>
<text transform="matrix(1 0 0 1 286.1001 109.3093)" class="st2 st3 st6">S</text>
<text transform="matrix(1 0 0 1 308.8989 109.3093)" class="st2 st3 st6">Type</text>
<text transform="matrix(1 0 0 1 345.8931 109.3093)" class="st2 st3 st6">Base Address[23:16]</text>
<text transform="matrix(1 0 0 1 297.8931 149.3094)" class="st2 st3 st6">Segment Limit[15:0]</text>
<text transform="matrix(1 0 0 1 95.2939 149.3096)" class="st2 st3 st6">Base Address[15:0]</text>
<text transform="matrix(1 0 0 1 56.8931 109.3096)" class="st2 st3 st6">Base Address[31:24]</text>
<text transform="matrix(1 0 0 1 154.1001 109.3093)" class="st2 st3 st6">G</text>
</svg>
