<?xml version="1.0" encoding="utf-8"?>
<!-- Generator: Adobe Illustrator 19.1.0, SVG Export Plug-In . SVG Version: 6.00 Build 0)  -->
<svg version="1.1" id="Layer_1" xmlns="http://www.w3.org/2000/svg" xmlns:xlink="http://www.w3.org/1999/xlink" x="0px" y="0px"
	 viewBox="-71 139.3 647.5 552" style="enable-background:new -71 139.3 647.5 552;" xml:space="preserve">
<style type="text/css">
	.st0{fill:none;stroke:#231F20;stroke-width:0.25;stroke-miterlimit:10;}
	.st1{fill:#231F20;}
	.st2{font-family:'CourierNewPSMT';}
	.st3{font-size:12px;}
	.st4{fill:#E6E7E8;stroke:#231F20;stroke-width:0.25;stroke-miterlimit:10;}
	.st5{fill:#FFFFFF;stroke:#231F20;stroke-width:0.25;stroke-miterlimit:10;}
	.st6{fill:#231F20;stroke:#231F20;stroke-width:0.25;stroke-miterlimit:10;}
	.st7{fill:none;stroke:#BBBDBF;stroke-width:0.25;stroke-miterlimit:10;}
	.st8{fill:#F49BB0;stroke:#221F1F;stroke-width:0.25;stroke-miterlimit:10;}
	.st9{fill:none;stroke:#221F1F;stroke-width:0.25;stroke-miterlimit:10;}
</style>
<rect x="-32.2" y="184.4" class="st0" width="314" height="27"/>
<text transform="matrix(1 0 0 1 70.7842 170.9007)" class="st1 st2 st3">Virtual Address</text>
<rect x="406.2" y="183.9" class="st4" width="160.3" height="490.2"/>
<rect x="406.2" y="363.2" class="st5" width="160.3" height="173.7"/>
<polygon class="st6" points="406.1,536.9 399.4,534.3 399.4,539.5 "/>
<polygon class="st6" points="406.1,461.9 399.4,459.3 399.4,464.5 "/>
<rect x="406.2" y="447.4" class="st0" width="160.3" height="27"/>
<text transform="matrix(1 0 0 1 428.6846 463.9009)" class="st1 st2 st3">Physical Address</text>
<text transform="matrix(1 0 0 1 428.6846 153.9009)"><tspan x="0" y="0" class="st1 st2 st3">Physical Address</tspan><tspan x="39.6" y="14.4" class="st1 st2 st3">Space</tspan></text>
<rect x="5.2" y="616.4" class="st0" width="193.2" height="27"/>
<text transform="matrix(1 0 0 1 18.127 632.9011)" class="st1 st2 st3">Page Table Base Address</text>
<line class="st7" x1="27.8" y1="184.4" x2="27.8" y2="211.4"/>
<line class="st7" x1="87.8" y1="184.4" x2="87.8" y2="211.4"/>
<line class="st7" x1="147.8" y1="184.4" x2="147.8" y2="211.4"/>
<rect x="-52.2" y="299.6" class="st0" width="90.9" height="189.9"/>
<line class="st0" x1="-52.2" y1="390.1" x2="38.7" y2="390.1"/>
<line class="st0" x1="-52.2" y1="414.5" x2="38.7" y2="414.5"/>
<line class="st0" x1="263.2" y1="211.4" x2="263.2" y2="266.5"/>
<line class="st0" x1="263.2" y1="266.5" x2="367.7" y2="266.5"/>
<line class="st0" x1="367.7" y1="266.5" x2="367.7" y2="461.9"/>
<line class="st0" x1="367.7" y1="461.9" x2="406.1" y2="461.9"/>
<line class="st0" x1="336.9" y1="394.6" x2="352.6" y2="394.6"/>
<line class="st0" x1="352.6" y1="394.6" x2="352.6" y2="536.9"/>
<line class="st0" x1="352.6" y1="536.9" x2="406.2" y2="536.9"/>
<rect x="96.8" y="299.6" class="st0" width="90.9" height="189.9"/>
<line class="st0" x1="96.8" y1="410.1" x2="187.7" y2="410.1"/>
<line class="st0" x1="96.8" y1="434.5" x2="187.7" y2="434.5"/>
<rect x="245.8" y="299.6" class="st0" width="90.9" height="189.9"/>
<line class="st0" x1="245.8" y1="380.1" x2="336.7" y2="380.1"/>
<line class="st0" x1="245.8" y1="404.5" x2="336.7" y2="404.5"/>
<polygon class="st6" points="245.8,489.5 239.1,486.9 239.1,492.1 "/>
<line class="st0" x1="207.4" y1="489.6" x2="245.8" y2="489.6"/>
<line class="st0" x1="207.4" y1="489.6" x2="207.4" y2="422.6"/>
<line class="st0" x1="207.4" y1="422.6" x2="187.7" y2="422.6"/>
<polygon class="st6" points="96.8,489.5 90.1,486.9 90.1,492.1 "/>
<line class="st0" x1="58.4" y1="489.6" x2="96.8" y2="489.6"/>
<line class="st0" x1="58.4" y1="489.6" x2="58.4" y2="404.6"/>
<line class="st0" x1="58.4" y1="404.6" x2="38.7" y2="404.6"/>
<line class="st0" x1="57.2" y1="211.4" x2="57.2" y2="266.5"/>
<line class="st0" x1="57.2" y1="266.5" x2="77.6" y2="266.5"/>
<line class="st0" x1="77.6" y1="266.5" x2="77.6" y2="421.6"/>
<line class="st0" x1="77.6" y1="421.6" x2="96.8" y2="421.6"/>
<polygon class="st6" points="96.8,421.5 90.1,418.9 90.1,424.1 "/>
<line class="st0" x1="226.6" y1="266.5" x2="226.6" y2="392"/>
<line class="st0" x1="226.6" y1="392" x2="245.8" y2="392"/>
<polygon class="st6" points="245.8,392 239.1,389.9 239.1,394.1 "/>
<line class="st0" x1="117.2" y1="211.4" x2="117.2" y2="266.5"/>
<line class="st0" x1="117.2" y1="266.5" x2="226.6" y2="266.5"/>
<line class="st0" x1="-2.8" y1="211.4" x2="-2.8" y2="281.9"/>
<line class="st0" x1="78.8" y1="551.5" x2="59.6" y2="551.5"/>
<polygon class="st6" points="59.6,551.5 66.3,554.1 66.3,548.9 "/>
<polygon class="st6" points="-52.2,489.5 -58.9,486.9 -58.9,492.1 "/>
<line class="st0" x1="-64.2" y1="489.6" x2="-52.2" y2="489.6"/>
<line class="st0" x1="-64.2" y1="489.6" x2="-64.2" y2="551.6"/>
<rect x="-32.2" y="514.2" class="st0" width="90.9" height="78.3"/>
<line class="st0" x1="-32.2" y1="540.1" x2="58.7" y2="540.1"/>
<line class="st0" x1="-32.2" y1="564.5" x2="58.7" y2="564.5"/>
<line class="st0" x1="100.9" y1="592.6" x2="59.6" y2="592.6"/>
<polygon class="st6" points="59.6,592.6 66.3,590 66.3,595.2 "/>
<line class="st0" x1="-64.2" y1="551.6" x2="-33" y2="551.6"/>
<line class="st0" x1="78.8" y1="551.5" x2="78.8" y2="500.8"/>
<line class="st0" x1="48.6" y1="281.9" x2="48.6" y2="500.8"/>
<line class="st0" x1="48.6" y1="500.8" x2="78.8" y2="500.8"/>
<line class="st0" x1="48.6" y1="281.9" x2="-2.4" y2="281.9"/>
<g>
	<rect x="9.2" y="663.3" class="st8" width="23.7" height="12.9"/>
	<text transform="matrix(1 0 0 1 10.2919 672.9841)" class="st1 st2 st3">CR3</text>
	<line class="st0" x1="21.1" y1="676.2" x2="21.1" y2="677.5"/>
	<line class="st0" x1="17.7" y1="676.2" x2="17.7" y2="677.5"/>
	<line class="st0" x1="24.5" y1="676.2" x2="24.5" y2="677.5"/>
	<line class="st0" x1="27.9" y1="676.2" x2="27.9" y2="677.5"/>
	<line class="st0" x1="14.3" y1="676.2" x2="14.3" y2="677.5"/>
	<line class="st0" x1="21.1" y1="661.9" x2="21.1" y2="663.3"/>
	<line class="st0" x1="17.7" y1="661.9" x2="17.7" y2="663.3"/>
	<line class="st0" x1="24.5" y1="661.9" x2="24.5" y2="663.3"/>
	<line class="st0" x1="27.9" y1="661.9" x2="27.9" y2="663.3"/>
	<line class="st0" x1="14.3" y1="661.9" x2="14.3" y2="663.3"/>
</g>
<line class="st0" x1="-43.3" y1="629.4" x2="-43.3" y2="669.7"/>
<line class="st0" x1="-43.3" y1="669.7" x2="9.2" y2="669.7"/>
<polygon class="st6" points="5.2,629.9 -1.5,627.3 -1.5,632.5 "/>
<line class="st0" x1="-43.3" y1="629.4" x2="5.2" y2="629.4"/>
<line class="st9" x1="100.9" y1="616.4" x2="100.9" y2="592.6"/>
</svg>
