<?xml version="1.0" encoding="utf-8"?>
<!-- Generator: Adobe Illustrator 19.1.0, SVG Export Plug-In . SVG Version: 6.00 Build 0)  -->
<svg version="1.1" id="Layer_1" xmlns="http://www.w3.org/2000/svg" xmlns:xlink="http://www.w3.org/1999/xlink" x="0px" y="0px"
	 viewBox="-71 142 647.5 330" style="enable-background:new -71 142 647.5 330;" xml:space="preserve">
<style type="text/css">
	.st0{fill:#E6E6E6;stroke:#221F1F;stroke-width:0.25;stroke-miterlimit:10;}
	.st1{fill:#FFFFFF;stroke:#221F1F;stroke-width:0.25;stroke-miterlimit:10;}
	.st2{fill:#F1F1F1;stroke:#221F1F;stroke-width:0.25;stroke-miterlimit:10;}
	.st3{fill:#221F1F;}
	.st4{font-family:'CourierNewPSMT';}
	.st5{font-size:12px;}
	.st6{fill:none;stroke:#221F1F;stroke-width:0.25;stroke-miterlimit:10;}
	.st7{fill:#221F1F;stroke:#221F1F;stroke-width:0.25;stroke-miterlimit:10;}
	.st8{fill:#B1DCC7;stroke:#000000;stroke-width:0.25;stroke-miterlimit:10;}
	.st9{fill:none;stroke:#BABCBE;stroke-width:0.25;stroke-miterlimit:10;}
	.st10{fill:#FDF9D5;stroke:#221F1F;stroke-width:0.25;stroke-miterlimit:10;}
	.st11{fill:#B1DCC7;}
</style>
<rect x="409.5" y="219.6" class="st0" width="160.3" height="179.3"/>
<rect x="409.5" y="247.9" class="st1" width="160.3" height="102.3"/>
<rect x="-56.9" y="162.1" class="st2" width="128.6" height="27"/>
<text transform="matrix(1 0 0 1 -49.3906 178.6022)" class="st3 st4 st5">Interrupt Vector</text>
<circle class="st6" cx="89.6" cy="217.9" r="13.7"/>
<rect x="88.8" y="213.7" class="st7" width="1.5" height="8.4"/>
<rect x="88.9" y="213.6" transform="matrix(0.5003 -0.8658 0.8658 0.5003 -143.8017 186.4224)" class="st7" width="1.5" height="8.4"/>
<polygon class="st7" points="78.2,208.8 77.8,204.8 74.2,208.5 "/>
<line class="st6" x1="64.5" y1="195.1" x2="77.9" y2="208.5"/>
<text transform="matrix(1 0 0 1 11.0524 243.9054)" class="st3 st4 st5">8</text>
<polygon class="st7" points="93.3,215.2 94,216.6 86.4,220.7 85.6,219.4 "/>
<polygon class="st7" points="78.1,226.8 74,227.1 77.7,230.8 "/>
<line class="st6" x1="64.4" y1="240.4" x2="77.8" y2="227.1"/>
<line class="st6" x1="64.4" y1="240.4" x2="23.3" y2="240.4"/>
<rect x="-55.9" y="385.7" class="st8" width="138.2" height="27"/>
<text transform="matrix(1 0 0 1 -45.6689 402.2031)" class="st3 st4 st5">IDT Base Address</text>
<ellipse class="st6" cx="139.1" cy="287.6" rx="13.2" ry="13.7"/>
<rect x="138.4" y="283.4" class="st7" width="1.5" height="8.4"/>
<rect x="135.1" y="286.8" class="st7" width="8.1" height="1.5"/>
<polygon class="st7" points="139.1,273.8 141.7,267.3 136.5,267.3 "/>
<line class="st6" x1="99.9" y1="399.2" x2="99.9" y2="288.5"/>
<line class="st6" x1="180.7" y1="399.2" x2="83.8" y2="399.2"/>
<rect x="179.5" y="219.6" class="st6" width="160.3" height="179.3"/>
<polygon class="st7" points="178.2,399.2 171.8,396.6 171.8,401.8 "/>
<line class="st6" x1="409.1" y1="350.3" x2="356.1" y2="350.3"/>
<line class="st6" x1="356.1" y1="350.3" x2="356.1" y2="276.8"/>
<line class="st6" x1="392.6" y1="303.8" x2="339.8" y2="303.8"/>
<polygon class="st7" points="409.5,350.3 403.1,347.7 403.1,352.9 "/>
<line class="st6" x1="408.8" y1="333.8" x2="392.4" y2="333.8"/>
<polygon class="st7" points="409.3,333.8 402.8,331.2 402.8,336.4 "/>
<line class="st6" x1="339.8" y1="276.8" x2="356.1" y2="276.8"/>
<line class="st6" x1="392.6" y1="303.8" x2="392.6" y2="333.8"/>
<rect x="409.5" y="247.9" class="st6" width="160.3" height="102.3"/>
<rect x="409.5" y="306.8" class="st6" width="160.3" height="27"/>
<polygon class="st7" points="179.8,317.3 173.3,314.7 173.3,319.9 "/>
<line class="st6" x1="179.5" y1="263.3" x2="339.8" y2="263.3"/>
<line class="st6" x1="179.5" y1="317.3" x2="339.8" y2="317.3"/>
<line class="st9" x1="179.5" y1="290.3" x2="339.8" y2="290.3"/>
<text transform="matrix(1 0 0 1 426.8185 322.1248)" class="st3 st4 st5">Interrupt Handler</text>
<text transform="matrix(1 0 0 1 186.0167 189.1248)" class="st3 st4 st5">Interrupt-Desctiptor</text>
<text transform="matrix(1 0 0 1 240.0167 203.5248)" class="st3 st4 st5">Table</text>
<text transform="matrix(1 0 0 1 434.0197 189.1248)" class="st3 st4 st5">Virtual Address</text>
<text transform="matrix(1 0 0 1 470.0197 203.5248)" class="st3 st4 st5">Space</text>
<polygon class="st7" points="124.7,288.5 118.3,285.9 118.3,291.1 "/>
<line class="st6" x1="99.9" y1="288.5" x2="123.9" y2="288.5"/>
<line class="st6" x1="139.1" y1="217.9" x2="139.1" y2="273.9"/>
<line class="st6" x1="139.1" y1="301.3" x2="139.1" y2="317.3"/>
<line class="st6" x1="139.1" y1="317.3" x2="179.5" y2="317.3"/>
<line class="st6" x1="16.1" y1="412.7" x2="16.1" y2="453.8"/>
<line class="st6" x1="139.1" y1="217.9" x2="103.3" y2="217.9"/>
<line class="st6" x1="-35.8" y1="453.8" x2="16.1" y2="453.8"/>
<polygon class="st7" points="16.1,413.5 13.5,420 18.7,420 "/>
<g>
	<rect x="-48.2" y="447.3" class="st10" width="42.5" height="12.9"/>
	<line class="st6" x1="-26.9" y1="446" x2="-26.9" y2="447.3"/>
	<line class="st6" x1="-23.9" y1="446" x2="-23.9" y2="447.3"/>
	<line class="st6" x1="-20.9" y1="446" x2="-20.9" y2="447.3"/>
	<line class="st6" x1="-17.9" y1="446" x2="-17.9" y2="447.3"/>
	<line class="st6" x1="-14.9" y1="446" x2="-14.9" y2="447.3"/>
	<line class="st6" x1="-11.9" y1="446" x2="-11.9" y2="447.3"/>
	<line class="st6" x1="-41.9" y1="446" x2="-41.9" y2="447.3"/>
	<line class="st6" x1="-38.9" y1="446" x2="-38.9" y2="447.3"/>
	<line class="st6" x1="-35.9" y1="446" x2="-35.9" y2="447.3"/>
	<line class="st6" x1="-32.9" y1="446" x2="-32.9" y2="447.3"/>
	<line class="st6" x1="-29.9" y1="446" x2="-29.9" y2="447.3"/>
	<line class="st6" x1="-26.9" y1="460.2" x2="-26.9" y2="461.6"/>
	<line class="st6" x1="-23.9" y1="460.2" x2="-23.9" y2="461.6"/>
	<line class="st6" x1="-20.9" y1="460.2" x2="-20.9" y2="461.6"/>
	<line class="st6" x1="-17.9" y1="460.2" x2="-17.9" y2="461.6"/>
	<line class="st6" x1="-14.9" y1="460.2" x2="-14.9" y2="461.6"/>
	<line class="st6" x1="-11.9" y1="460.2" x2="-11.9" y2="461.6"/>
	<line class="st6" x1="-41.9" y1="460.2" x2="-41.9" y2="461.6"/>
	<line class="st6" x1="-38.9" y1="460.2" x2="-38.9" y2="461.6"/>
	<line class="st6" x1="-35.9" y1="460.2" x2="-35.9" y2="461.6"/>
	<line class="st6" x1="-32.9" y1="460.2" x2="-32.9" y2="461.6"/>
	<line class="st6" x1="-29.9" y1="460.2" x2="-29.9" y2="461.6"/>
	<line class="st6" x1="-44.9" y1="446" x2="-44.9" y2="447.3"/>
	<line class="st6" x1="-8.9" y1="446" x2="-8.9" y2="447.3"/>
	<line class="st6" x1="-8.9" y1="460.2" x2="-8.9" y2="461.6"/>
	<line class="st6" x1="-44.9" y1="460.2" x2="-44.9" y2="461.6"/>
	<rect x="-48.2" y="447.3" class="st11" width="27.4" height="12.9"/>
	<text transform="matrix(1 0 0 1 -41.2852 457.1013)" class="st3 st4 st5">IDTR</text>
</g>
<line class="st6" x1="7.5" y1="195.1" x2="7.4" y2="189.1"/>
<line class="st6" x1="7.5" y1="195.1" x2="64.5" y2="195.1"/>
</svg>
