<?xml version="1.0" encoding="utf-8"?>
<!-- Generator: Adobe Illustrator 19.1.0, SVG Export Plug-In . SVG Version: 6.00 Build 0)  -->
<svg version="1.1" id="Layer_1" xmlns="http://www.w3.org/2000/svg" xmlns:xlink="http://www.w3.org/1999/xlink" x="0px" y="0px"
	 viewBox="-71 139.3 647.5 335.7" style="enable-background:new -71 139.3 647.5 335.7;" xml:space="preserve">
<style type="text/css">
	.st0{fill:#FFFBD4;stroke:#231F20;stroke-width:0.25;stroke-miterlimit:10;}
	.st1{fill:#231F20;}
	.st2{font-family:'CourierNewPSMT';}
	.st3{font-size:12px;}
	.st4{fill:none;stroke:#231F20;stroke-width:0.25;stroke-miterlimit:10;}
	.st5{fill:#B2DDC7;}
	.st6{fill:#B2DDC7;stroke:#231F20;stroke-width:0.25;stroke-miterlimit:10;}
	.st7{fill:#F8FAFA;stroke:#231F20;stroke-width:0.25;stroke-miterlimit:10;}
</style>
<g>
	<rect x="260.8" y="280.5" class="st0" width="23.7" height="12.9"/>
	<text transform="matrix(1 0 0 1 265.4518 290.1982)" class="st1 st2 st3">CS</text>
	<line class="st4" x1="272.7" y1="293.4" x2="272.7" y2="294.7"/>
	<line class="st4" x1="269.3" y1="293.4" x2="269.3" y2="294.7"/>
	<line class="st4" x1="276" y1="293.4" x2="276" y2="294.7"/>
	<line class="st4" x1="279.4" y1="293.4" x2="279.4" y2="294.7"/>
	<line class="st4" x1="265.9" y1="293.4" x2="265.9" y2="294.7"/>
	<line class="st4" x1="272.7" y1="279.2" x2="272.7" y2="280.5"/>
	<line class="st4" x1="269.3" y1="279.2" x2="269.3" y2="280.5"/>
	<line class="st4" x1="276" y1="279.2" x2="276" y2="280.5"/>
	<line class="st4" x1="279.4" y1="279.2" x2="279.4" y2="280.5"/>
	<line class="st4" x1="265.9" y1="279.2" x2="265.9" y2="280.5"/>
</g>
<g>
	<rect x="290.8" y="280.5" class="st0" width="23.7" height="12.9"/>
	<text transform="matrix(1 0 0 1 295.4518 290.1982)" class="st1 st2 st3">DS</text>
	<line class="st4" x1="302.7" y1="293.4" x2="302.7" y2="294.7"/>
	<line class="st4" x1="299.3" y1="293.4" x2="299.3" y2="294.7"/>
	<line class="st4" x1="306" y1="293.4" x2="306" y2="294.7"/>
	<line class="st4" x1="309.4" y1="293.4" x2="309.4" y2="294.7"/>
	<line class="st4" x1="295.9" y1="293.4" x2="295.9" y2="294.7"/>
	<line class="st4" x1="302.7" y1="279.2" x2="302.7" y2="280.5"/>
	<line class="st4" x1="299.3" y1="279.2" x2="299.3" y2="280.5"/>
	<line class="st4" x1="306" y1="279.2" x2="306" y2="280.5"/>
	<line class="st4" x1="309.4" y1="279.2" x2="309.4" y2="280.5"/>
	<line class="st4" x1="295.9" y1="279.2" x2="295.9" y2="280.5"/>
</g>
<g>
	<rect x="410.8" y="280.5" class="st0" width="23.7" height="12.9"/>
	<text transform="matrix(1 0 0 1 415.4518 290.1982)" class="st1 st2 st3">SS</text>
	<line class="st4" x1="422.7" y1="293.4" x2="422.7" y2="294.7"/>
	<line class="st4" x1="419.3" y1="293.4" x2="419.3" y2="294.7"/>
	<line class="st4" x1="426" y1="293.4" x2="426" y2="294.7"/>
	<line class="st4" x1="429.4" y1="293.4" x2="429.4" y2="294.7"/>
	<line class="st4" x1="415.9" y1="293.4" x2="415.9" y2="294.7"/>
	<line class="st4" x1="422.7" y1="279.2" x2="422.7" y2="280.5"/>
	<line class="st4" x1="419.3" y1="279.2" x2="419.3" y2="280.5"/>
	<line class="st4" x1="426" y1="279.2" x2="426" y2="280.5"/>
	<line class="st4" x1="429.4" y1="279.2" x2="429.4" y2="280.5"/>
	<line class="st4" x1="415.9" y1="279.2" x2="415.9" y2="280.5"/>
</g>
<g>
	<rect x="320.8" y="280.5" class="st0" width="23.7" height="12.9"/>
	<text transform="matrix(1 0 0 1 325.4518 290.1982)" class="st1 st2 st3">ES</text>
	<line class="st4" x1="332.7" y1="293.4" x2="332.7" y2="294.7"/>
	<line class="st4" x1="329.3" y1="293.4" x2="329.3" y2="294.7"/>
	<line class="st4" x1="336" y1="293.4" x2="336" y2="294.7"/>
	<line class="st4" x1="339.4" y1="293.4" x2="339.4" y2="294.7"/>
	<line class="st4" x1="325.9" y1="293.4" x2="325.9" y2="294.7"/>
	<line class="st4" x1="332.7" y1="279.2" x2="332.7" y2="280.5"/>
	<line class="st4" x1="329.3" y1="279.2" x2="329.3" y2="280.5"/>
	<line class="st4" x1="336" y1="279.2" x2="336" y2="280.5"/>
	<line class="st4" x1="339.4" y1="279.2" x2="339.4" y2="280.5"/>
	<line class="st4" x1="325.9" y1="279.2" x2="325.9" y2="280.5"/>
</g>
<g>
	<rect x="350.8" y="280.5" class="st0" width="23.7" height="12.9"/>
	<text transform="matrix(1 0 0 1 355.4518 290.1982)" class="st1 st2 st3">FS</text>
	<line class="st4" x1="362.7" y1="293.4" x2="362.7" y2="294.7"/>
	<line class="st4" x1="359.3" y1="293.4" x2="359.3" y2="294.7"/>
	<line class="st4" x1="366" y1="293.4" x2="366" y2="294.7"/>
	<line class="st4" x1="369.4" y1="293.4" x2="369.4" y2="294.7"/>
	<line class="st4" x1="355.9" y1="293.4" x2="355.9" y2="294.7"/>
	<line class="st4" x1="362.7" y1="279.2" x2="362.7" y2="280.5"/>
	<line class="st4" x1="359.3" y1="279.2" x2="359.3" y2="280.5"/>
	<line class="st4" x1="366" y1="279.2" x2="366" y2="280.5"/>
	<line class="st4" x1="369.4" y1="279.2" x2="369.4" y2="280.5"/>
	<line class="st4" x1="355.9" y1="279.2" x2="355.9" y2="280.5"/>
</g>
<g>
	<rect x="380.8" y="280.5" class="st0" width="23.7" height="12.9"/>
	<text transform="matrix(1 0 0 1 385.4518 290.1982)" class="st1 st2 st3">GS</text>
	<line class="st4" x1="392.7" y1="293.4" x2="392.7" y2="294.7"/>
	<line class="st4" x1="389.3" y1="293.4" x2="389.3" y2="294.7"/>
	<line class="st4" x1="396" y1="293.4" x2="396" y2="294.7"/>
	<line class="st4" x1="399.4" y1="293.4" x2="399.4" y2="294.7"/>
	<line class="st4" x1="385.9" y1="293.4" x2="385.9" y2="294.7"/>
	<line class="st4" x1="392.7" y1="279.2" x2="392.7" y2="280.5"/>
	<line class="st4" x1="389.3" y1="279.2" x2="389.3" y2="280.5"/>
	<line class="st4" x1="396" y1="279.2" x2="396" y2="280.5"/>
	<line class="st4" x1="399.4" y1="279.2" x2="399.4" y2="280.5"/>
	<line class="st4" x1="385.9" y1="279.2" x2="385.9" y2="280.5"/>
</g>
<g>
	<rect x="310.4" y="300.5" class="st0" width="42.5" height="12.9"/>
	<text transform="matrix(1 0 0 1 313.8043 310.238)" class="st1 st2 st3">FLAGS</text>
	<line class="st4" x1="331.8" y1="299.1" x2="331.8" y2="300.5"/>
	<line class="st4" x1="334.8" y1="299.1" x2="334.8" y2="300.5"/>
	<line class="st4" x1="337.8" y1="299.1" x2="337.8" y2="300.5"/>
	<line class="st4" x1="340.8" y1="299.1" x2="340.8" y2="300.5"/>
	<line class="st4" x1="343.8" y1="299.1" x2="343.8" y2="300.5"/>
	<line class="st4" x1="346.8" y1="299.1" x2="346.8" y2="300.5"/>
	<line class="st4" x1="316.8" y1="299.1" x2="316.8" y2="300.5"/>
	<line class="st4" x1="319.8" y1="299.1" x2="319.8" y2="300.5"/>
	<line class="st4" x1="322.8" y1="299.1" x2="322.8" y2="300.5"/>
	<line class="st4" x1="325.8" y1="299.1" x2="325.8" y2="300.5"/>
	<line class="st4" x1="328.8" y1="299.1" x2="328.8" y2="300.5"/>
	<line class="st4" x1="331.8" y1="313.4" x2="331.8" y2="314.7"/>
	<line class="st4" x1="334.8" y1="313.4" x2="334.8" y2="314.7"/>
	<line class="st4" x1="337.8" y1="313.4" x2="337.8" y2="314.7"/>
	<line class="st4" x1="340.8" y1="313.4" x2="340.8" y2="314.7"/>
	<line class="st4" x1="343.8" y1="313.4" x2="343.8" y2="314.7"/>
	<line class="st4" x1="346.8" y1="313.4" x2="346.8" y2="314.7"/>
	<line class="st4" x1="316.8" y1="313.4" x2="316.8" y2="314.7"/>
	<line class="st4" x1="319.8" y1="313.4" x2="319.8" y2="314.7"/>
	<line class="st4" x1="322.8" y1="313.4" x2="322.8" y2="314.7"/>
	<line class="st4" x1="325.8" y1="313.4" x2="325.8" y2="314.7"/>
	<line class="st4" x1="328.8" y1="313.4" x2="328.8" y2="314.7"/>
	<line class="st4" x1="313.8" y1="299.1" x2="313.8" y2="300.5"/>
	<line class="st4" x1="349.8" y1="299.1" x2="349.8" y2="300.5"/>
	<line class="st4" x1="349.8" y1="313.4" x2="349.8" y2="314.7"/>
	<line class="st4" x1="313.8" y1="313.4" x2="313.8" y2="314.7"/>
</g>
<g>
	<rect x="260.4" y="360.5" class="st0" width="42.5" height="12.9"/>
	<line class="st4" x1="281.8" y1="359.1" x2="281.8" y2="360.5"/>
	<line class="st4" x1="284.8" y1="359.1" x2="284.8" y2="360.5"/>
	<line class="st4" x1="287.8" y1="359.1" x2="287.8" y2="360.5"/>
	<line class="st4" x1="290.8" y1="359.1" x2="290.8" y2="360.5"/>
	<line class="st4" x1="293.8" y1="359.1" x2="293.8" y2="360.5"/>
	<line class="st4" x1="296.8" y1="359.1" x2="296.8" y2="360.5"/>
	<line class="st4" x1="266.8" y1="359.1" x2="266.8" y2="360.5"/>
	<line class="st4" x1="269.8" y1="359.1" x2="269.8" y2="360.5"/>
	<line class="st4" x1="272.8" y1="359.1" x2="272.8" y2="360.5"/>
	<line class="st4" x1="275.8" y1="359.1" x2="275.8" y2="360.5"/>
	<line class="st4" x1="278.8" y1="359.1" x2="278.8" y2="360.5"/>
	<line class="st4" x1="281.8" y1="373.4" x2="281.8" y2="374.7"/>
	<line class="st4" x1="284.8" y1="373.4" x2="284.8" y2="374.7"/>
	<line class="st4" x1="287.8" y1="373.4" x2="287.8" y2="374.7"/>
	<line class="st4" x1="290.8" y1="373.4" x2="290.8" y2="374.7"/>
	<line class="st4" x1="293.8" y1="373.4" x2="293.8" y2="374.7"/>
	<line class="st4" x1="296.8" y1="373.4" x2="296.8" y2="374.7"/>
	<line class="st4" x1="266.8" y1="373.4" x2="266.8" y2="374.7"/>
	<line class="st4" x1="269.8" y1="373.4" x2="269.8" y2="374.7"/>
	<line class="st4" x1="272.8" y1="373.4" x2="272.8" y2="374.7"/>
	<line class="st4" x1="275.8" y1="373.4" x2="275.8" y2="374.7"/>
	<line class="st4" x1="278.8" y1="373.4" x2="278.8" y2="374.7"/>
	<line class="st4" x1="263.8" y1="359.1" x2="263.8" y2="360.5"/>
	<line class="st4" x1="299.8" y1="359.1" x2="299.8" y2="360.5"/>
	<line class="st4" x1="299.8" y1="373.4" x2="299.8" y2="374.7"/>
	<line class="st4" x1="263.8" y1="373.4" x2="263.8" y2="374.7"/>
	<rect x="260.4" y="360.5" class="st5" width="27.4" height="12.9"/>
	<text transform="matrix(1 0 0 1 267.4049 370.238)" class="st1 st2 st3">GDTR</text>
</g>
<g>
	<rect x="360.4" y="360.5" class="st0" width="42.5" height="12.9"/>
	<line class="st4" x1="381.8" y1="359.1" x2="381.8" y2="360.5"/>
	<line class="st4" x1="384.8" y1="359.1" x2="384.8" y2="360.5"/>
	<line class="st4" x1="387.8" y1="359.1" x2="387.8" y2="360.5"/>
	<line class="st4" x1="390.8" y1="359.1" x2="390.8" y2="360.5"/>
	<line class="st4" x1="393.8" y1="359.1" x2="393.8" y2="360.5"/>
	<line class="st4" x1="396.8" y1="359.1" x2="396.8" y2="360.5"/>
	<line class="st4" x1="366.8" y1="359.1" x2="366.8" y2="360.5"/>
	<line class="st4" x1="369.8" y1="359.1" x2="369.8" y2="360.5"/>
	<line class="st4" x1="372.8" y1="359.1" x2="372.8" y2="360.5"/>
	<line class="st4" x1="375.8" y1="359.1" x2="375.8" y2="360.5"/>
	<line class="st4" x1="378.8" y1="359.1" x2="378.8" y2="360.5"/>
	<line class="st4" x1="381.8" y1="373.4" x2="381.8" y2="374.7"/>
	<line class="st4" x1="384.8" y1="373.4" x2="384.8" y2="374.7"/>
	<line class="st4" x1="387.8" y1="373.4" x2="387.8" y2="374.7"/>
	<line class="st4" x1="390.8" y1="373.4" x2="390.8" y2="374.7"/>
	<line class="st4" x1="393.8" y1="373.4" x2="393.8" y2="374.7"/>
	<line class="st4" x1="396.8" y1="373.4" x2="396.8" y2="374.7"/>
	<line class="st4" x1="366.8" y1="373.4" x2="366.8" y2="374.7"/>
	<line class="st4" x1="369.8" y1="373.4" x2="369.8" y2="374.7"/>
	<line class="st4" x1="372.8" y1="373.4" x2="372.8" y2="374.7"/>
	<line class="st4" x1="375.8" y1="373.4" x2="375.8" y2="374.7"/>
	<line class="st4" x1="378.8" y1="373.4" x2="378.8" y2="374.7"/>
	<line class="st4" x1="363.8" y1="359.1" x2="363.8" y2="360.5"/>
	<line class="st4" x1="399.8" y1="359.1" x2="399.8" y2="360.5"/>
	<line class="st4" x1="399.8" y1="373.4" x2="399.8" y2="374.7"/>
	<line class="st4" x1="363.8" y1="373.4" x2="363.8" y2="374.7"/>
	<text transform="matrix(1 0 0 1 367.4049 370.238)" class="st1 st2 st3">LDTR</text>
</g>
<g>
	<rect x="310.4" y="360.5" class="st0" width="42.5" height="12.9"/>
	<line class="st4" x1="331.8" y1="359.1" x2="331.8" y2="360.5"/>
	<line class="st4" x1="334.8" y1="359.1" x2="334.8" y2="360.5"/>
	<line class="st4" x1="337.8" y1="359.1" x2="337.8" y2="360.5"/>
	<line class="st4" x1="340.8" y1="359.1" x2="340.8" y2="360.5"/>
	<line class="st4" x1="343.8" y1="359.1" x2="343.8" y2="360.5"/>
	<line class="st4" x1="346.8" y1="359.1" x2="346.8" y2="360.5"/>
	<line class="st4" x1="316.8" y1="359.1" x2="316.8" y2="360.5"/>
	<line class="st4" x1="319.8" y1="359.1" x2="319.8" y2="360.5"/>
	<line class="st4" x1="322.8" y1="359.1" x2="322.8" y2="360.5"/>
	<line class="st4" x1="325.8" y1="359.1" x2="325.8" y2="360.5"/>
	<line class="st4" x1="328.8" y1="359.1" x2="328.8" y2="360.5"/>
	<line class="st4" x1="331.8" y1="373.4" x2="331.8" y2="374.7"/>
	<line class="st4" x1="334.8" y1="373.4" x2="334.8" y2="374.7"/>
	<line class="st4" x1="337.8" y1="373.4" x2="337.8" y2="374.7"/>
	<line class="st4" x1="340.8" y1="373.4" x2="340.8" y2="374.7"/>
	<line class="st4" x1="343.8" y1="373.4" x2="343.8" y2="374.7"/>
	<line class="st4" x1="346.8" y1="373.4" x2="346.8" y2="374.7"/>
	<line class="st4" x1="316.8" y1="373.4" x2="316.8" y2="374.7"/>
	<line class="st4" x1="319.8" y1="373.4" x2="319.8" y2="374.7"/>
	<line class="st4" x1="322.8" y1="373.4" x2="322.8" y2="374.7"/>
	<line class="st4" x1="325.8" y1="373.4" x2="325.8" y2="374.7"/>
	<line class="st4" x1="328.8" y1="373.4" x2="328.8" y2="374.7"/>
	<line class="st4" x1="313.8" y1="359.1" x2="313.8" y2="360.5"/>
	<line class="st4" x1="349.8" y1="359.1" x2="349.8" y2="360.5"/>
	<line class="st4" x1="349.8" y1="373.4" x2="349.8" y2="374.7"/>
	<line class="st4" x1="313.8" y1="373.4" x2="313.8" y2="374.7"/>
	<rect x="310.4" y="360.5" class="st5" width="27.4" height="12.9"/>
	<text transform="matrix(1 0 0 1 317.4049 370.238)" class="st1 st2 st3">IDTR</text>
</g>
<g>
	<rect x="260.4" y="300.5" class="st6" width="42.5" height="12.9"/>
	<text transform="matrix(1 0 0 1 260.2037 310.238)" class="st1 st2 st3">EFLAGS</text>
	<line class="st4" x1="281.8" y1="299.1" x2="281.8" y2="300.5"/>
	<line class="st4" x1="284.8" y1="299.1" x2="284.8" y2="300.5"/>
	<line class="st4" x1="287.8" y1="299.1" x2="287.8" y2="300.5"/>
	<line class="st4" x1="290.8" y1="299.1" x2="290.8" y2="300.5"/>
	<line class="st4" x1="293.8" y1="299.1" x2="293.8" y2="300.5"/>
	<line class="st4" x1="296.8" y1="299.1" x2="296.8" y2="300.5"/>
	<line class="st4" x1="266.8" y1="299.1" x2="266.8" y2="300.5"/>
	<line class="st4" x1="269.8" y1="299.1" x2="269.8" y2="300.5"/>
	<line class="st4" x1="272.8" y1="299.1" x2="272.8" y2="300.5"/>
	<line class="st4" x1="275.8" y1="299.1" x2="275.8" y2="300.5"/>
	<line class="st4" x1="278.8" y1="299.1" x2="278.8" y2="300.5"/>
	<line class="st4" x1="281.8" y1="313.4" x2="281.8" y2="314.7"/>
	<line class="st4" x1="284.8" y1="313.4" x2="284.8" y2="314.7"/>
	<line class="st4" x1="287.8" y1="313.4" x2="287.8" y2="314.7"/>
	<line class="st4" x1="290.8" y1="313.4" x2="290.8" y2="314.7"/>
	<line class="st4" x1="293.8" y1="313.4" x2="293.8" y2="314.7"/>
	<line class="st4" x1="296.8" y1="313.4" x2="296.8" y2="314.7"/>
	<line class="st4" x1="266.8" y1="313.4" x2="266.8" y2="314.7"/>
	<line class="st4" x1="269.8" y1="313.4" x2="269.8" y2="314.7"/>
	<line class="st4" x1="272.8" y1="313.4" x2="272.8" y2="314.7"/>
	<line class="st4" x1="275.8" y1="313.4" x2="275.8" y2="314.7"/>
	<line class="st4" x1="278.8" y1="313.4" x2="278.8" y2="314.7"/>
	<line class="st4" x1="263.8" y1="299.1" x2="263.8" y2="300.5"/>
	<line class="st4" x1="299.8" y1="299.1" x2="299.8" y2="300.5"/>
	<line class="st4" x1="299.8" y1="313.4" x2="299.8" y2="314.7"/>
	<line class="st4" x1="263.8" y1="313.4" x2="263.8" y2="314.7"/>
</g>
<g>
	<rect x="290.8" y="320" class="st0" width="23.7" height="12.9"/>
	<text transform="matrix(1 0 0 1 295.4508 329.6941)" class="st1 st2 st3">IP</text>
	<line class="st4" x1="302.7" y1="332.9" x2="302.7" y2="334.2"/>
	<line class="st4" x1="299.3" y1="332.9" x2="299.3" y2="334.2"/>
	<line class="st4" x1="306" y1="332.9" x2="306" y2="334.2"/>
	<line class="st4" x1="309.4" y1="332.9" x2="309.4" y2="334.2"/>
	<line class="st4" x1="295.9" y1="332.9" x2="295.9" y2="334.2"/>
	<line class="st4" x1="302.7" y1="318.7" x2="302.7" y2="320"/>
	<line class="st4" x1="299.3" y1="318.7" x2="299.3" y2="320"/>
	<line class="st4" x1="306" y1="318.7" x2="306" y2="320"/>
	<line class="st4" x1="309.4" y1="318.7" x2="309.4" y2="320"/>
	<line class="st4" x1="295.9" y1="318.7" x2="295.9" y2="320"/>
</g>
<g>
	<rect x="260.8" y="320" class="st6" width="23.7" height="12.9"/>
	<text transform="matrix(1 0 0 1 261.8502 329.6941)" class="st1 st2 st3">EIP</text>
	<line class="st4" x1="272.7" y1="332.9" x2="272.7" y2="334.2"/>
	<line class="st4" x1="269.3" y1="332.9" x2="269.3" y2="334.2"/>
	<line class="st4" x1="276" y1="332.9" x2="276" y2="334.2"/>
	<line class="st4" x1="279.4" y1="332.9" x2="279.4" y2="334.2"/>
	<line class="st4" x1="265.9" y1="332.9" x2="265.9" y2="334.2"/>
	<line class="st4" x1="272.7" y1="318.7" x2="272.7" y2="320"/>
	<line class="st4" x1="269.3" y1="318.7" x2="269.3" y2="320"/>
	<line class="st4" x1="276" y1="318.7" x2="276" y2="320"/>
	<line class="st4" x1="279.4" y1="318.7" x2="279.4" y2="320"/>
	<line class="st4" x1="265.9" y1="318.7" x2="265.9" y2="320"/>
</g>
<text transform="matrix(1 0 0 1 151.2395 250.9008)" class="st1 st2 st3">GP Registers</text>
<text transform="matrix(1 0 0 1 115.2336 290.9008)" class="st1 st2 st3">Segment Registers</text>
<text transform="matrix(1 0 0 1 136.8372 310.9008)" class="st1 st2 st3">Flags Register</text>
<text transform="matrix(1 0 0 1 158.4407 330.9008)" class="st1 st2 st3">Register IP</text>
<text transform="matrix(1 0 0 1 115.2336 350.9008)" class="st1 st2 st3">Control Registers</text>
<g>
	<rect x="260.8" y="220.5" class="st6" width="23.7" height="12.9"/>
	<line class="st4" x1="272.7" y1="233.4" x2="272.7" y2="234.7"/>
	<line class="st4" x1="269.3" y1="233.4" x2="269.3" y2="234.7"/>
	<line class="st4" x1="276" y1="233.4" x2="276" y2="234.7"/>
	<line class="st4" x1="279.4" y1="233.4" x2="279.4" y2="234.7"/>
	<line class="st4" x1="265.9" y1="233.4" x2="265.9" y2="234.7"/>
	<line class="st4" x1="272.7" y1="219.2" x2="272.7" y2="220.5"/>
	<line class="st4" x1="269.3" y1="219.2" x2="269.3" y2="220.5"/>
	<line class="st4" x1="276" y1="219.2" x2="276" y2="220.5"/>
	<line class="st4" x1="279.4" y1="219.2" x2="279.4" y2="220.5"/>
	<line class="st4" x1="265.9" y1="219.2" x2="265.9" y2="220.5"/>
	<text transform="matrix(1 0 0 1 261.8517 230.1982)" class="st1 st2 st3">EAX</text>
</g>
<g>
	<rect x="290.8" y="220.5" class="st6" width="23.7" height="12.9"/>
	<text transform="matrix(1 0 0 1 291.8517 230.1982)" class="st1 st2 st3">EBX</text>
	<line class="st4" x1="302.7" y1="233.4" x2="302.7" y2="234.7"/>
	<line class="st4" x1="299.3" y1="233.4" x2="299.3" y2="234.7"/>
	<line class="st4" x1="306" y1="233.4" x2="306" y2="234.7"/>
	<line class="st4" x1="309.4" y1="233.4" x2="309.4" y2="234.7"/>
	<line class="st4" x1="295.9" y1="233.4" x2="295.9" y2="234.7"/>
	<line class="st4" x1="302.7" y1="219.2" x2="302.7" y2="220.5"/>
	<line class="st4" x1="299.3" y1="219.2" x2="299.3" y2="220.5"/>
	<line class="st4" x1="306" y1="219.2" x2="306" y2="220.5"/>
	<line class="st4" x1="309.4" y1="219.2" x2="309.4" y2="220.5"/>
	<line class="st4" x1="295.9" y1="219.2" x2="295.9" y2="220.5"/>
</g>
<g>
	<rect x="320.8" y="220.5" class="st6" width="23.7" height="12.9"/>
	<text transform="matrix(1 0 0 1 321.8517 230.1982)" class="st1 st2 st3">ECX</text>
	<line class="st4" x1="332.7" y1="233.4" x2="332.7" y2="234.7"/>
	<line class="st4" x1="329.3" y1="233.4" x2="329.3" y2="234.7"/>
	<line class="st4" x1="336" y1="233.4" x2="336" y2="234.7"/>
	<line class="st4" x1="339.4" y1="233.4" x2="339.4" y2="234.7"/>
	<line class="st4" x1="325.9" y1="233.4" x2="325.9" y2="234.7"/>
	<line class="st4" x1="332.7" y1="219.2" x2="332.7" y2="220.5"/>
	<line class="st4" x1="329.3" y1="219.2" x2="329.3" y2="220.5"/>
	<line class="st4" x1="336" y1="219.2" x2="336" y2="220.5"/>
	<line class="st4" x1="339.4" y1="219.2" x2="339.4" y2="220.5"/>
	<line class="st4" x1="325.9" y1="219.2" x2="325.9" y2="220.5"/>
</g>
<g>
	<rect x="350.8" y="220.5" class="st6" width="23.7" height="12.9"/>
	<text transform="matrix(1 0 0 1 351.8517 230.1982)" class="st1 st2 st3">EDX</text>
	<line class="st4" x1="362.7" y1="233.4" x2="362.7" y2="234.7"/>
	<line class="st4" x1="359.3" y1="233.4" x2="359.3" y2="234.7"/>
	<line class="st4" x1="366" y1="233.4" x2="366" y2="234.7"/>
	<line class="st4" x1="369.4" y1="233.4" x2="369.4" y2="234.7"/>
	<line class="st4" x1="355.9" y1="233.4" x2="355.9" y2="234.7"/>
	<line class="st4" x1="362.7" y1="219.2" x2="362.7" y2="220.5"/>
	<line class="st4" x1="359.3" y1="219.2" x2="359.3" y2="220.5"/>
	<line class="st4" x1="366" y1="219.2" x2="366" y2="220.5"/>
	<line class="st4" x1="369.4" y1="219.2" x2="369.4" y2="220.5"/>
	<line class="st4" x1="355.9" y1="219.2" x2="355.9" y2="220.5"/>
</g>
<g>
	<rect x="380.8" y="220.5" class="st6" width="23.7" height="12.9"/>
	<text transform="matrix(1 0 0 1 381.8517 230.1982)" class="st1 st2 st3">ESI</text>
	<line class="st4" x1="392.7" y1="233.4" x2="392.7" y2="234.7"/>
	<line class="st4" x1="389.3" y1="233.4" x2="389.3" y2="234.7"/>
	<line class="st4" x1="396" y1="233.4" x2="396" y2="234.7"/>
	<line class="st4" x1="399.4" y1="233.4" x2="399.4" y2="234.7"/>
	<line class="st4" x1="385.9" y1="233.4" x2="385.9" y2="234.7"/>
	<line class="st4" x1="392.7" y1="219.2" x2="392.7" y2="220.5"/>
	<line class="st4" x1="389.3" y1="219.2" x2="389.3" y2="220.5"/>
	<line class="st4" x1="396" y1="219.2" x2="396" y2="220.5"/>
	<line class="st4" x1="399.4" y1="219.2" x2="399.4" y2="220.5"/>
	<line class="st4" x1="385.9" y1="219.2" x2="385.9" y2="220.5"/>
</g>
<g>
	<rect x="410.8" y="220.5" class="st6" width="23.7" height="12.9"/>
	<text transform="matrix(1 0 0 1 411.8517 230.1982)" class="st1 st2 st3">EDI</text>
	<line class="st4" x1="422.7" y1="233.4" x2="422.7" y2="234.7"/>
	<line class="st4" x1="419.3" y1="233.4" x2="419.3" y2="234.7"/>
	<line class="st4" x1="426" y1="233.4" x2="426" y2="234.7"/>
	<line class="st4" x1="429.4" y1="233.4" x2="429.4" y2="234.7"/>
	<line class="st4" x1="415.9" y1="233.4" x2="415.9" y2="234.7"/>
	<line class="st4" x1="422.7" y1="219.2" x2="422.7" y2="220.5"/>
	<line class="st4" x1="419.3" y1="219.2" x2="419.3" y2="220.5"/>
	<line class="st4" x1="426" y1="219.2" x2="426" y2="220.5"/>
	<line class="st4" x1="429.4" y1="219.2" x2="429.4" y2="220.5"/>
	<line class="st4" x1="415.9" y1="219.2" x2="415.9" y2="220.5"/>
</g>
<g>
	<rect x="440.8" y="220.5" class="st6" width="23.7" height="12.9"/>
	<text transform="matrix(1 0 0 1 441.8517 230.1982)" class="st1 st2 st3">EBP</text>
	<line class="st4" x1="452.7" y1="233.4" x2="452.7" y2="234.7"/>
	<line class="st4" x1="449.3" y1="233.4" x2="449.3" y2="234.7"/>
	<line class="st4" x1="456" y1="233.4" x2="456" y2="234.7"/>
	<line class="st4" x1="459.4" y1="233.4" x2="459.4" y2="234.7"/>
	<line class="st4" x1="445.9" y1="233.4" x2="445.9" y2="234.7"/>
	<line class="st4" x1="452.7" y1="219.2" x2="452.7" y2="220.5"/>
	<line class="st4" x1="449.3" y1="219.2" x2="449.3" y2="220.5"/>
	<line class="st4" x1="456" y1="219.2" x2="456" y2="220.5"/>
	<line class="st4" x1="459.4" y1="219.2" x2="459.4" y2="220.5"/>
	<line class="st4" x1="445.9" y1="219.2" x2="445.9" y2="220.5"/>
</g>
<g>
	<rect x="470.8" y="220.5" class="st6" width="23.7" height="12.9"/>
	<text transform="matrix(1 0 0 1 471.8517 230.1982)" class="st1 st2 st3">ESP</text>
	<line class="st4" x1="482.7" y1="233.4" x2="482.7" y2="234.7"/>
	<line class="st4" x1="479.3" y1="233.4" x2="479.3" y2="234.7"/>
	<line class="st4" x1="486" y1="233.4" x2="486" y2="234.7"/>
	<line class="st4" x1="489.4" y1="233.4" x2="489.4" y2="234.7"/>
	<line class="st4" x1="475.9" y1="233.4" x2="475.9" y2="234.7"/>
	<line class="st4" x1="482.7" y1="219.2" x2="482.7" y2="220.5"/>
	<line class="st4" x1="479.3" y1="219.2" x2="479.3" y2="220.5"/>
	<line class="st4" x1="486" y1="219.2" x2="486" y2="220.5"/>
	<line class="st4" x1="489.4" y1="219.2" x2="489.4" y2="220.5"/>
	<line class="st4" x1="475.9" y1="219.2" x2="475.9" y2="220.5"/>
</g>
<g>
	<rect x="260.8" y="340.5" class="st6" width="23.7" height="12.9"/>
	<text transform="matrix(1 0 0 1 261.8517 350.1982)" class="st1 st2 st3">CR0</text>
	<line class="st4" x1="272.7" y1="353.4" x2="272.7" y2="354.7"/>
	<line class="st4" x1="269.3" y1="353.4" x2="269.3" y2="354.7"/>
	<line class="st4" x1="276" y1="353.4" x2="276" y2="354.7"/>
	<line class="st4" x1="279.4" y1="353.4" x2="279.4" y2="354.7"/>
	<line class="st4" x1="265.9" y1="353.4" x2="265.9" y2="354.7"/>
	<line class="st4" x1="272.7" y1="339.2" x2="272.7" y2="340.5"/>
	<line class="st4" x1="269.3" y1="339.2" x2="269.3" y2="340.5"/>
	<line class="st4" x1="276" y1="339.2" x2="276" y2="340.5"/>
	<line class="st4" x1="279.4" y1="339.2" x2="279.4" y2="340.5"/>
	<line class="st4" x1="265.9" y1="339.2" x2="265.9" y2="340.5"/>
</g>
<g>
	<rect x="290.8" y="340.5" class="st6" width="23.7" height="12.9"/>
	<text transform="matrix(1 0 0 1 291.8517 350.1982)" class="st1 st2 st3">CR2</text>
	<line class="st4" x1="302.7" y1="353.4" x2="302.7" y2="354.7"/>
	<line class="st4" x1="299.3" y1="353.4" x2="299.3" y2="354.7"/>
	<line class="st4" x1="306" y1="353.4" x2="306" y2="354.7"/>
	<line class="st4" x1="309.4" y1="353.4" x2="309.4" y2="354.7"/>
	<line class="st4" x1="295.9" y1="353.4" x2="295.9" y2="354.7"/>
	<line class="st4" x1="302.7" y1="339.2" x2="302.7" y2="340.5"/>
	<line class="st4" x1="299.3" y1="339.2" x2="299.3" y2="340.5"/>
	<line class="st4" x1="306" y1="339.2" x2="306" y2="340.5"/>
	<line class="st4" x1="309.4" y1="339.2" x2="309.4" y2="340.5"/>
	<line class="st4" x1="295.9" y1="339.2" x2="295.9" y2="340.5"/>
</g>
<g>
	<rect x="320.8" y="340.5" class="st6" width="23.7" height="12.9"/>
	<text transform="matrix(1 0 0 1 321.8517 350.1982)" class="st1 st2 st3">CR3</text>
	<line class="st4" x1="332.7" y1="353.4" x2="332.7" y2="354.7"/>
	<line class="st4" x1="329.3" y1="353.4" x2="329.3" y2="354.7"/>
	<line class="st4" x1="336" y1="353.4" x2="336" y2="354.7"/>
	<line class="st4" x1="339.4" y1="353.4" x2="339.4" y2="354.7"/>
	<line class="st4" x1="325.9" y1="353.4" x2="325.9" y2="354.7"/>
	<line class="st4" x1="332.7" y1="339.2" x2="332.7" y2="340.5"/>
	<line class="st4" x1="329.3" y1="339.2" x2="329.3" y2="340.5"/>
	<line class="st4" x1="336" y1="339.2" x2="336" y2="340.5"/>
	<line class="st4" x1="339.4" y1="339.2" x2="339.4" y2="340.5"/>
	<line class="st4" x1="325.9" y1="339.2" x2="325.9" y2="340.5"/>
</g>
<g>
	<rect x="350.8" y="340.5" class="st6" width="23.7" height="12.9"/>
	<text transform="matrix(1 0 0 1 351.8517 350.1982)" class="st1 st2 st3">CR4</text>
	<line class="st4" x1="362.7" y1="353.4" x2="362.7" y2="354.7"/>
	<line class="st4" x1="359.3" y1="353.4" x2="359.3" y2="354.7"/>
	<line class="st4" x1="366" y1="353.4" x2="366" y2="354.7"/>
	<line class="st4" x1="369.4" y1="353.4" x2="369.4" y2="354.7"/>
	<line class="st4" x1="355.9" y1="353.4" x2="355.9" y2="354.7"/>
	<line class="st4" x1="362.7" y1="339.2" x2="362.7" y2="340.5"/>
	<line class="st4" x1="359.3" y1="339.2" x2="359.3" y2="340.5"/>
	<line class="st4" x1="366" y1="339.2" x2="366" y2="340.5"/>
	<line class="st4" x1="369.4" y1="339.2" x2="369.4" y2="340.5"/>
	<line class="st4" x1="355.9" y1="339.2" x2="355.9" y2="340.5"/>
</g>
<text transform="matrix(1 0 0 1 50.4231 370.9008)" class="st1 st2 st3">Descriptor-Table Registers</text>
<g>
	<rect x="260.8" y="380" class="st0" width="23.7" height="12.9"/>
	<text transform="matrix(1 0 0 1 265.4508 389.6941)" class="st1 st2 st3">TR</text>
	<line class="st4" x1="272.7" y1="392.9" x2="272.7" y2="394.2"/>
	<line class="st4" x1="269.3" y1="392.9" x2="269.3" y2="394.2"/>
	<line class="st4" x1="276" y1="392.9" x2="276" y2="394.2"/>
	<line class="st4" x1="279.4" y1="392.9" x2="279.4" y2="394.2"/>
	<line class="st4" x1="265.9" y1="392.9" x2="265.9" y2="394.2"/>
	<line class="st4" x1="272.7" y1="378.7" x2="272.7" y2="380"/>
	<line class="st4" x1="269.3" y1="378.7" x2="269.3" y2="380"/>
	<line class="st4" x1="276" y1="378.7" x2="276" y2="380"/>
	<line class="st4" x1="279.4" y1="378.7" x2="279.4" y2="380"/>
	<line class="st4" x1="265.9" y1="378.7" x2="265.9" y2="380"/>
</g>
<text transform="matrix(1 0 0 1 144.0383 390.9008)" class="st1 st2 st3">Task Register</text>
<g>
	<rect x="260.8" y="240.5" class="st0" width="23.7" height="12.9"/>
	<text transform="matrix(1 0 0 1 265.4522 250.1982)" class="st1 st2 st3">AX</text>
	<line class="st4" x1="272.7" y1="253.4" x2="272.7" y2="254.7"/>
	<line class="st4" x1="269.3" y1="253.4" x2="269.3" y2="254.7"/>
	<line class="st4" x1="276" y1="253.4" x2="276" y2="254.7"/>
	<line class="st4" x1="279.4" y1="253.4" x2="279.4" y2="254.7"/>
	<line class="st4" x1="265.9" y1="253.4" x2="265.9" y2="254.7"/>
	<line class="st4" x1="272.7" y1="239.2" x2="272.7" y2="240.5"/>
	<line class="st4" x1="269.3" y1="239.2" x2="269.3" y2="240.5"/>
	<line class="st4" x1="276" y1="239.2" x2="276" y2="240.5"/>
	<line class="st4" x1="279.4" y1="239.2" x2="279.4" y2="240.5"/>
	<line class="st4" x1="265.9" y1="239.2" x2="265.9" y2="240.5"/>
</g>
<g>
	<rect x="290.8" y="240.5" class="st0" width="23.7" height="12.9"/>
	<text transform="matrix(1 0 0 1 295.4522 250.1982)" class="st1 st2 st3">BX</text>
	<line class="st4" x1="302.7" y1="253.4" x2="302.7" y2="254.7"/>
	<line class="st4" x1="299.3" y1="253.4" x2="299.3" y2="254.7"/>
	<line class="st4" x1="306" y1="253.4" x2="306" y2="254.7"/>
	<line class="st4" x1="309.4" y1="253.4" x2="309.4" y2="254.7"/>
	<line class="st4" x1="295.9" y1="253.4" x2="295.9" y2="254.7"/>
	<line class="st4" x1="302.7" y1="239.2" x2="302.7" y2="240.5"/>
	<line class="st4" x1="299.3" y1="239.2" x2="299.3" y2="240.5"/>
	<line class="st4" x1="306" y1="239.2" x2="306" y2="240.5"/>
	<line class="st4" x1="309.4" y1="239.2" x2="309.4" y2="240.5"/>
	<line class="st4" x1="295.9" y1="239.2" x2="295.9" y2="240.5"/>
</g>
<g>
	<rect x="320.8" y="240.5" class="st0" width="23.7" height="12.9"/>
	<text transform="matrix(1 0 0 1 325.4522 250.1982)" class="st1 st2 st3">CX</text>
	<line class="st4" x1="332.7" y1="253.4" x2="332.7" y2="254.7"/>
	<line class="st4" x1="329.3" y1="253.4" x2="329.3" y2="254.7"/>
	<line class="st4" x1="336" y1="253.4" x2="336" y2="254.7"/>
	<line class="st4" x1="339.4" y1="253.4" x2="339.4" y2="254.7"/>
	<line class="st4" x1="325.9" y1="253.4" x2="325.9" y2="254.7"/>
	<line class="st4" x1="332.7" y1="239.2" x2="332.7" y2="240.5"/>
	<line class="st4" x1="329.3" y1="239.2" x2="329.3" y2="240.5"/>
	<line class="st4" x1="336" y1="239.2" x2="336" y2="240.5"/>
	<line class="st4" x1="339.4" y1="239.2" x2="339.4" y2="240.5"/>
	<line class="st4" x1="325.9" y1="239.2" x2="325.9" y2="240.5"/>
</g>
<g>
	<rect x="350.8" y="240.5" class="st0" width="23.7" height="12.9"/>
	<text transform="matrix(1 0 0 1 355.4522 250.1982)" class="st1 st2 st3">DX</text>
	<line class="st4" x1="362.7" y1="253.4" x2="362.7" y2="254.7"/>
	<line class="st4" x1="359.3" y1="253.4" x2="359.3" y2="254.7"/>
	<line class="st4" x1="366" y1="253.4" x2="366" y2="254.7"/>
	<line class="st4" x1="369.4" y1="253.4" x2="369.4" y2="254.7"/>
	<line class="st4" x1="355.9" y1="253.4" x2="355.9" y2="254.7"/>
	<line class="st4" x1="362.7" y1="239.2" x2="362.7" y2="240.5"/>
	<line class="st4" x1="359.3" y1="239.2" x2="359.3" y2="240.5"/>
	<line class="st4" x1="366" y1="239.2" x2="366" y2="240.5"/>
	<line class="st4" x1="369.4" y1="239.2" x2="369.4" y2="240.5"/>
	<line class="st4" x1="355.9" y1="239.2" x2="355.9" y2="240.5"/>
</g>
<g>
	<rect x="380.8" y="240.5" class="st0" width="23.7" height="12.9"/>
	<text transform="matrix(1 0 0 1 385.4522 250.1982)" class="st1 st2 st3">SI</text>
	<line class="st4" x1="392.7" y1="253.4" x2="392.7" y2="254.7"/>
	<line class="st4" x1="389.3" y1="253.4" x2="389.3" y2="254.7"/>
	<line class="st4" x1="396" y1="253.4" x2="396" y2="254.7"/>
	<line class="st4" x1="399.4" y1="253.4" x2="399.4" y2="254.7"/>
	<line class="st4" x1="385.9" y1="253.4" x2="385.9" y2="254.7"/>
	<line class="st4" x1="392.7" y1="239.2" x2="392.7" y2="240.5"/>
	<line class="st4" x1="389.3" y1="239.2" x2="389.3" y2="240.5"/>
	<line class="st4" x1="396" y1="239.2" x2="396" y2="240.5"/>
	<line class="st4" x1="399.4" y1="239.2" x2="399.4" y2="240.5"/>
	<line class="st4" x1="385.9" y1="239.2" x2="385.9" y2="240.5"/>
</g>
<g>
	<rect x="410.8" y="240.5" class="st0" width="23.7" height="12.9"/>
	<text transform="matrix(1 0 0 1 415.4522 250.1982)" class="st1 st2 st3">DI</text>
	<line class="st4" x1="422.7" y1="253.4" x2="422.7" y2="254.7"/>
	<line class="st4" x1="419.3" y1="253.4" x2="419.3" y2="254.7"/>
	<line class="st4" x1="426" y1="253.4" x2="426" y2="254.7"/>
	<line class="st4" x1="429.4" y1="253.4" x2="429.4" y2="254.7"/>
	<line class="st4" x1="415.9" y1="253.4" x2="415.9" y2="254.7"/>
	<line class="st4" x1="422.7" y1="239.2" x2="422.7" y2="240.5"/>
	<line class="st4" x1="419.3" y1="239.2" x2="419.3" y2="240.5"/>
	<line class="st4" x1="426" y1="239.2" x2="426" y2="240.5"/>
	<line class="st4" x1="429.4" y1="239.2" x2="429.4" y2="240.5"/>
	<line class="st4" x1="415.9" y1="239.2" x2="415.9" y2="240.5"/>
</g>
<g>
	<rect x="440.8" y="240.5" class="st0" width="23.7" height="12.9"/>
	<text transform="matrix(1 0 0 1 445.4522 250.1982)" class="st1 st2 st3">BP</text>
	<line class="st4" x1="452.7" y1="253.4" x2="452.7" y2="254.7"/>
	<line class="st4" x1="449.3" y1="253.4" x2="449.3" y2="254.7"/>
	<line class="st4" x1="456" y1="253.4" x2="456" y2="254.7"/>
	<line class="st4" x1="459.4" y1="253.4" x2="459.4" y2="254.7"/>
	<line class="st4" x1="445.9" y1="253.4" x2="445.9" y2="254.7"/>
	<line class="st4" x1="452.7" y1="239.2" x2="452.7" y2="240.5"/>
	<line class="st4" x1="449.3" y1="239.2" x2="449.3" y2="240.5"/>
	<line class="st4" x1="456" y1="239.2" x2="456" y2="240.5"/>
	<line class="st4" x1="459.4" y1="239.2" x2="459.4" y2="240.5"/>
	<line class="st4" x1="445.9" y1="239.2" x2="445.9" y2="240.5"/>
</g>
<g>
	<rect x="470.8" y="240.5" class="st0" width="23.7" height="12.9"/>
	<text transform="matrix(1 0 0 1 475.4522 250.1982)" class="st1 st2 st3">SP</text>
	<line class="st4" x1="482.7" y1="253.4" x2="482.7" y2="254.7"/>
	<line class="st4" x1="479.3" y1="253.4" x2="479.3" y2="254.7"/>
	<line class="st4" x1="486" y1="253.4" x2="486" y2="254.7"/>
	<line class="st4" x1="489.4" y1="253.4" x2="489.4" y2="254.7"/>
	<line class="st4" x1="475.9" y1="253.4" x2="475.9" y2="254.7"/>
	<line class="st4" x1="482.7" y1="239.2" x2="482.7" y2="240.5"/>
	<line class="st4" x1="479.3" y1="239.2" x2="479.3" y2="240.5"/>
	<line class="st4" x1="486" y1="239.2" x2="486" y2="240.5"/>
	<line class="st4" x1="489.4" y1="239.2" x2="489.4" y2="240.5"/>
	<line class="st4" x1="475.9" y1="239.2" x2="475.9" y2="240.5"/>
</g>
<g>
	<rect x="260.8" y="260.5" class="st7" width="23.7" height="12.9"/>
	<text transform="matrix(1 0 0 1 265.4522 270.1982)" class="st1 st2 st3">AL</text>
	<line class="st4" x1="272.7" y1="273.4" x2="272.7" y2="274.7"/>
	<line class="st4" x1="269.3" y1="273.4" x2="269.3" y2="274.7"/>
	<line class="st4" x1="276" y1="273.4" x2="276" y2="274.7"/>
	<line class="st4" x1="279.4" y1="273.4" x2="279.4" y2="274.7"/>
	<line class="st4" x1="265.9" y1="273.4" x2="265.9" y2="274.7"/>
	<line class="st4" x1="272.7" y1="259.2" x2="272.7" y2="260.5"/>
	<line class="st4" x1="269.3" y1="259.2" x2="269.3" y2="260.5"/>
	<line class="st4" x1="276" y1="259.2" x2="276" y2="260.5"/>
	<line class="st4" x1="279.4" y1="259.2" x2="279.4" y2="260.5"/>
	<line class="st4" x1="265.9" y1="259.2" x2="265.9" y2="260.5"/>
</g>
<g>
	<rect x="290.8" y="260.5" class="st7" width="23.7" height="12.9"/>
	<text transform="matrix(1 0 0 1 295.4522 270.1982)" class="st1 st2 st3">AH</text>
	<line class="st4" x1="302.7" y1="273.4" x2="302.7" y2="274.7"/>
	<line class="st4" x1="299.3" y1="273.4" x2="299.3" y2="274.7"/>
	<line class="st4" x1="306" y1="273.4" x2="306" y2="274.7"/>
	<line class="st4" x1="309.4" y1="273.4" x2="309.4" y2="274.7"/>
	<line class="st4" x1="295.9" y1="273.4" x2="295.9" y2="274.7"/>
	<line class="st4" x1="302.7" y1="259.2" x2="302.7" y2="260.5"/>
	<line class="st4" x1="299.3" y1="259.2" x2="299.3" y2="260.5"/>
	<line class="st4" x1="306" y1="259.2" x2="306" y2="260.5"/>
	<line class="st4" x1="309.4" y1="259.2" x2="309.4" y2="260.5"/>
	<line class="st4" x1="295.9" y1="259.2" x2="295.9" y2="260.5"/>
</g>
<g>
	<rect x="320.8" y="260.5" class="st7" width="23.7" height="12.9"/>
	<text transform="matrix(1 0 0 1 325.4522 270.1982)" class="st1 st2 st3">BL</text>
	<line class="st4" x1="332.7" y1="273.4" x2="332.7" y2="274.7"/>
	<line class="st4" x1="329.3" y1="273.4" x2="329.3" y2="274.7"/>
	<line class="st4" x1="336" y1="273.4" x2="336" y2="274.7"/>
	<line class="st4" x1="339.4" y1="273.4" x2="339.4" y2="274.7"/>
	<line class="st4" x1="325.9" y1="273.4" x2="325.9" y2="274.7"/>
	<line class="st4" x1="332.7" y1="259.2" x2="332.7" y2="260.5"/>
	<line class="st4" x1="329.3" y1="259.2" x2="329.3" y2="260.5"/>
	<line class="st4" x1="336" y1="259.2" x2="336" y2="260.5"/>
	<line class="st4" x1="339.4" y1="259.2" x2="339.4" y2="260.5"/>
	<line class="st4" x1="325.9" y1="259.2" x2="325.9" y2="260.5"/>
</g>
<g>
	<rect x="350.8" y="260.5" class="st7" width="23.7" height="12.9"/>
	<text transform="matrix(1 0 0 1 355.4522 270.1982)" class="st1 st2 st3">BH</text>
	<line class="st4" x1="362.7" y1="273.4" x2="362.7" y2="274.7"/>
	<line class="st4" x1="359.3" y1="273.4" x2="359.3" y2="274.7"/>
	<line class="st4" x1="366" y1="273.4" x2="366" y2="274.7"/>
	<line class="st4" x1="369.4" y1="273.4" x2="369.4" y2="274.7"/>
	<line class="st4" x1="355.9" y1="273.4" x2="355.9" y2="274.7"/>
	<line class="st4" x1="362.7" y1="259.2" x2="362.7" y2="260.5"/>
	<line class="st4" x1="359.3" y1="259.2" x2="359.3" y2="260.5"/>
	<line class="st4" x1="366" y1="259.2" x2="366" y2="260.5"/>
	<line class="st4" x1="369.4" y1="259.2" x2="369.4" y2="260.5"/>
	<line class="st4" x1="355.9" y1="259.2" x2="355.9" y2="260.5"/>
</g>
<g>
	<rect x="380.8" y="260.5" class="st7" width="23.7" height="12.9"/>
	<text transform="matrix(1 0 0 1 385.4522 270.1982)" class="st1 st2 st3">CL</text>
	<line class="st4" x1="392.7" y1="273.4" x2="392.7" y2="274.7"/>
	<line class="st4" x1="389.3" y1="273.4" x2="389.3" y2="274.7"/>
	<line class="st4" x1="396" y1="273.4" x2="396" y2="274.7"/>
	<line class="st4" x1="399.4" y1="273.4" x2="399.4" y2="274.7"/>
	<line class="st4" x1="385.9" y1="273.4" x2="385.9" y2="274.7"/>
	<line class="st4" x1="392.7" y1="259.2" x2="392.7" y2="260.5"/>
	<line class="st4" x1="389.3" y1="259.2" x2="389.3" y2="260.5"/>
	<line class="st4" x1="396" y1="259.2" x2="396" y2="260.5"/>
	<line class="st4" x1="399.4" y1="259.2" x2="399.4" y2="260.5"/>
	<line class="st4" x1="385.9" y1="259.2" x2="385.9" y2="260.5"/>
</g>
<g>
	<rect x="410.8" y="260.5" class="st7" width="23.7" height="12.9"/>
	<text transform="matrix(1 0 0 1 415.4522 270.1982)" class="st1 st2 st3">CH</text>
	<line class="st4" x1="422.7" y1="273.4" x2="422.7" y2="274.7"/>
	<line class="st4" x1="419.3" y1="273.4" x2="419.3" y2="274.7"/>
	<line class="st4" x1="426" y1="273.4" x2="426" y2="274.7"/>
	<line class="st4" x1="429.4" y1="273.4" x2="429.4" y2="274.7"/>
	<line class="st4" x1="415.9" y1="273.4" x2="415.9" y2="274.7"/>
	<line class="st4" x1="422.7" y1="259.2" x2="422.7" y2="260.5"/>
	<line class="st4" x1="419.3" y1="259.2" x2="419.3" y2="260.5"/>
	<line class="st4" x1="426" y1="259.2" x2="426" y2="260.5"/>
	<line class="st4" x1="429.4" y1="259.2" x2="429.4" y2="260.5"/>
	<line class="st4" x1="415.9" y1="259.2" x2="415.9" y2="260.5"/>
</g>
<g>
	<rect x="440.8" y="260.5" class="st7" width="23.7" height="12.9"/>
	<text transform="matrix(1 0 0 1 445.4522 270.1982)" class="st1 st2 st3">DL</text>
	<line class="st4" x1="452.7" y1="273.4" x2="452.7" y2="274.7"/>
	<line class="st4" x1="449.3" y1="273.4" x2="449.3" y2="274.7"/>
	<line class="st4" x1="456" y1="273.4" x2="456" y2="274.7"/>
	<line class="st4" x1="459.4" y1="273.4" x2="459.4" y2="274.7"/>
	<line class="st4" x1="445.9" y1="273.4" x2="445.9" y2="274.7"/>
	<line class="st4" x1="452.7" y1="259.2" x2="452.7" y2="260.5"/>
	<line class="st4" x1="449.3" y1="259.2" x2="449.3" y2="260.5"/>
	<line class="st4" x1="456" y1="259.2" x2="456" y2="260.5"/>
	<line class="st4" x1="459.4" y1="259.2" x2="459.4" y2="260.5"/>
	<line class="st4" x1="445.9" y1="259.2" x2="445.9" y2="260.5"/>
</g>
<g>
	<rect x="470.8" y="260.5" class="st7" width="23.7" height="12.9"/>
	<text transform="matrix(1 0 0 1 475.4522 270.1982)" class="st1 st2 st3">DH</text>
	<line class="st4" x1="482.7" y1="273.4" x2="482.7" y2="274.7"/>
	<line class="st4" x1="479.3" y1="273.4" x2="479.3" y2="274.7"/>
	<line class="st4" x1="486" y1="273.4" x2="486" y2="274.7"/>
	<line class="st4" x1="489.4" y1="273.4" x2="489.4" y2="274.7"/>
	<line class="st4" x1="475.9" y1="273.4" x2="475.9" y2="274.7"/>
	<line class="st4" x1="482.7" y1="259.2" x2="482.7" y2="260.5"/>
	<line class="st4" x1="479.3" y1="259.2" x2="479.3" y2="260.5"/>
	<line class="st4" x1="486" y1="259.2" x2="486" y2="260.5"/>
	<line class="st4" x1="489.4" y1="259.2" x2="489.4" y2="260.5"/>
	<line class="st4" x1="475.9" y1="259.2" x2="475.9" y2="260.5"/>
</g>
<line class="st4" x1="246.8" y1="220.5" x2="246.8" y2="273.4"/>
<line class="st4" x1="246.8" y1="220.5" x2="251.5" y2="220.5"/>
<line class="st4" x1="246.8" y1="273.4" x2="251.5" y2="273.4"/>
</svg>
