<?xml version="1.0" encoding="utf-8"?>
<!-- Generator: Adobe Illustrator 19.1.0, SVG Export Plug-In . SVG Version: 6.00 Build 0)  -->
<svg version="1.1" id="Layer_1" xmlns="http://www.w3.org/2000/svg" xmlns:xlink="http://www.w3.org/1999/xlink" x="0px" y="0px"
	 viewBox="-71 35 647.5 543" style="enable-background:new -71 35 647.5 543;" xml:space="preserve">
<style type="text/css">
	.st0{fill:#FFFBD4;stroke:#231F20;stroke-width:0.25;stroke-miterlimit:10;}
	.st1{fill:#231F20;}
	.st2{font-family:'CourierNewPSMT';}
	.st3{font-size:12px;}
	.st4{fill:none;stroke:#231F20;stroke-width:0.25;stroke-miterlimit:10;}
	.st5{fill:#FFFFFF;stroke:#231F20;stroke-width:0.25;stroke-miterlimit:10;}
	.st6{fill:none;stroke:#BBBDBF;stroke-width:0.25;stroke-miterlimit:10;}
	.st7{fill:#231F20;stroke:#231F20;stroke-width:0.25;stroke-miterlimit:10;}
	.st8{fill:#B2DDC7;stroke:#231F20;stroke-width:0.25;stroke-miterlimit:10;}
	.st9{fill:#E6E7E8;stroke:#231F20;stroke-width:0.25;stroke-miterlimit:10;}
</style>
<g>
	<rect x="-22" y="274.4" class="st0" width="23.7" height="12.9"/>
	<text transform="matrix(1 0 0 1 -17.3554 284.1134)" class="st1 st2 st3">CS</text>
	<line class="st4" x1="-10.2" y1="287.3" x2="-10.2" y2="288.6"/>
	<line class="st4" x1="-13.5" y1="287.3" x2="-13.5" y2="288.6"/>
	<line class="st4" x1="-6.8" y1="287.3" x2="-6.8" y2="288.6"/>
	<line class="st4" x1="-3.4" y1="287.3" x2="-3.4" y2="288.6"/>
	<line class="st4" x1="-16.9" y1="287.3" x2="-16.9" y2="288.6"/>
	<line class="st4" x1="-10.2" y1="273.1" x2="-10.2" y2="274.4"/>
	<line class="st4" x1="-13.5" y1="273.1" x2="-13.5" y2="274.4"/>
	<line class="st4" x1="-6.8" y1="273.1" x2="-6.8" y2="274.4"/>
	<line class="st4" x1="-3.4" y1="273.1" x2="-3.4" y2="274.4"/>
	<line class="st4" x1="-16.9" y1="273.1" x2="-16.9" y2="274.4"/>
</g>
<g>
	<rect x="-22" y="294.4" class="st0" width="23.7" height="12.9"/>
	<text transform="matrix(1 0 0 1 -17.3554 304.1134)" class="st1 st2 st3">DS</text>
	<line class="st4" x1="-10.2" y1="307.3" x2="-10.2" y2="308.6"/>
	<line class="st4" x1="-13.5" y1="307.3" x2="-13.5" y2="308.6"/>
	<line class="st4" x1="-6.8" y1="307.3" x2="-6.8" y2="308.6"/>
	<line class="st4" x1="-3.4" y1="307.3" x2="-3.4" y2="308.6"/>
	<line class="st4" x1="-16.9" y1="307.3" x2="-16.9" y2="308.6"/>
	<line class="st4" x1="-10.2" y1="293.1" x2="-10.2" y2="294.4"/>
	<line class="st4" x1="-13.5" y1="293.1" x2="-13.5" y2="294.4"/>
	<line class="st4" x1="-6.8" y1="293.1" x2="-6.8" y2="294.4"/>
	<line class="st4" x1="-3.4" y1="293.1" x2="-3.4" y2="294.4"/>
	<line class="st4" x1="-16.9" y1="293.1" x2="-16.9" y2="294.4"/>
</g>
<g>
	<rect x="-22" y="374.4" class="st0" width="23.7" height="12.9"/>
	<text transform="matrix(1 0 0 1 -17.3554 384.1134)" class="st1 st2 st3">SS</text>
	<line class="st4" x1="-10.2" y1="387.3" x2="-10.2" y2="388.6"/>
	<line class="st4" x1="-13.5" y1="387.3" x2="-13.5" y2="388.6"/>
	<line class="st4" x1="-6.8" y1="387.3" x2="-6.8" y2="388.6"/>
	<line class="st4" x1="-3.4" y1="387.3" x2="-3.4" y2="388.6"/>
	<line class="st4" x1="-16.9" y1="387.3" x2="-16.9" y2="388.6"/>
	<line class="st4" x1="-10.2" y1="373.1" x2="-10.2" y2="374.4"/>
	<line class="st4" x1="-13.5" y1="373.1" x2="-13.5" y2="374.4"/>
	<line class="st4" x1="-6.8" y1="373.1" x2="-6.8" y2="374.4"/>
	<line class="st4" x1="-3.4" y1="373.1" x2="-3.4" y2="374.4"/>
	<line class="st4" x1="-16.9" y1="373.1" x2="-16.9" y2="374.4"/>
</g>
<g>
	<rect x="-22" y="314.4" class="st0" width="23.7" height="12.9"/>
	<g>
		<text transform="matrix(1 0 0 1 -17.3554 324.1134)" class="st1 st2 st3">ES</text>
	</g>
	<line class="st0" x1="-10.2" y1="327.3" x2="-10.2" y2="328.6"/>
	<line class="st0" x1="-13.5" y1="327.3" x2="-13.5" y2="328.6"/>
	<line class="st0" x1="-6.8" y1="327.3" x2="-6.8" y2="328.6"/>
	<line class="st0" x1="-3.4" y1="327.3" x2="-3.4" y2="328.6"/>
	<line class="st0" x1="-16.9" y1="327.3" x2="-16.9" y2="328.6"/>
	<line class="st0" x1="-10.2" y1="313.1" x2="-10.2" y2="314.4"/>
	<line class="st0" x1="-13.5" y1="313.1" x2="-13.5" y2="314.4"/>
	<line class="st0" x1="-6.8" y1="313.1" x2="-6.8" y2="314.4"/>
	<line class="st0" x1="-3.4" y1="313.1" x2="-3.4" y2="314.4"/>
	<line class="st0" x1="-16.9" y1="313.1" x2="-16.9" y2="314.4"/>
</g>
<g>
	<rect x="-22" y="334.4" class="st0" width="23.7" height="12.9"/>
	<text transform="matrix(1 0 0 1 -17.3554 344.1134)" class="st1 st2 st3">FS</text>
	<line class="st4" x1="-10.2" y1="347.3" x2="-10.2" y2="348.6"/>
	<line class="st4" x1="-13.5" y1="347.3" x2="-13.5" y2="348.6"/>
	<line class="st4" x1="-6.8" y1="347.3" x2="-6.8" y2="348.6"/>
	<line class="st4" x1="-3.4" y1="347.3" x2="-3.4" y2="348.6"/>
	<line class="st4" x1="-16.9" y1="347.3" x2="-16.9" y2="348.6"/>
	<line class="st4" x1="-10.2" y1="333.1" x2="-10.2" y2="334.4"/>
	<line class="st4" x1="-13.5" y1="333.1" x2="-13.5" y2="334.4"/>
	<line class="st4" x1="-6.8" y1="333.1" x2="-6.8" y2="334.4"/>
	<line class="st4" x1="-3.4" y1="333.1" x2="-3.4" y2="334.4"/>
	<line class="st4" x1="-16.9" y1="333.1" x2="-16.9" y2="334.4"/>
</g>
<g>
	<rect x="-22" y="354.4" class="st0" width="23.7" height="12.9"/>
	<text transform="matrix(1 0 0 1 -17.3554 364.1134)" class="st1 st2 st3">GS</text>
	<line class="st4" x1="-10.2" y1="367.3" x2="-10.2" y2="368.6"/>
	<line class="st4" x1="-13.5" y1="367.3" x2="-13.5" y2="368.6"/>
	<line class="st4" x1="-6.8" y1="367.3" x2="-6.8" y2="368.6"/>
	<line class="st4" x1="-3.4" y1="367.3" x2="-3.4" y2="368.6"/>
	<line class="st4" x1="-16.9" y1="367.3" x2="-16.9" y2="368.6"/>
	<line class="st4" x1="-10.2" y1="353.1" x2="-10.2" y2="354.4"/>
	<line class="st4" x1="-13.5" y1="353.1" x2="-13.5" y2="354.4"/>
	<line class="st4" x1="-6.8" y1="353.1" x2="-6.8" y2="354.4"/>
	<line class="st4" x1="-3.4" y1="353.1" x2="-3.4" y2="354.4"/>
	<line class="st4" x1="-16.9" y1="353.1" x2="-16.9" y2="354.4"/>
</g>
<g>
	<rect x="77.4" y="266.1" class="st5" width="160.3" height="43.2"/>
	<line class="st6" x1="77.4" y1="287.7" x2="237.6" y2="287.7"/>
	<line class="st6" x1="157.5" y1="266.3" x2="157.5" y2="287.9"/>
	<text transform="matrix(1 0 0 1 143.7805 302.3123)" class="st1 st2 st3">Base</text>
	<text transform="matrix(1 0 0 1 180.1801 280.3564)" class="st1 st2 st3">Limit</text>
</g>
<line class="st4" x1="77.4" y1="247.8" x2="77.4" y2="488"/>
<line class="st4" x1="237.6" y1="247.8" x2="237.6" y2="488"/>
<line class="st4" x1="77.4" y1="247.8" x2="237.6" y2="247.8"/>
<line class="st4" x1="77.4" y1="488" x2="237.6" y2="488"/>
<line class="st4" x1="16.5" y1="309.3" x2="77.4" y2="309.3"/>
<polygon class="st7" points="77.3,309.3 70.6,306.7 70.6,311.9 "/>
<line class="st4" x1="16.5" y1="340.9" x2="16.5" y2="309.3"/>
<rect x="-68" y="91.3" class="st8" width="160.3" height="27"/>
<text transform="matrix(1 0 0 1 -49.0768 107.8166)" class="st1 st2 st3">Effective Address</text>
<text transform="matrix(1 0 0 1 -34.9578 237.7126)"><tspan x="0" y="0" class="st1 st2 st3">Segment </tspan><tspan x="-3.6" y="14.4" class="st1 st2 st3">Registers</tspan></text>
<text transform="matrix(1 0 0 1 92.637 237.7126)" class="st1 st2 st3">Descriptors Table</text>
<rect x="407.4" y="77.8" class="st9" width="160.3" height="490.2"/>
<polyline class="st5" points="567.6,533.8 407.4,533.8 407.4,441.8 567.6,441.8 "/>
<rect x="407.4" y="187.1" class="st5" width="160.3" height="173.7"/>
<polygon class="st7" points="407.3,360.8 400.6,358.2 400.6,363.4 "/>
<line class="st4" x1="366" y1="186.8" x2="407.4" y2="186.8"/>
<polygon class="st7" points="407.3,186.8 400.6,184.2 400.6,189.4 "/>
<line class="st4" x1="276.2" y1="360.8" x2="407.4" y2="360.8"/>
<line class="st4" x1="276.2" y1="297.8" x2="276.2" y2="319.5"/>
<line class="st4" x1="237.6" y1="297.8" x2="276.2" y2="297.8"/>
<polygon class="st7" points="318.8,253.1 312.1,250.5 312.1,255.7 "/>
<line class="st4" x1="276.7" y1="253.1" x2="317.9" y2="253.1"/>
<circle class="st4" cx="332.8" cy="252.2" r="13.7"/>
<rect x="332" y="248" class="st7" width="1.5" height="8.4"/>
<rect x="328.6" y="251.5" class="st7" width="8.4" height="1.5"/>
<line class="st4" x1="237.6" y1="276.1" x2="276.7" y2="276.1"/>
<line class="st4" x1="332.8" y1="319.5" x2="332.8" y2="267.1"/>
<polygon class="st7" points="332.8,267.1 330.2,273.8 335.4,273.8 "/>
<line class="st4" x1="276.7" y1="253.1" x2="276.7" y2="276.1"/>
<line class="st4" x1="276.2" y1="319.5" x2="332.8" y2="319.5"/>
<line class="st4" x1="276.2" y1="319.5" x2="276.2" y2="360.8"/>
<line class="st4" x1="346.5" y1="252.2" x2="366" y2="252.2"/>
<line class="st4" x1="366" y1="187.1" x2="366" y2="252.2"/>
<line class="st4" x1="295.8" y1="319.5" x2="295.8" y2="217.1"/>
<polygon class="st7" points="295.8,217.1 293.2,223.8 298.4,223.8 "/>
<circle class="st4" cx="295.8" cy="202.2" r="13.7"/>
<rect x="295" y="198" class="st7" width="1.5" height="8.4"/>
<rect x="291.6" y="201.5" class="st7" width="8.4" height="1.5"/>
<polygon class="st7" points="280.8,203.1 274.1,200.5 274.1,205.7 "/>
<line class="st4" x1="238.7" y1="203.1" x2="279.9" y2="203.1"/>
<line class="st4" x1="92.3" y1="104.2" x2="238.7" y2="104.2"/>
<line class="st4" x1="238.7" y1="203.1" x2="238.7" y2="104.2"/>
<line class="st4" x1="309.5" y1="202.2" x2="333.6" y2="202.2"/>
<line class="st4" x1="333.6" y1="202.2" x2="333.6" y2="224.8"/>
<line class="st4" x1="333.6" y1="224.8" x2="407.4" y2="224.8"/>
<polygon class="st7" points="407.3,224.8 400.6,222.2 400.6,227.4 "/>
<rect x="407.4" y="211.3" class="st4" width="160.3" height="27"/>
<text transform="matrix(1 0 0 1 433.4779 227.8162)" class="st1 st2 st3">Virtual Address</text>
<text transform="matrix(1 0 0 1 433.4779 47.8162)"><tspan x="0" y="0" class="st1 st2 st3">Virtual Address</tspan><tspan x="36" y="14.4" class="st1 st2 st3">Space</tspan></text>
<line class="st4" x1="16.5" y1="340.9" x2="1.7" y2="340.9"/>
</svg>
