<?xml version="1.0" encoding="utf-8"?>
<!-- Generator: Adobe Illustrator 19.1.0, SVG Export Plug-In . SVG Version: 6.00 Build 0)  -->
<svg version="1.1" id="Layer_1" xmlns="http://www.w3.org/2000/svg" xmlns:xlink="http://www.w3.org/1999/xlink" x="0px" y="0px"
	 viewBox="-71 109 647.5 395" style="enable-background:new -71 109 647.5 395;" xml:space="preserve">
<style type="text/css">
	.st0{fill:#FDF9D5;stroke:#221F1F;stroke-width:0.25;stroke-miterlimit:10;}
	.st1{fill:#E6E6E6;stroke:#221F1F;stroke-width:0.25;stroke-miterlimit:10;}
	.st2{fill:#FFFFFF;stroke:#221F1F;stroke-width:0.25;stroke-miterlimit:10;}
	.st3{fill:#F1F1F1;stroke:#221F1F;stroke-width:0.25;stroke-miterlimit:10;}
	.st4{fill:#221F1F;}
	.st5{fill:none;stroke:#221F1F;stroke-width:0.25;stroke-miterlimit:10;}
	.st6{fill:#221F1F;stroke:#221F1F;stroke-width:0.25;stroke-miterlimit:10;}
	.st7{fill:none;stroke:#BABCBE;stroke-width:0.25;stroke-miterlimit:10;}
	.st8{fill:#B1DCC7;}
	.st9{fill:#B1DCC7;stroke:#231F20;stroke-width:0.25;stroke-miterlimit:10;}
	.st10{fill:#F499AE;stroke:#211F1F;stroke-width:0.25;stroke-miterlimit:10;}
	.st11{fill:#E5E5E4;stroke:#211F1F;stroke-width:0.25;stroke-miterlimit:10;}
	.st12{fill:#F1F1F1;stroke:#211F1F;stroke-width:0.25;stroke-miterlimit:10;}
	.st13{fill:#211F1F;}
	.st14{font-family:'CourierNewPSMT';}
	.st15{font-size:12px;}
	.st16{fill:none;stroke:#211F1F;stroke-width:0.25;stroke-miterlimit:10;}
	.st17{fill:#211F1F;stroke:#211F1F;stroke-width:0.25;stroke-miterlimit:10;}
	.st18{fill:#FFFFFF;stroke:#211F1F;stroke-width:0.25;stroke-miterlimit:10;}
	.st19{fill:none;stroke:#B9BBBD;stroke-width:0.25;stroke-miterlimit:10;}
	.st20{fill:#FBF7D5;stroke:#211F1F;stroke-width:0.25;stroke-miterlimit:10;}
</style>
<rect x="177.5" y="249.7" class="st0" width="86.8" height="27"/>
<rect x="410.5" y="-452" class="st1" width="160.3" height="179.3"/>
<rect x="410.5" y="-423.7" class="st2" width="160.3" height="102.3"/>
<rect x="-55.9" y="-509.5" class="st3" width="128.6" height="27"/>
<text transform="matrix(1 0 0 1 -48.3906 -492.9998)" class="st4 st14 st15">Interrupt Vector</text>
<circle class="st5" cx="90.6" cy="-453.7" r="13.7"/>
<rect x="89.8" y="-457.9" class="st6" width="1.5" height="8.4"/>
<rect x="89.8" y="-457.9" transform="matrix(-0.5003 0.8658 -0.8658 -0.5003 -256.926 -759.1919)" class="st6" width="1.5" height="8.4"/>
<polygon class="st6" points="79.2,-462.8 78.8,-466.8 75.2,-463.1 "/>
<line class="st5" x1="65.5" y1="-476.5" x2="78.9" y2="-463.1"/>
<text transform="matrix(1 0 0 1 12.0524 -427.6965)" class="st4 st14 st15">4</text>
<polygon class="st6" points="94.3,-456.4 95,-455 87.4,-450.9 86.6,-452.3 "/>
<polygon class="st6" points="79.1,-444.8 75,-444.5 78.7,-440.8 "/>
<line class="st5" x1="65.4" y1="-431.2" x2="78.8" y2="-444.5"/>
<line class="st5" x1="65.4" y1="-431.2" x2="24.3" y2="-431.2"/>
<rect x="-54.9" y="-285.9" class="st0" width="138.2" height="27"/>
<text transform="matrix(1 0 0 1 -44.6689 -269.3989)" class="st4 st14 st15">IDT Base Address</text>
<ellipse class="st5" cx="140.1" cy="-384" rx="13.2" ry="13.7"/>
<rect x="139.4" y="-388.2" class="st6" width="1.5" height="8.4"/>
<rect x="136.1" y="-384.8" class="st6" width="8.1" height="1.5"/>
<polygon class="st6" points="140.1,-397.8 142.7,-404.3 137.5,-404.3 "/>
<line class="st5" x1="100.9" y1="-272.4" x2="100.9" y2="-383.1"/>
<line class="st5" x1="181.7" y1="-272.4" x2="84.8" y2="-272.4"/>
<rect x="180.5" y="-452" class="st5" width="160.3" height="179.3"/>
<polygon class="st6" points="179.2,-272.4 172.8,-275 172.8,-269.8 "/>
<line class="st5" x1="410.1" y1="-321.3" x2="357.1" y2="-321.3"/>
<line class="st5" x1="357.1" y1="-321.3" x2="357.1" y2="-394.8"/>
<line class="st5" x1="393.6" y1="-367.8" x2="340.8" y2="-367.8"/>
<polygon class="st6" points="410.5,-321.3 404.1,-323.9 404.1,-318.7 "/>
<line class="st5" x1="409.8" y1="-337.8" x2="393.4" y2="-337.8"/>
<polygon class="st6" points="410.3,-337.8 403.8,-340.4 403.8,-335.2 "/>
<line class="st5" x1="340.8" y1="-394.8" x2="357.1" y2="-394.8"/>
<line class="st5" x1="393.6" y1="-367.8" x2="393.6" y2="-337.8"/>
<rect x="410.5" y="-423.7" class="st5" width="160.3" height="102.3"/>
<rect x="410.5" y="-364.8" class="st5" width="160.3" height="27"/>
<text transform="matrix(1 0 0 1 251.8273 -392.4772)" class="st4 st14 st15">CS</text>
<text transform="matrix(1 0 0 1 237.4249 -364.4772)" class="st4 st14 st15">Offset</text>
<polygon class="st6" points="180.8,-354.3 174.3,-356.9 174.3,-351.7 "/>
<line class="st5" x1="180.5" y1="-408.3" x2="340.8" y2="-408.3"/>
<line class="st5" x1="180.5" y1="-354.3" x2="340.8" y2="-354.3"/>
<line class="st7" x1="180.5" y1="-381.3" x2="340.8" y2="-381.3"/>
<text transform="matrix(1 0 0 1 427.8185 -349.4772)" class="st4 st14 st15">Interrupt Handler</text>
<text transform="matrix(1 0 0 1 187.0167 -482.4772)"><tspan x="0" y="0" class="st4 st14 st15">Interrupt-Desctiptor</tspan><tspan x="54" y="14.4" class="st4 st14 st15">Table</tspan></text>
<text transform="matrix(1 0 0 1 435.0197 -482.4772)"><tspan x="0" y="0" class="st4 st14 st15">Virtual Address</tspan><tspan x="36" y="14.4" class="st4 st14 st15">Space</tspan></text>
<polygon class="st6" points="125.7,-383.1 119.3,-385.7 119.3,-380.5 "/>
<line class="st5" x1="100.9" y1="-383.1" x2="124.9" y2="-383.1"/>
<line class="st5" x1="140.1" y1="-453.7" x2="140.1" y2="-397.7"/>
<line class="st5" x1="140.1" y1="-370.3" x2="140.1" y2="-354.3"/>
<line class="st5" x1="140.1" y1="-354.3" x2="180.5" y2="-354.3"/>
<line class="st5" x1="17.1" y1="-258.9" x2="17.1" y2="-217.8"/>
<line class="st5" x1="140.1" y1="-453.7" x2="104.3" y2="-453.7"/>
<line class="st5" x1="-34.8" y1="-217.8" x2="17.1" y2="-217.8"/>
<polygon class="st6" points="17.1,-258.1 14.5,-251.6 19.7,-251.6 "/>
<g>
	<rect x="-47.2" y="-224.3" class="st0" width="42.5" height="12.9"/>
	<line class="st5" x1="-25.9" y1="-225.6" x2="-25.9" y2="-224.3"/>
	<line class="st5" x1="-22.9" y1="-225.6" x2="-22.9" y2="-224.3"/>
	<line class="st5" x1="-19.9" y1="-225.6" x2="-19.9" y2="-224.3"/>
	<line class="st5" x1="-16.9" y1="-225.6" x2="-16.9" y2="-224.3"/>
	<line class="st5" x1="-13.9" y1="-225.6" x2="-13.9" y2="-224.3"/>
	<line class="st5" x1="-10.9" y1="-225.6" x2="-10.9" y2="-224.3"/>
	<line class="st5" x1="-40.9" y1="-225.6" x2="-40.9" y2="-224.3"/>
	<line class="st5" x1="-37.9" y1="-225.6" x2="-37.9" y2="-224.3"/>
	<line class="st5" x1="-34.9" y1="-225.6" x2="-34.9" y2="-224.3"/>
	<line class="st5" x1="-31.9" y1="-225.6" x2="-31.9" y2="-224.3"/>
	<line class="st5" x1="-28.9" y1="-225.6" x2="-28.9" y2="-224.3"/>
	<line class="st5" x1="-25.9" y1="-211.4" x2="-25.9" y2="-210"/>
	<line class="st5" x1="-22.9" y1="-211.4" x2="-22.9" y2="-210"/>
	<line class="st5" x1="-19.9" y1="-211.4" x2="-19.9" y2="-210"/>
	<line class="st5" x1="-16.9" y1="-211.4" x2="-16.9" y2="-210"/>
	<line class="st5" x1="-13.9" y1="-211.4" x2="-13.9" y2="-210"/>
	<line class="st5" x1="-10.9" y1="-211.4" x2="-10.9" y2="-210"/>
	<line class="st5" x1="-40.9" y1="-211.4" x2="-40.9" y2="-210"/>
	<line class="st5" x1="-37.9" y1="-211.4" x2="-37.9" y2="-210"/>
	<line class="st5" x1="-34.9" y1="-211.4" x2="-34.9" y2="-210"/>
	<line class="st5" x1="-31.9" y1="-211.4" x2="-31.9" y2="-210"/>
	<line class="st5" x1="-28.9" y1="-211.4" x2="-28.9" y2="-210"/>
	<line class="st5" x1="-43.9" y1="-225.6" x2="-43.9" y2="-224.3"/>
	<line class="st5" x1="-7.9" y1="-225.6" x2="-7.9" y2="-224.3"/>
	<line class="st5" x1="-7.9" y1="-211.4" x2="-7.9" y2="-210"/>
	<line class="st5" x1="-43.9" y1="-211.4" x2="-43.9" y2="-210"/>
	<rect x="-47.2" y="-224.3" class="st8" width="27.4" height="12.9"/>
	<text transform="matrix(1 0 0 1 -40.2852 -214.5006)" class="st4 st14 st15">IDTR</text>
</g>
<line class="st5" x1="8.5" y1="-476.5" x2="8.4" y2="-482.5"/>
<line class="st5" x1="8.5" y1="-476.5" x2="65.5" y2="-476.5"/>
<rect x="1222.5" y="-452" class="st1" width="160.3" height="179.3"/>
<rect x="1222.5" y="-423.7" class="st2" width="160.3" height="102.3"/>
<rect x="756.1" y="-509.5" class="st3" width="128.6" height="27"/>
<text transform="matrix(1 0 0 1 763.6094 -492.9998)" class="st4 st14 st15">Interrupt Vector</text>
<circle class="st5" cx="902.6" cy="-453.7" r="13.7"/>
<rect x="901.8" y="-457.9" class="st6" width="1.5" height="8.4"/>
<rect x="901.8" y="-457.9" transform="matrix(-0.5003 0.8658 -0.8658 -0.5003 961.3249 -1462.2596)" class="st6" width="1.5" height="8.4"/>
<polygon class="st6" points="891.2,-462.8 890.8,-466.8 887.2,-463.1 "/>
<line class="st5" x1="877.5" y1="-476.5" x2="890.9" y2="-463.1"/>
<text transform="matrix(1 0 0 1 824.0524 -427.6965)" class="st4 st14 st15">8</text>
<polygon class="st6" points="906.3,-456.4 907,-455 899.4,-450.9 898.6,-452.3 "/>
<polygon class="st6" points="891.1,-444.8 887,-444.5 890.7,-440.8 "/>
<line class="st5" x1="877.4" y1="-431.2" x2="890.8" y2="-444.5"/>
<line class="st5" x1="877.4" y1="-431.2" x2="836.3" y2="-431.2"/>
<rect x="757.1" y="-285.9" class="st9" width="138.2" height="27"/>
<text transform="matrix(1 0 0 1 767.3311 -269.3989)" class="st4 st14 st15">IDT Base Address</text>
<ellipse class="st5" cx="952.1" cy="-384" rx="13.2" ry="13.7"/>
<rect x="951.4" y="-388.2" class="st6" width="1.5" height="8.4"/>
<rect x="948.1" y="-384.8" class="st6" width="8.1" height="1.5"/>
<polygon class="st6" points="952.1,-397.8 954.7,-404.3 949.5,-404.3 "/>
<line class="st5" x1="912.9" y1="-272.4" x2="912.9" y2="-383.1"/>
<line class="st5" x1="993.7" y1="-272.4" x2="896.8" y2="-272.4"/>
<rect x="992.5" y="-452" class="st5" width="160.3" height="179.3"/>
<polygon class="st6" points="991.2,-272.4 984.8,-275 984.8,-269.8 "/>
<line class="st5" x1="1222.1" y1="-321.3" x2="1169.1" y2="-321.3"/>
<line class="st5" x1="1169.1" y1="-321.3" x2="1169.1" y2="-394.8"/>
<line class="st5" x1="1205.6" y1="-367.8" x2="1152.8" y2="-367.8"/>
<polygon class="st6" points="1222.5,-321.3 1216.1,-323.9 1216.1,-318.7 "/>
<line class="st5" x1="1221.8" y1="-337.8" x2="1205.4" y2="-337.8"/>
<polygon class="st6" points="1222.3,-337.8 1215.8,-340.4 1215.8,-335.2 "/>
<line class="st5" x1="1152.8" y1="-394.8" x2="1169.1" y2="-394.8"/>
<line class="st5" x1="1205.6" y1="-367.8" x2="1205.6" y2="-337.8"/>
<rect x="1222.5" y="-423.7" class="st5" width="160.3" height="102.3"/>
<rect x="1222.5" y="-364.8" class="st5" width="160.3" height="27"/>
<polygon class="st6" points="992.8,-354.3 986.3,-356.9 986.3,-351.7 "/>
<line class="st5" x1="992.5" y1="-408.3" x2="1152.8" y2="-408.3"/>
<line class="st5" x1="992.5" y1="-354.3" x2="1152.8" y2="-354.3"/>
<line class="st7" x1="992.5" y1="-381.3" x2="1152.8" y2="-381.3"/>
<text transform="matrix(1 0 0 1 1239.8185 -349.4772)" class="st4 st14 st15">Interrupt Handler</text>
<text transform="matrix(1 0 0 1 999.0167 -482.4772)"><tspan x="0" y="0" class="st4 st14 st15">Interrupt-Desctiptor</tspan><tspan x="54" y="14.4" class="st4 st14 st15">Table</tspan></text>
<text transform="matrix(1 0 0 1 1247.0197 -482.4772)"><tspan x="0" y="0" class="st4 st14 st15">Virtual Address</tspan><tspan x="36" y="14.4" class="st4 st14 st15">Space</tspan></text>
<polygon class="st6" points="937.7,-383.1 931.3,-385.7 931.3,-380.5 "/>
<line class="st5" x1="912.9" y1="-383.1" x2="936.9" y2="-383.1"/>
<line class="st5" x1="952.1" y1="-453.7" x2="952.1" y2="-397.7"/>
<line class="st5" x1="952.1" y1="-370.3" x2="952.1" y2="-354.3"/>
<line class="st5" x1="952.1" y1="-354.3" x2="992.5" y2="-354.3"/>
<line class="st5" x1="829.1" y1="-258.9" x2="829.1" y2="-217.8"/>
<line class="st5" x1="952.1" y1="-453.7" x2="916.3" y2="-453.7"/>
<line class="st5" x1="777.2" y1="-217.8" x2="829.1" y2="-217.8"/>
<polygon class="st6" points="829.1,-258.1 826.5,-251.6 831.7,-251.6 "/>
<g>
	<rect x="764.8" y="-224.3" class="st0" width="42.5" height="12.9"/>
	<line class="st5" x1="786.1" y1="-225.6" x2="786.1" y2="-224.3"/>
	<line class="st5" x1="789.1" y1="-225.6" x2="789.1" y2="-224.3"/>
	<line class="st5" x1="792.1" y1="-225.6" x2="792.1" y2="-224.3"/>
	<line class="st5" x1="795.1" y1="-225.6" x2="795.1" y2="-224.3"/>
	<line class="st5" x1="798.1" y1="-225.6" x2="798.1" y2="-224.3"/>
	<line class="st5" x1="801.1" y1="-225.6" x2="801.1" y2="-224.3"/>
	<line class="st5" x1="771.1" y1="-225.6" x2="771.1" y2="-224.3"/>
	<line class="st5" x1="774.1" y1="-225.6" x2="774.1" y2="-224.3"/>
	<line class="st5" x1="777.1" y1="-225.6" x2="777.1" y2="-224.3"/>
	<line class="st5" x1="780.1" y1="-225.6" x2="780.1" y2="-224.3"/>
	<line class="st5" x1="783.1" y1="-225.6" x2="783.1" y2="-224.3"/>
	<line class="st5" x1="786.1" y1="-211.4" x2="786.1" y2="-210"/>
	<line class="st5" x1="789.1" y1="-211.4" x2="789.1" y2="-210"/>
	<line class="st5" x1="792.1" y1="-211.4" x2="792.1" y2="-210"/>
	<line class="st5" x1="795.1" y1="-211.4" x2="795.1" y2="-210"/>
	<line class="st5" x1="798.1" y1="-211.4" x2="798.1" y2="-210"/>
	<line class="st5" x1="801.1" y1="-211.4" x2="801.1" y2="-210"/>
	<line class="st5" x1="771.1" y1="-211.4" x2="771.1" y2="-210"/>
	<line class="st5" x1="774.1" y1="-211.4" x2="774.1" y2="-210"/>
	<line class="st5" x1="777.1" y1="-211.4" x2="777.1" y2="-210"/>
	<line class="st5" x1="780.1" y1="-211.4" x2="780.1" y2="-210"/>
	<line class="st5" x1="783.1" y1="-211.4" x2="783.1" y2="-210"/>
	<line class="st5" x1="768.1" y1="-225.6" x2="768.1" y2="-224.3"/>
	<line class="st5" x1="804.1" y1="-225.6" x2="804.1" y2="-224.3"/>
	<line class="st5" x1="804.1" y1="-211.4" x2="804.1" y2="-210"/>
	<line class="st5" x1="768.1" y1="-211.4" x2="768.1" y2="-210"/>
	<rect x="764.8" y="-224.3" class="st8" width="27.4" height="12.9"/>
	<text transform="matrix(1 0 0 1 771.7148 -214.5006)" class="st4 st14 st15">IDTR</text>
</g>
<line class="st5" x1="820.5" y1="-476.5" x2="820.4" y2="-482.5"/>
<line class="st5" x1="820.5" y1="-476.5" x2="877.5" y2="-476.5"/>
<rect x="177.5" y="222.7" class="st10" width="160.3" height="27"/>
<rect x="407.5" y="179" class="st11" width="160.3" height="305.2"/>
<rect x="-58.9" y="121.5" class="st12" width="128.6" height="27"/>
<text transform="matrix(1 0 0 1 -51.3906 138.0002)" class="st13 st14 st15">Interrupt Vector</text>
<circle class="st16" cx="87.6" cy="177.3" r="13.7"/>
<rect x="86.8" y="173.1" class="st17" width="1.5" height="8.4"/>
<rect x="86.8" y="173.1" transform="matrix(-0.5003 0.8658 -0.8658 -0.5003 284.9225 190.1006)" class="st17" width="1.5" height="8.4"/>
<polygon class="st17" points="76.2,168.2 75.8,164.2 72.2,167.9 "/>
<line class="st16" x1="62.5" y1="154.5" x2="75.9" y2="167.9"/>
<text transform="matrix(1 0 0 1 5.4518 203.3035)" class="st13 st14 st15">16</text>
<polygon class="st17" points="91.3,174.6 92,176 84.4,180.1 83.6,178.7 "/>
<polygon class="st17" points="76.1,186.2 72,186.5 75.7,190.2 "/>
<line class="st16" x1="62.4" y1="199.8" x2="75.8" y2="186.5"/>
<line class="st16" x1="62.4" y1="199.8" x2="21.3" y2="199.8"/>
<rect x="-57.9" y="345.1" class="st10" width="138.2" height="27"/>
<text transform="matrix(1 0 0 1 -47.6689 361.6011)" class="st13 st14 st15">IDT Base Address</text>
<ellipse class="st16" cx="137.1" cy="247" rx="13.2" ry="13.7"/>
<rect x="136.4" y="242.8" class="st17" width="1.5" height="8.4"/>
<rect x="133.1" y="246.2" class="st17" width="8.1" height="1.5"/>
<polygon class="st17" points="137.1,233.2 139.7,226.7 134.5,226.7 "/>
<line class="st16" x1="97.9" y1="358.6" x2="97.9" y2="247.9"/>
<line class="st16" x1="178.7" y1="358.6" x2="81.8" y2="358.6"/>
<rect x="177.5" y="179.3" class="st16" width="160.3" height="179.3"/>
<polygon class="st17" points="177.5,358.6 171.1,356 171.1,361.2 "/>
<line class="st16" x1="406.8" y1="293.2" x2="390.4" y2="293.2"/>
<polygon class="st17" points="407.3,293.2 400.8,290.6 400.8,295.8 "/>
<line class="st16" x1="390.6" y1="236.2" x2="390.6" y2="293.2"/>
<rect x="407.5" y="266.2" class="st18" width="160.3" height="27"/>
<polygon class="st17" points="177.8,276.7 171.3,274.1 171.3,279.3 "/>
<line class="st16" x1="177.5" y1="222.7" x2="337.8" y2="222.7"/>
<line class="st16" x1="177.5" y1="276.7" x2="337.8" y2="276.7"/>
<line class="st19" x1="177.5" y1="249.7" x2="337.8" y2="249.7"/>
<text transform="matrix(1 0 0 1 424.8185 281.5228)" class="st13 st14 st15">Interrupt Handler</text>
<text transform="matrix(1 0 0 1 184.0167 148.5228)"><tspan x="0" y="0" class="st13 st14 st15">Interrupt-Desctiptor</tspan><tspan x="54" y="14.4" class="st13 st14 st15">Table</tspan></text>
<text transform="matrix(1 0 0 1 432.0197 148.5228)"><tspan x="0" y="0" class="st13 st14 st15">Virtual Address</tspan><tspan x="36" y="14.4" class="st13 st14 st15">Space</tspan></text>
<polygon class="st17" points="122.7,247.9 116.3,245.3 116.3,250.5 "/>
<line class="st16" x1="97.9" y1="247.9" x2="121.9" y2="247.9"/>
<line class="st16" x1="137.1" y1="177.3" x2="137.1" y2="233.3"/>
<line class="st16" x1="137.1" y1="260.7" x2="137.1" y2="276.7"/>
<line class="st16" x1="137.1" y1="276.7" x2="177.5" y2="276.7"/>
<line class="st16" x1="14.1" y1="372.1" x2="14.1" y2="413.2"/>
<line class="st16" x1="137.1" y1="177.3" x2="101.3" y2="177.3"/>
<line class="st16" x1="-37.8" y1="413.2" x2="14.1" y2="413.2"/>
<polygon class="st17" points="14.1,372.9 11.5,379.4 16.7,379.4 "/>
<g>
	<rect x="-50.2" y="406.7" class="st20" width="42.5" height="12.9"/>
	<line class="st16" x1="-28.9" y1="405.4" x2="-28.9" y2="406.7"/>
	<line class="st16" x1="-25.9" y1="405.4" x2="-25.9" y2="406.7"/>
	<line class="st16" x1="-22.9" y1="405.4" x2="-22.9" y2="406.7"/>
	<line class="st16" x1="-19.9" y1="405.4" x2="-19.9" y2="406.7"/>
	<line class="st16" x1="-16.9" y1="405.4" x2="-16.9" y2="406.7"/>
	<line class="st16" x1="-13.9" y1="405.4" x2="-13.9" y2="406.7"/>
	<line class="st16" x1="-43.9" y1="405.4" x2="-43.9" y2="406.7"/>
	<line class="st16" x1="-40.9" y1="405.4" x2="-40.9" y2="406.7"/>
	<line class="st16" x1="-37.9" y1="405.4" x2="-37.9" y2="406.7"/>
	<line class="st16" x1="-34.9" y1="405.4" x2="-34.9" y2="406.7"/>
	<line class="st16" x1="-31.9" y1="405.4" x2="-31.9" y2="406.7"/>
	<line class="st16" x1="-28.9" y1="419.6" x2="-28.9" y2="421"/>
	<line class="st16" x1="-25.9" y1="419.6" x2="-25.9" y2="421"/>
	<line class="st16" x1="-22.9" y1="419.6" x2="-22.9" y2="421"/>
	<line class="st16" x1="-19.9" y1="419.6" x2="-19.9" y2="421"/>
	<line class="st16" x1="-16.9" y1="419.6" x2="-16.9" y2="421"/>
	<line class="st16" x1="-13.9" y1="419.6" x2="-13.9" y2="421"/>
	<line class="st16" x1="-43.9" y1="419.6" x2="-43.9" y2="421"/>
	<line class="st16" x1="-40.9" y1="419.6" x2="-40.9" y2="421"/>
	<line class="st16" x1="-37.9" y1="419.6" x2="-37.9" y2="421"/>
	<line class="st16" x1="-34.9" y1="419.6" x2="-34.9" y2="421"/>
	<line class="st16" x1="-31.9" y1="419.6" x2="-31.9" y2="421"/>
	<line class="st16" x1="-46.9" y1="405.4" x2="-46.9" y2="406.7"/>
	<line class="st16" x1="-10.9" y1="405.4" x2="-10.9" y2="406.7"/>
	<line class="st16" x1="-10.9" y1="419.6" x2="-10.9" y2="421"/>
	<line class="st16" x1="-46.9" y1="419.6" x2="-46.9" y2="421"/>
	<rect x="-50.2" y="406.7" class="st10" width="27.4" height="12.9"/>
	<text transform="matrix(1 0 0 1 -43.2852 416.4994)" class="st13 st14 st15">IDTR</text>
</g>
<line class="st16" x1="5.5" y1="154.5" x2="5.4" y2="148.5"/>
<line class="st16" x1="5.5" y1="154.5" x2="62.5" y2="154.5"/>
<text transform="matrix(1 0 0 1 189.2424 240.1895)" class="st13 st14 st15">Code Segment Offset</text>
<text transform="matrix(1 0 0 1 182.0471 266.1895)" class="st13 st14 st15">CS Selector</text>
<line class="st16" x1="264.3" y1="249.7" x2="264.3" y2="276.7"/>
<text transform="matrix(1 0 0 1 267.8518 266.1895)" class="st13 st14 st15">DPL</text>
<line class="st16" x1="293.3" y1="249.7" x2="293.3" y2="276.7"/>
<line class="st16" x1="390.6" y1="236.2" x2="337.8" y2="236.2"/>
</svg>
