<?xml version="1.0" encoding="utf-8"?>
<!-- Generator: Adobe Illustrator 19.1.0, SVG Export Plug-In . SVG Version: 6.00 Build 0)  -->
<svg version="1.1" id="Layer_1" xmlns="http://www.w3.org/2000/svg" xmlns:xlink="http://www.w3.org/1999/xlink" x="0px" y="0px"
	 viewBox="-71 139.3 647.5 395" style="enable-background:new -71 139.3 647.5 395;" xml:space="preserve">
<style type="text/css">
	.st0{fill:none;stroke:#231F20;stroke-width:0.25;stroke-miterlimit:10;}
	.st1{fill:#BBBDBF;}
	.st2{fill:#FFFFFF;stroke:#231F20;stroke-width:0.25;stroke-miterlimit:10;}
	.st3{fill:#F49CB1;stroke:#231F20;stroke-width:0.25;stroke-miterlimit:10;}
	.st4{fill:#BBBDBF;stroke:#231F20;stroke-width:0.25;stroke-miterlimit:10;}
	.st5{fill:#231F20;}
	.st6{font-family:'CourierNewPSMT';}
	.st7{font-size:7px;}
	.st8{font-size:8px;}
	.st9{font-family:'CourierNewPS-BoldMT';}
	.st10{fill:none;stroke:#231F20;stroke-width:0.5;stroke-miterlimit:10;}
	.st11{font-size:12px;}
</style>
<line class="st0" x1="85.7" y1="323.3" x2="104.2" y2="323.3"/>
<rect x="112.2" y="478.6" class="st1" width="240.7" height="10"/>
<rect x="112.2" y="458.6" class="st1" width="240.7" height="10"/>
<rect x="112.2" y="498.6" class="st1" width="240.7" height="10"/>
<line class="st0" x1="421.2" y1="197.2" x2="421.2" y2="226.6"/>
<line class="st0" x1="433.2" y1="197.2" x2="433.2" y2="226.6"/>
<line class="st0" x1="445.2" y1="197.2" x2="445.2" y2="226.6"/>
<line class="st0" x1="457.2" y1="197.2" x2="457.2" y2="226.6"/>
<line class="st0" x1="469.2" y1="197.2" x2="469.2" y2="226.6"/>
<line class="st0" x1="481.2" y1="197.2" x2="481.2" y2="226.6"/>
<line class="st0" x1="108.2" y1="197.2" x2="108.2" y2="226.6"/>
<line class="st0" x1="120.2" y1="197.2" x2="120.2" y2="226.6"/>
<line class="st0" x1="132.2" y1="197.2" x2="132.2" y2="226.6"/>
<line class="st0" x1="144.2" y1="197.2" x2="144.2" y2="226.6"/>
<line class="st0" x1="156.2" y1="197.2" x2="156.2" y2="226.6"/>
<line class="st0" x1="168.2" y1="197.2" x2="168.2" y2="226.6"/>
<line class="st0" x1="180.2" y1="197.2" x2="180.2" y2="226.6"/>
<line class="st0" x1="192.2" y1="197.2" x2="192.2" y2="226.6"/>
<line class="st0" x1="204.2" y1="197.2" x2="204.2" y2="226.6"/>
<line class="st0" x1="216.2" y1="197.2" x2="216.2" y2="226.6"/>
<line class="st0" x1="228.2" y1="197.2" x2="228.2" y2="226.6"/>
<line class="st0" x1="240.2" y1="197.2" x2="240.2" y2="226.6"/>
<line class="st0" x1="252.2" y1="197.2" x2="252.2" y2="226.6"/>
<line class="st0" x1="264.2" y1="197.2" x2="264.2" y2="226.6"/>
<line class="st0" x1="276.2" y1="197.2" x2="276.2" y2="226.6"/>
<line class="st0" x1="288.2" y1="197.2" x2="288.2" y2="226.6"/>
<line class="st0" x1="300.2" y1="197.2" x2="300.2" y2="226.6"/>
<line class="st0" x1="312.2" y1="197.2" x2="312.2" y2="226.6"/>
<line class="st0" x1="324.2" y1="197.2" x2="324.2" y2="226.6"/>
<line class="st0" x1="336.2" y1="197.2" x2="336.2" y2="226.6"/>
<line class="st0" x1="348.2" y1="197.2" x2="348.2" y2="226.6"/>
<line class="st0" x1="360.2" y1="197.2" x2="360.2" y2="226.6"/>
<line class="st0" x1="372.2" y1="197.2" x2="372.2" y2="226.6"/>
<line class="st0" x1="384.2" y1="197.2" x2="384.2" y2="226.6"/>
<line class="st0" x1="396.2" y1="197.2" x2="396.2" y2="226.6"/>
<line class="st0" x1="408.2" y1="197.2" x2="408.2" y2="226.6"/>
<line class="st0" x1="493.2" y1="197.2" x2="493.2" y2="226.6"/>
<rect x="108.2" y="197.2" class="st2" width="12" height="29.3"/>
<rect x="120.2" y="197.2" class="st2" width="12" height="29.3"/>
<rect x="132.2" y="197.2" class="st2" width="12" height="29.3"/>
<rect x="144.2" y="197.2" class="st2" width="12" height="29.3"/>
<rect x="156.2" y="197.2" class="st2" width="12" height="29.3"/>
<rect x="168.2" y="197.2" class="st2" width="12" height="29.3"/>
<rect x="180.2" y="197.2" class="st2" width="12" height="29.3"/>
<rect x="192.2" y="197.2" class="st2" width="12" height="29.3"/>
<rect x="204.2" y="197.2" class="st2" width="12" height="29.3"/>
<rect x="216.2" y="197.2" class="st2" width="12" height="29.3"/>
<rect x="228.2" y="197.2" class="st3" width="12" height="29.3"/>
<rect x="240.2" y="197.2" class="st3" width="12" height="29.3"/>
<rect x="252.2" y="197.2" class="st3" width="12" height="29.3"/>
<rect x="264.2" y="197.2" class="st3" width="12" height="29.3"/>
<rect x="276.2" y="197.2" class="st3" width="12" height="29.3"/>
<rect x="288.2" y="197.2" class="st3" width="12" height="29.3"/>
<rect x="300.2" y="197.2" class="st4" width="12" height="29.3"/>
<rect x="312.2" y="197.2" class="st3" width="12" height="29.3"/>
<rect x="324.2" y="197.2" class="st2" width="12" height="29.3"/>
<rect x="336.2" y="197.2" class="st2" width="12" height="29.3"/>
<rect x="348.2" y="197.2" class="st3" width="12" height="29.3"/>
<rect x="360.2" y="197.2" class="st3" width="12" height="29.3"/>
<rect x="372.2" y="197.2" class="st3" width="12" height="29.3"/>
<rect x="384.2" y="197.2" class="st3" width="12" height="29.3"/>
<rect x="396.2" y="197.2" class="st3" width="12" height="29.3"/>
<rect x="408.2" y="197.2" class="st3" width="13" height="29.3"/>
<rect x="421.2" y="197.2" class="st4" width="12" height="29.3"/>
<rect x="433.2" y="197.2" class="st3" width="12" height="29.3"/>
<rect x="445.2" y="197.2" class="st4" width="12" height="29.3"/>
<rect x="457.2" y="197.2" class="st3" width="12" height="29.3"/>
<rect x="469.2" y="197.2" class="st4" width="12" height="29.3"/>
<rect x="481.2" y="197.2" class="st3" width="12" height="29.3"/>
<line class="st0" x1="108.2" y1="197.2" x2="493.2" y2="197.2"/>
<line class="st0" x1="108.2" y1="226.6" x2="493.2" y2="226.6"/>
<text transform="matrix(1 0 0 1 484.1538 195.8775)" class="st5 st6 st7">0</text>
<text transform="matrix(1 0 0 1 472.1538 195.8775)" class="st5 st6 st7">1</text>
<text transform="matrix(1 0 0 1 460.1538 195.8775)" class="st5 st6 st7">2</text>
<text transform="matrix(1 0 0 1 448.1538 195.8775)" class="st5 st6 st7">3</text>
<text transform="matrix(1 0 0 1 436.1538 195.8775)" class="st5 st6 st7">4</text>
<text transform="matrix(1 0 0 1 424.1538 195.8775)" class="st5 st6 st7">5</text>
<text transform="matrix(1 0 0 1 412.1538 195.8775)" class="st5 st6 st7">6</text>
<text transform="matrix(1 0 0 1 400.1538 195.8775)" class="st5 st6 st7">7</text>
<text transform="matrix(1 0 0 1 388.1538 195.8775)" class="st5 st6 st7">8</text>
<text transform="matrix(1 0 0 1 376.1538 195.8775)" class="st5 st6 st7">9</text>
<text transform="matrix(1 0 0 1 361.9536 195.8775)" class="st5 st6 st7">10</text>
<text transform="matrix(1 0 0 1 349.9536 195.8775)" class="st5 st6 st7">11</text>
<text transform="matrix(1 0 0 1 337.9536 195.8775)" class="st5 st6 st7">12</text>
<text transform="matrix(1 0 0 1 325.9536 195.8775)" class="st5 st6 st7">13</text>
<text transform="matrix(1 0 0 1 313.9536 195.8775)" class="st5 st6 st7">14</text>
<text transform="matrix(1 0 0 1 301.9536 195.8775)" class="st5 st6 st7">15</text>
<text transform="matrix(1 0 0 1 289.9536 195.8775)" class="st5 st6 st7">16</text>
<text transform="matrix(1 0 0 1 277.9536 195.8775)" class="st5 st6 st7">17</text>
<text transform="matrix(1 0 0 1 265.9536 195.8775)" class="st5 st6 st7">18</text>
<text transform="matrix(1 0 0 1 253.9536 195.8775)" class="st5 st6 st7">19</text>
<text transform="matrix(1 0 0 1 241.9536 195.8775)" class="st5 st6 st7">20</text>
<text transform="matrix(1 0 0 1 229.9536 195.8775)" class="st5 st6 st7">21</text>
<text transform="matrix(1 0 0 1 217.9536 195.8775)" class="st5 st6 st7">22</text>
<text transform="matrix(1 0 0 1 109.9536 195.8775)" class="st5 st6 st7">31</text>
<text transform="matrix(1 0 0 1 484.1538 155.8775)" class="st5 st6 st7">32</text>
<text transform="matrix(1 0 0 1 109.9536 155.8775)" class="st5 st6 st7">63</text>
<line class="st0" x1="421.2" y1="157.2" x2="421.2" y2="186.6"/>
<line class="st0" x1="433.2" y1="157.2" x2="433.2" y2="186.6"/>
<line class="st0" x1="445.2" y1="157.2" x2="445.2" y2="186.6"/>
<line class="st0" x1="457.2" y1="157.2" x2="457.2" y2="186.6"/>
<line class="st0" x1="469.2" y1="157.2" x2="469.2" y2="186.6"/>
<line class="st0" x1="481.2" y1="157.2" x2="481.2" y2="186.6"/>
<line class="st0" x1="108.2" y1="157.2" x2="108.2" y2="186.6"/>
<line class="st0" x1="120.2" y1="157.2" x2="120.2" y2="186.6"/>
<line class="st0" x1="132.2" y1="157.2" x2="132.2" y2="186.6"/>
<line class="st0" x1="144.2" y1="157.2" x2="144.2" y2="186.6"/>
<line class="st0" x1="156.2" y1="157.2" x2="156.2" y2="186.6"/>
<line class="st0" x1="168.2" y1="157.2" x2="168.2" y2="186.6"/>
<line class="st0" x1="180.2" y1="157.2" x2="180.2" y2="186.6"/>
<line class="st0" x1="192.2" y1="157.2" x2="192.2" y2="186.6"/>
<line class="st0" x1="204.2" y1="157.2" x2="204.2" y2="186.6"/>
<line class="st0" x1="216.2" y1="157.2" x2="216.2" y2="186.6"/>
<line class="st0" x1="228.2" y1="157.2" x2="228.2" y2="186.6"/>
<line class="st0" x1="240.2" y1="157.2" x2="240.2" y2="186.6"/>
<line class="st0" x1="252.2" y1="157.2" x2="252.2" y2="186.6"/>
<line class="st0" x1="264.2" y1="157.2" x2="264.2" y2="186.6"/>
<line class="st0" x1="276.2" y1="157.2" x2="276.2" y2="186.6"/>
<line class="st0" x1="288.2" y1="157.2" x2="288.2" y2="186.6"/>
<line class="st0" x1="300.2" y1="157.2" x2="300.2" y2="186.6"/>
<line class="st0" x1="312.2" y1="157.2" x2="312.2" y2="186.6"/>
<line class="st0" x1="324.2" y1="157.2" x2="324.2" y2="186.6"/>
<line class="st0" x1="336.2" y1="157.2" x2="336.2" y2="186.6"/>
<line class="st0" x1="348.2" y1="157.2" x2="348.2" y2="186.6"/>
<line class="st0" x1="360.2" y1="157.2" x2="360.2" y2="186.6"/>
<line class="st0" x1="372.2" y1="157.2" x2="372.2" y2="186.6"/>
<line class="st0" x1="384.2" y1="157.2" x2="384.2" y2="186.6"/>
<line class="st0" x1="396.2" y1="157.2" x2="396.2" y2="186.6"/>
<line class="st0" x1="408.2" y1="157.2" x2="408.2" y2="186.6"/>
<line class="st0" x1="493.2" y1="157.2" x2="493.2" y2="186.6"/>
<rect x="108.2" y="157.2" class="st2" width="12" height="29.3"/>
<rect x="120.2" y="157.2" class="st2" width="12" height="29.3"/>
<rect x="132.2" y="157.2" class="st2" width="12" height="29.3"/>
<rect x="144.2" y="157.2" class="st2" width="12" height="29.3"/>
<rect x="156.2" y="157.2" class="st2" width="12" height="29.3"/>
<rect x="168.2" y="157.2" class="st2" width="12" height="29.3"/>
<rect x="180.2" y="157.2" class="st2" width="12" height="29.3"/>
<rect x="192.2" y="157.2" class="st2" width="12" height="29.3"/>
<rect x="204.2" y="157.2" class="st2" width="12" height="29.3"/>
<rect x="216.2" y="157.2" class="st2" width="12" height="29.3"/>
<rect x="228.2" y="157.2" class="st2" width="12" height="29.3"/>
<rect x="240.2" y="157.2" class="st2" width="12" height="29.3"/>
<rect x="252.2" y="157.2" class="st2" width="12" height="29.3"/>
<rect x="264.2" y="157.2" class="st2" width="12" height="29.3"/>
<rect x="276.2" y="157.2" class="st2" width="12" height="29.3"/>
<rect x="288.2" y="157.2" class="st2" width="12" height="29.3"/>
<rect x="300.2" y="157.2" class="st2" width="12" height="29.3"/>
<rect x="312.2" y="157.2" class="st2" width="12" height="29.3"/>
<rect x="324.2" y="157.2" class="st2" width="12" height="29.3"/>
<rect x="336.2" y="157.2" class="st2" width="12" height="29.3"/>
<rect x="348.2" y="157.2" class="st2" width="12" height="29.3"/>
<rect x="360.2" y="157.2" class="st2" width="12" height="29.3"/>
<rect x="372.2" y="157.2" class="st2" width="12" height="29.3"/>
<rect x="384.2" y="157.2" class="st2" width="12" height="29.3"/>
<rect x="396.2" y="157.2" class="st2" width="12" height="29.3"/>
<rect x="408.2" y="157.2" class="st2" width="13" height="29.3"/>
<rect x="421.2" y="157.2" class="st2" width="12" height="29.3"/>
<rect x="433.2" y="157.2" class="st2" width="12" height="29.3"/>
<rect x="445.2" y="157.2" class="st2" width="12" height="29.3"/>
<rect x="457.2" y="157.2" class="st2" width="12" height="29.3"/>
<rect x="469.2" y="157.2" class="st2" width="12" height="29.3"/>
<rect x="481.2" y="157.2" class="st2" width="12" height="29.3"/>
<line class="st0" x1="108.2" y1="157.2" x2="493.2" y2="157.2"/>
<line class="st0" x1="108.2" y1="186.6" x2="493.2" y2="186.6"/>
<rect x="112.2" y="368.6" class="st1" width="240.7" height="10"/>
<rect x="112.2" y="298.6" class="st1" width="240.7" height="10"/>
<text transform="matrix(1 0 0 1 112.1499 305.8775)" class="st1 st6 st8">63:32</text>
<text transform="matrix(1 0 0 1 116.5522 285.8775)" class="st5 st9 st8">Bits</text>
<text transform="matrix(1 0 0 1 154.9507 285.8775)" class="st5 st9 st8">Mnemonic</text>
<text transform="matrix(1 0 0 1 207.7495 285.8775)" class="st5 st9 st8">Description</text>
<text transform="matrix(1 0 0 1 336.9526 285.8775)" class="st5 st9 st8">R/W</text>
<text transform="matrix(1 0 0 1 126.5522 315.8775)" class="st5 st6 st8">21</text>
<text transform="matrix(1 0 0 1 126.5522 325.8775)" class="st5 st6 st8">20</text>
<text transform="matrix(1 0 0 1 126.5522 335.8775)" class="st5 st6 st8">19</text>
<text transform="matrix(1 0 0 1 126.5522 345.8775)" class="st5 st6 st8">18</text>
<text transform="matrix(1 0 0 1 126.5522 355.8775)" class="st5 st6 st8">17</text>
<text transform="matrix(1 0 0 1 126.5522 365.8775)" class="st5 st6 st8">16</text>
<text transform="matrix(1 0 0 1 126.5522 375.8775)" class="st5 st6 st8">15</text>
<text transform="matrix(1 0 0 1 126.5522 385.8775)" class="st5 st6 st8">14</text>
<text transform="matrix(1 0 0 1 112.1499 395.8775)" class="st5 st6 st8">13:12</text>
<text transform="matrix(1 0 0 1 126.5522 405.8775)" class="st5 st6 st8">11</text>
<text transform="matrix(1 0 0 1 126.5522 415.8775)" class="st5 st6 st8">10</text>
<text transform="matrix(1 0 0 1 131.353 425.8775)" class="st5 st6 st8">9</text>
<text transform="matrix(1 0 0 1 131.353 435.8775)" class="st5 st6 st8">8</text>
<text transform="matrix(1 0 0 1 131.353 445.8775)" class="st5 st6 st8">7</text>
<text transform="matrix(1 0 0 1 336.9526 315.8775)" class="st5 st6 st8">R/W</text>
<text transform="matrix(1 0 0 1 336.9526 325.8775)" class="st5 st6 st8">R/W</text>
<text transform="matrix(1 0 0 1 336.9526 335.8775)" class="st5 st6 st8">R/W</text>
<text transform="matrix(1 0 0 1 336.9526 355.8775)" class="st5 st6 st8">R/W</text>
<text transform="matrix(1 0 0 1 336.9526 365.8775)" class="st5 st6 st8">R/W</text>
<text transform="matrix(1 0 0 1 336.9526 395.8775)" class="st5 st6 st8">R/W</text>
<text transform="matrix(1 0 0 1 336.9526 405.8775)" class="st5 st6 st8">R/W</text>
<text transform="matrix(1 0 0 1 336.9526 415.8775)" class="st5 st6 st8">R/W</text>
<text transform="matrix(1 0 0 1 336.9526 425.8775)" class="st5 st6 st8">R/W</text>
<text transform="matrix(1 0 0 1 336.9526 435.8775)" class="st5 st6 st8">R/W</text>
<text transform="matrix(1 0 0 1 336.9526 445.8775)" class="st5 st6 st8">R/W</text>
<text transform="matrix(1 0 0 1 168.353 315.8775)" class="st5 st6 st8">ID</text>
<text transform="matrix(1 0 0 1 165.9526 325.8775)" class="st5 st6 st8">VIP</text>
<text transform="matrix(1 0 0 1 165.9526 335.8775)" class="st5 st6 st8">VIF</text>
<text transform="matrix(1 0 0 1 168.353 355.8775)" class="st5 st6 st8">VM</text>
<text transform="matrix(1 0 0 1 163.5522 395.8775)" class="st5 st6 st8">IOPL</text>
<text transform="matrix(1 0 0 1 168.353 405.8775)" class="st5 st6 st8">OF</text>
<text transform="matrix(1 0 0 1 168.353 415.8775)" class="st5 st6 st8">DF</text>
<text transform="matrix(1 0 0 1 168.353 425.8775)" class="st5 st6 st8">IF</text>
<text transform="matrix(1 0 0 1 168.353 435.8775)" class="st5 st6 st8">TF</text>
<text transform="matrix(1 0 0 1 168.353 445.8775)" class="st5 st6 st8">SF</text>
<text transform="matrix(1 0 0 1 209.1538 305.8775)" class="st5 st6 st8">Reserved, Read as Zero</text>
<text transform="matrix(1 0 0 1 209.1538 315.8775)" class="st5 st6 st8">ID Flag</text>
<text transform="matrix(1 0 0 1 209.1538 325.8775)" class="st5 st6 st8">Virtual Interrupt Pending</text>
<text transform="matrix(1 0 0 1 209.1538 335.8775)" class="st5 st6 st8">Virtual Interrupt Flag</text>
<text transform="matrix(1 0 0 1 209.1538 345.8775)" class="st5 st6 st8">Alignment Check</text>
<text transform="matrix(1 0 0 1 209.1538 355.8775)" class="st5 st6 st8">Virtual-8086 Mode</text>
<text transform="matrix(1 0 0 1 209.1538 365.8775)" class="st5 st6 st8">Resume Flag</text>
<text transform="matrix(1 0 0 1 209.1538 375.8775)" class="st5 st6 st8">Reserved, Read as Zero</text>
<text transform="matrix(1 0 0 1 209.1538 385.8775)" class="st5 st6 st8">Nested Task</text>
<text transform="matrix(1 0 0 1 209.1538 395.8775)" class="st5 st6 st8">I/O Privelege level</text>
<text transform="matrix(1 0 0 1 209.1538 405.8775)" class="st5 st6 st8">Overflow Flag</text>
<text transform="matrix(1 0 0 1 209.1538 415.8775)" class="st5 st6 st8">Direction Flag</text>
<text transform="matrix(1 0 0 1 209.1538 425.8775)" class="st5 st6 st8">Interrupt Flag</text>
<text transform="matrix(1 0 0 1 209.1538 435.8775)" class="st5 st6 st8">Trap Flag</text>
<text transform="matrix(1 0 0 1 209.1538 445.8775)" class="st5 st6 st8">Sign Flag</text>
<text transform="matrix(1 0 0 1 112.1499 305.8775)" class="st5 st6 st8">63:22</text>
<line class="st10" x1="112.2" y1="292.2" x2="352.8" y2="292.2"/>
<line class="st0" x1="360.7" y1="494.9" x2="475.2" y2="494.9"/>
<line class="st0" x1="475.2" y1="494.9" x2="475.2" y2="239.6"/>
<line class="st0" x1="360.7" y1="514.9" x2="487.2" y2="514.9"/>
<line class="st0" x1="487.2" y1="235.5" x2="487.2" y2="514.9"/>
<line class="st0" x1="360.7" y1="474.9" x2="463.2" y2="474.9"/>
<line class="st0" x1="463.2" y1="242.6" x2="463.2" y2="474.9"/>
<line class="st0" x1="451.2" y1="245.6" x2="451.2" y2="454.9"/>
<line class="st0" x1="360.7" y1="454.9" x2="451.2" y2="454.9"/>
<line class="st0" x1="439.2" y1="248.6" x2="439.2" y2="444.9"/>
<line class="st0" x1="427.2" y1="251.6" x2="427.2" y2="434.9"/>
<line class="st0" x1="360.7" y1="444.9" x2="439.2" y2="444.9"/>
<line class="st0" x1="360.7" y1="434.9" x2="427.2" y2="434.9"/>
<line class="st0" x1="463.2" y1="239.6" x2="474.7" y2="239.6"/>
<line class="st0" x1="415.2" y1="254.6" x2="415.2" y2="424.9"/>
<line class="st0" x1="360.7" y1="424.9" x2="415.2" y2="424.9"/>
<line class="st0" x1="403.2" y1="257.6" x2="403.2" y2="414.9"/>
<line class="st0" x1="360.7" y1="414.9" x2="403.2" y2="414.9"/>
<line class="st0" x1="439.2" y1="242.6" x2="463.2" y2="242.6"/>
<line class="st0" x1="415.2" y1="245.6" x2="451.2" y2="245.6"/>
<line class="st0" x1="402.2" y1="248.6" x2="439.2" y2="248.6"/>
<line class="st0" x1="391.2" y1="260.6" x2="391.2" y2="404.9"/>
<line class="st0" x1="379.2" y1="263.6" x2="379.2" y2="394.9"/>
<line class="st0" x1="367.2" y1="266.6" x2="367.2" y2="384.9"/>
<line class="st0" x1="360.7" y1="404.9" x2="391.2" y2="404.9"/>
<line class="st0" x1="360.7" y1="384.9" x2="367.2" y2="384.9"/>
<line class="st0" x1="360.7" y1="394.9" x2="379.2" y2="394.9"/>
<text transform="matrix(1 0 0 1 484.7534 208.8774)"><tspan x="0" y="0" class="st5 st6 st8">C</tspan><tspan x="0" y="9.6" class="st5 st6 st8">F</tspan></text>
<text transform="matrix(1 0 0 1 460.7534 208.8774)"><tspan x="0" y="0" class="st5 st6 st8">P</tspan><tspan x="0" y="9.6" class="st5 st6 st8">F</tspan></text>
<text transform="matrix(1 0 0 1 436.7534 208.8774)"><tspan x="0" y="0" class="st5 st6 st8">A</tspan><tspan x="0" y="9.6" class="st5 st6 st8">F</tspan></text>
<text transform="matrix(1 0 0 1 411.7534 208.8774)"><tspan x="0" y="0" class="st5 st6 st8">Z</tspan><tspan x="0" y="9.6" class="st5 st6 st8">F</tspan></text>
<text transform="matrix(1 0 0 1 399.7534 208.8774)"><tspan x="0" y="0" class="st5 st6 st8">S</tspan><tspan x="0" y="9.6" class="st5 st6 st8">F</tspan></text>
<text transform="matrix(1 0 0 1 387.7534 208.8774)"><tspan x="0" y="0" class="st5 st6 st8">T</tspan><tspan x="0" y="9.6" class="st5 st6 st8">F</tspan></text>
<text transform="matrix(1 0 0 1 375.7534 208.8774)"><tspan x="0" y="0" class="st5 st6 st8">I</tspan><tspan x="0" y="9.6" class="st5 st6 st8">F</tspan></text>
<text transform="matrix(1 0 0 1 364.7534 208.8774)"><tspan x="0" y="0" class="st5 st6 st8">D</tspan><tspan x="0" y="9.6" class="st5 st6 st8">F</tspan></text>
<text transform="matrix(1 0 0 1 352.7534 208.8774)"><tspan x="0" y="0" class="st5 st6 st8">O</tspan><tspan x="0" y="9.6" class="st5 st6 st8">F</tspan></text>
<text transform="matrix(1 0 0 1 315.7534 208.8774)"><tspan x="0" y="0" class="st5 st6 st8">N</tspan><tspan x="0" y="9.6" class="st5 st6 st8">T</tspan></text>
<text transform="matrix(1 0 0 1 291.7534 208.8774)"><tspan x="0" y="0" class="st5 st6 st8">R</tspan><tspan x="0" y="9.6" class="st5 st6 st8">F</tspan></text>
<text transform="matrix(1 0 0 1 303.7534 213.8774)" class="st5 st6 st8">0</text>
<text transform="matrix(1 0 0 1 279.7534 208.8774)"><tspan x="0" y="0" class="st5 st6 st8">V</tspan><tspan x="0" y="9.6" class="st5 st6 st8">M</tspan></text>
<text transform="matrix(1 0 0 1 267.7534 208.8774)"><tspan x="0" y="0" class="st5 st6 st8">A</tspan><tspan x="0" y="9.6" class="st5 st6 st8">C</tspan></text>
<text transform="matrix(1 0 0 1 243.7534 204.8774)"><tspan x="0" y="0" class="st5 st6 st8">V</tspan><tspan x="0" y="9.6" class="st5 st6 st8">I</tspan><tspan x="0" y="19.2" class="st5 st6 st8">P</tspan></text>
<text transform="matrix(1 0 0 1 231.7534 208.8774)"><tspan x="0" y="0" class="st5 st6 st8">I</tspan><tspan x="0" y="9.6" class="st5 st6 st8">D</tspan></text>
<text transform="matrix(1 0 0 1 255.7534 204.8774)"><tspan x="0" y="0" class="st5 st6 st8">V</tspan><tspan x="0" y="9.6" class="st5 st6 st8">I</tspan><tspan x="0" y="19.2" class="st5 st6 st8">F</tspan></text>
<rect x="324.2" y="197.2" class="st3" width="24" height="29.3"/>
<text transform="matrix(1 0 0 1 472.7534 213.8774)" class="st5 st6 st8">1</text>
<text transform="matrix(1 0 0 1 448.7534 213.8774)" class="st5 st6 st8">0</text>
<text transform="matrix(1 0 0 1 424.7534 213.8774)" class="st5 st6 st8">0</text>
<text transform="matrix(1 0 0 1 326.5522 213.8774)" class="st5 st6 st8">IOPL</text>
<rect x="108.2" y="157.2" class="st4" width="385" height="29.3"/>
<rect x="108.2" y="197.2" class="st4" width="120" height="29.3"/>
<text transform="matrix(1 0 0 1 168.353 345.8775)" class="st5 st6 st8">AC</text>
<text transform="matrix(1 0 0 1 168.353 365.8775)" class="st5 st6 st8">RF</text>
<text transform="matrix(1 0 0 1 168.353 385.8775)" class="st5 st6 st8">NT</text>
<text transform="matrix(1 0 0 1 336.9526 345.8775)" class="st5 st6 st8">R/W</text>
<text transform="matrix(1 0 0 1 336.9526 385.8775)" class="st5 st6 st8">R/W</text>
<text transform="matrix(1 0 0 1 131.353 455.8775)" class="st5 st6 st8">6</text>
<text transform="matrix(1 0 0 1 336.9526 455.8775)" class="st5 st6 st8">R/W</text>
<text transform="matrix(1 0 0 1 168.353 455.8775)" class="st5 st6 st8">ZF</text>
<text transform="matrix(1 0 0 1 209.1538 455.8775)" class="st5 st6 st8">Zero Flag</text>
<text transform="matrix(1 0 0 1 131.353 465.8775)" class="st5 st6 st8">5</text>
<text transform="matrix(1 0 0 1 209.1538 465.8775)" class="st5 st6 st8">Reserved, Read as Zero</text>
<text transform="matrix(1 0 0 1 131.353 475.8775)" class="st5 st6 st8">4</text>
<text transform="matrix(1 0 0 1 336.9526 475.8775)" class="st5 st6 st8">R/W</text>
<text transform="matrix(1 0 0 1 168.353 475.8775)" class="st5 st6 st8">AF</text>
<text transform="matrix(1 0 0 1 209.1538 475.8775)" class="st5 st6 st8">Auxiliary Flag</text>
<text transform="matrix(1 0 0 1 131.353 485.8775)" class="st5 st6 st8">3</text>
<text transform="matrix(1 0 0 1 209.1538 485.8775)" class="st5 st6 st8">Reserved, Read as Zero</text>
<text transform="matrix(1 0 0 1 131.353 495.8775)" class="st5 st6 st8">2</text>
<text transform="matrix(1 0 0 1 336.9526 495.8775)" class="st5 st6 st8">R/W</text>
<text transform="matrix(1 0 0 1 168.353 495.8775)" class="st5 st6 st8">PF</text>
<text transform="matrix(1 0 0 1 209.1538 495.8775)" class="st5 st6 st8">Parity Flag</text>
<text transform="matrix(1 0 0 1 131.353 505.8775)" class="st5 st6 st8">1</text>
<text transform="matrix(1 0 0 1 209.1538 505.8775)" class="st5 st6 st8">Reserved, Read as One</text>
<text transform="matrix(1 0 0 1 131.353 515.8774)" class="st5 st6 st8">0</text>
<text transform="matrix(1 0 0 1 336.9526 515.8774)" class="st5 st6 st8">R/W</text>
<text transform="matrix(1 0 0 1 168.353 515.8774)" class="st5 st6 st8">CF</text>
<text transform="matrix(1 0 0 1 209.1538 515.8774)" class="st5 st6 st8">Carry Flag</text>
<line class="st0" x1="463.2" y1="239.6" x2="463.2" y2="235.5"/>
<line class="st0" x1="439.2" y1="242.6" x2="439.2" y2="235.5"/>
<line class="st0" x1="415.2" y1="245.6" x2="415.2" y2="235.5"/>
<line class="st0" x1="402.2" y1="248.6" x2="402.2" y2="235.5"/>
<line class="st0" x1="390.2" y1="251.6" x2="427.2" y2="251.6"/>
<line class="st0" x1="390.2" y1="251.6" x2="390.2" y2="235.5"/>
<line class="st0" x1="378.2" y1="254.6" x2="415.2" y2="254.6"/>
<line class="st0" x1="378.2" y1="254.6" x2="378.2" y2="235.5"/>
<line class="st0" x1="366.2" y1="257.6" x2="403.2" y2="257.6"/>
<line class="st0" x1="366.2" y1="257.6" x2="366.2" y2="235.5"/>
<line class="st0" x1="354.2" y1="260.6" x2="354.2" y2="235.5"/>
<line class="st0" x1="354.2" y1="260.6" x2="391.2" y2="260.6"/>
<line class="st0" x1="336.2" y1="263.6" x2="379.2" y2="263.6"/>
<line class="st0" x1="318.2" y1="266.6" x2="367.2" y2="266.6"/>
<line class="st0" x1="318.2" y1="266.6" x2="318.2" y2="235.5"/>
<line class="st0" x1="336.2" y1="235.5" x2="336.2" y2="263.6"/>
<line class="st0" x1="37.7" y1="363.3" x2="37.7" y2="239.6"/>
<line class="st0" x1="49.7" y1="242.6" x2="49.7" y2="353.3"/>
<line class="st0" x1="61.7" y1="245.6" x2="61.7" y2="343.3"/>
<line class="st0" x1="73.7" y1="248.6" x2="73.7" y2="333.3"/>
<line class="st0" x1="85.7" y1="251.6" x2="85.7" y2="323.3"/>
<line class="st0" x1="97.7" y1="254.6" x2="97.7" y2="313.3"/>
<line class="st0" x1="257.7" y1="245.6" x2="61.7" y2="245.6"/>
<line class="st0" x1="270.7" y1="248.6" x2="73.7" y2="248.6"/>
<line class="st0" x1="257.7" y1="245.6" x2="257.7" y2="235.5"/>
<line class="st0" x1="270.7" y1="248.6" x2="270.7" y2="235.5"/>
<line class="st0" x1="282.7" y1="251.6" x2="85.7" y2="251.6"/>
<line class="st0" x1="282.7" y1="251.6" x2="282.7" y2="235.5"/>
<line class="st0" x1="294.7" y1="254.6" x2="97.7" y2="254.6"/>
<line class="st0" x1="294.7" y1="254.6" x2="294.7" y2="235.5"/>
<line class="st0" x1="97.7" y1="313.3" x2="104.2" y2="313.3"/>
<line class="st0" x1="73.7" y1="333.3" x2="104.2" y2="333.3"/>
<line class="st0" x1="61.7" y1="343.3" x2="104.2" y2="343.3"/>
<line class="st0" x1="49.7" y1="353.3" x2="104.2" y2="353.3"/>
<line class="st0" x1="37.7" y1="363.3" x2="104.2" y2="363.3"/>
<line class="st0" x1="233.7" y1="239.6" x2="37.7" y2="239.6"/>
<line class="st0" x1="245.7" y1="242.6" x2="49.7" y2="242.6"/>
<line class="st0" x1="233.7" y1="239.6" x2="233.7" y2="235.5"/>
<line class="st0" x1="245.7" y1="242.6" x2="245.7" y2="235.5"/>
<g>
	<rect x="-2" y="185.4" class="st3" width="42.5" height="12.9"/>
	<text transform="matrix(1 0 0 1 -2.2269 195.1725)" class="st5 st6 st11">RFLAGS</text>
	<line class="st0" x1="19.4" y1="184.1" x2="19.4" y2="185.4"/>
	<line class="st0" x1="22.4" y1="184.1" x2="22.4" y2="185.4"/>
	<line class="st0" x1="25.4" y1="184.1" x2="25.4" y2="185.4"/>
	<line class="st0" x1="28.4" y1="184.1" x2="28.4" y2="185.4"/>
	<line class="st0" x1="31.4" y1="184.1" x2="31.4" y2="185.4"/>
	<line class="st0" x1="34.4" y1="184.1" x2="34.4" y2="185.4"/>
	<line class="st0" x1="4.4" y1="184.1" x2="4.4" y2="185.4"/>
	<line class="st0" x1="7.4" y1="184.1" x2="7.4" y2="185.4"/>
	<line class="st0" x1="10.4" y1="184.1" x2="10.4" y2="185.4"/>
	<line class="st0" x1="13.4" y1="184.1" x2="13.4" y2="185.4"/>
	<line class="st0" x1="16.4" y1="184.1" x2="16.4" y2="185.4"/>
	<line class="st0" x1="19.4" y1="198.3" x2="19.4" y2="199.7"/>
	<line class="st0" x1="22.4" y1="198.3" x2="22.4" y2="199.7"/>
	<line class="st0" x1="25.4" y1="198.3" x2="25.4" y2="199.7"/>
	<line class="st0" x1="28.4" y1="198.3" x2="28.4" y2="199.7"/>
	<line class="st0" x1="31.4" y1="198.3" x2="31.4" y2="199.7"/>
	<line class="st0" x1="34.4" y1="198.3" x2="34.4" y2="199.7"/>
	<line class="st0" x1="4.4" y1="198.3" x2="4.4" y2="199.7"/>
	<line class="st0" x1="7.4" y1="198.3" x2="7.4" y2="199.7"/>
	<line class="st0" x1="10.4" y1="198.3" x2="10.4" y2="199.7"/>
	<line class="st0" x1="13.4" y1="198.3" x2="13.4" y2="199.7"/>
	<line class="st0" x1="16.4" y1="198.3" x2="16.4" y2="199.7"/>
	<line class="st0" x1="1.4" y1="184.1" x2="1.4" y2="185.4"/>
	<line class="st0" x1="37.4" y1="184.1" x2="37.4" y2="185.4"/>
	<line class="st0" x1="37.4" y1="198.3" x2="37.4" y2="199.7"/>
	<line class="st0" x1="1.4" y1="198.3" x2="1.4" y2="199.7"/>
</g>
</svg>
