<?xml version="1.0" encoding="utf-8"?>
<!-- Generator: Adobe Illustrator 19.1.0, SVG Export Plug-In . SVG Version: 6.00 Build 0)  -->
<svg version="1.1" id="Layer_1" xmlns="http://www.w3.org/2000/svg" xmlns:xlink="http://www.w3.org/1999/xlink" x="0px" y="0px"
	 viewBox="-71 35 647.5 543" style="enable-background:new -71 35 647.5 543;" xml:space="preserve">
<style type="text/css">
	.st0{fill:#FFFBD4;stroke:#231F20;stroke-width:0.25;stroke-miterlimit:10;}
	.st1{fill:#231F20;}
	.st2{font-family:'CourierNewPSMT';}
	.st3{font-size:12px;}
	.st4{fill:none;stroke:#231F20;stroke-width:0.25;stroke-miterlimit:10;}
	.st5{enable-background:new    ;}
	.st6{fill:#E6E7E8;stroke:#231F20;stroke-width:0.25;stroke-miterlimit:10;}
	.st7{fill:#FFFFFF;stroke:#231F20;stroke-width:0.25;stroke-miterlimit:10;}
	.st8{fill:#231F20;stroke:#231F20;stroke-width:0.25;stroke-miterlimit:10;}
</style>
<g>
	<rect x="-21.1" y="279.4" class="st0" width="23.7" height="12.9"/>
	<text transform="matrix(1 0 0 1 -16.4754 289.0975)" class="st1 st2 st3">CS</text>
	<line class="st4" x1="-9.3" y1="292.3" x2="-9.3" y2="293.6"/>
	<line class="st4" x1="-12.7" y1="292.3" x2="-12.7" y2="293.6"/>
	<line class="st4" x1="-5.9" y1="292.3" x2="-5.9" y2="293.6"/>
	<line class="st4" x1="-2.5" y1="292.3" x2="-2.5" y2="293.6"/>
	<line class="st4" x1="-16" y1="292.3" x2="-16" y2="293.6"/>
	<line class="st4" x1="-9.3" y1="278.1" x2="-9.3" y2="279.4"/>
	<line class="st4" x1="-12.7" y1="278.1" x2="-12.7" y2="279.4"/>
	<line class="st4" x1="-5.9" y1="278.1" x2="-5.9" y2="279.4"/>
	<line class="st4" x1="-2.5" y1="278.1" x2="-2.5" y2="279.4"/>
	<line class="st4" x1="-16" y1="278.1" x2="-16" y2="279.4"/>
</g>
<g>
	<rect x="-21.1" y="299.4" class="st0" width="23.7" height="12.9"/>
	<text transform="matrix(1 0 0 1 -16.4754 309.0975)" class="st1 st2 st3">DS</text>
	<line class="st4" x1="-9.3" y1="312.3" x2="-9.3" y2="313.6"/>
	<line class="st4" x1="-12.7" y1="312.3" x2="-12.7" y2="313.6"/>
	<line class="st4" x1="-5.9" y1="312.3" x2="-5.9" y2="313.6"/>
	<line class="st4" x1="-2.5" y1="312.3" x2="-2.5" y2="313.6"/>
	<line class="st4" x1="-16" y1="312.3" x2="-16" y2="313.6"/>
	<line class="st4" x1="-9.3" y1="298.1" x2="-9.3" y2="299.4"/>
	<line class="st4" x1="-12.7" y1="298.1" x2="-12.7" y2="299.4"/>
	<line class="st4" x1="-5.9" y1="298.1" x2="-5.9" y2="299.4"/>
	<line class="st4" x1="-2.5" y1="298.1" x2="-2.5" y2="299.4"/>
	<line class="st4" x1="-16" y1="298.1" x2="-16" y2="299.4"/>
</g>
<g>
	<rect x="-21.1" y="379.4" class="st0" width="23.7" height="12.9"/>
	<text transform="matrix(1 0 0 1 -16.4754 389.0975)" class="st1 st2 st3">SS</text>
	<line class="st4" x1="-9.3" y1="392.3" x2="-9.3" y2="393.6"/>
	<line class="st4" x1="-12.7" y1="392.3" x2="-12.7" y2="393.6"/>
	<line class="st4" x1="-5.9" y1="392.3" x2="-5.9" y2="393.6"/>
	<line class="st4" x1="-2.5" y1="392.3" x2="-2.5" y2="393.6"/>
	<line class="st4" x1="-16" y1="392.3" x2="-16" y2="393.6"/>
	<line class="st4" x1="-9.3" y1="378.1" x2="-9.3" y2="379.4"/>
	<line class="st4" x1="-12.7" y1="378.1" x2="-12.7" y2="379.4"/>
	<line class="st4" x1="-5.9" y1="378.1" x2="-5.9" y2="379.4"/>
	<line class="st4" x1="-2.5" y1="378.1" x2="-2.5" y2="379.4"/>
	<line class="st4" x1="-16" y1="378.1" x2="-16" y2="379.4"/>
</g>
<g>
	<rect x="-21.1" y="319.4" class="st0" width="23.7" height="12.9"/>
	<text transform="matrix(1 0 0 1 -16.4754 329.0975)" class="st1 st2 st3">ES</text>
	<line class="st4" x1="-9.3" y1="332.3" x2="-9.3" y2="333.6"/>
	<line class="st4" x1="-12.7" y1="332.3" x2="-12.7" y2="333.6"/>
	<line class="st4" x1="-5.9" y1="332.3" x2="-5.9" y2="333.6"/>
	<line class="st4" x1="-2.5" y1="332.3" x2="-2.5" y2="333.6"/>
	<line class="st4" x1="-16" y1="332.3" x2="-16" y2="333.6"/>
	<line class="st4" x1="-9.3" y1="318.1" x2="-9.3" y2="319.4"/>
	<line class="st4" x1="-12.7" y1="318.1" x2="-12.7" y2="319.4"/>
	<line class="st4" x1="-5.9" y1="318.1" x2="-5.9" y2="319.4"/>
	<line class="st4" x1="-2.5" y1="318.1" x2="-2.5" y2="319.4"/>
	<line class="st4" x1="-16" y1="318.1" x2="-16" y2="319.4"/>
</g>
<g>
	<rect x="-21.1" y="339.4" class="st0" width="23.7" height="12.9"/>
	<text transform="matrix(1 0 0 1 -16.4754 349.0975)" class="st1 st2 st3">FS</text>
	<line class="st4" x1="-9.3" y1="352.3" x2="-9.3" y2="353.6"/>
	<line class="st4" x1="-12.7" y1="352.3" x2="-12.7" y2="353.6"/>
	<line class="st4" x1="-5.9" y1="352.3" x2="-5.9" y2="353.6"/>
	<line class="st4" x1="-2.5" y1="352.3" x2="-2.5" y2="353.6"/>
	<line class="st4" x1="-16" y1="352.3" x2="-16" y2="353.6"/>
	<line class="st4" x1="-9.3" y1="338.1" x2="-9.3" y2="339.4"/>
	<line class="st4" x1="-12.7" y1="338.1" x2="-12.7" y2="339.4"/>
	<line class="st4" x1="-5.9" y1="338.1" x2="-5.9" y2="339.4"/>
	<line class="st4" x1="-2.5" y1="338.1" x2="-2.5" y2="339.4"/>
	<line class="st4" x1="-16" y1="338.1" x2="-16" y2="339.4"/>
</g>
<g>
	<rect x="-21.1" y="359.4" class="st0" width="23.7" height="12.9"/>
	<text transform="matrix(1 0 0 1 -16.4754 369.0975)" class="st1 st2 st3">GS</text>
	<line class="st4" x1="-9.3" y1="372.3" x2="-9.3" y2="373.6"/>
	<line class="st4" x1="-12.7" y1="372.3" x2="-12.7" y2="373.6"/>
	<line class="st4" x1="-5.9" y1="372.3" x2="-5.9" y2="373.6"/>
	<line class="st4" x1="-2.5" y1="372.3" x2="-2.5" y2="373.6"/>
	<line class="st4" x1="-16" y1="372.3" x2="-16" y2="373.6"/>
	<line class="st4" x1="-9.3" y1="358.1" x2="-9.3" y2="359.4"/>
	<line class="st4" x1="-12.7" y1="358.1" x2="-12.7" y2="359.4"/>
	<line class="st4" x1="-5.9" y1="358.1" x2="-5.9" y2="359.4"/>
	<line class="st4" x1="-2.5" y1="358.1" x2="-2.5" y2="359.4"/>
	<line class="st4" x1="-16" y1="358.1" x2="-16" y2="359.4"/>
</g>
<line class="st4" x1="2.6" y1="305.8" x2="171.9" y2="305.8"/>
<rect x="-67.1" y="96.3" class="st0" width="160.3" height="27"/>
<text transform="matrix(1 0 0 1 -48.1968 112.8007)" class="st1 st2 st3">Effective Address</text>
<text transform="matrix(1 0 0 1 -35.2879 252.6967)" class="st5"><tspan x="0" y="0" class="st1 st2 st3">Segment </tspan><tspan x="-3.6" y="14.4" class="st1 st2 st3">Registers</tspan></text>
<rect x="408.2" y="82.8" class="st6" width="160.3" height="490.2"/>
<rect x="408.2" y="192.1" class="st7" width="160.3" height="173.7"/>
<polygon class="st8" points="296.7,222.1 294.1,228.8 299.3,228.8 "/>
<circle class="st4" cx="296.7" cy="207.2" r="13.7"/>
<rect x="295.9" y="203" class="st8" width="1.5" height="8.4"/>
<rect x="292.5" y="206.4" class="st8" width="8.4" height="1.5"/>
<polygon class="st8" points="281.7,208.1 275,205.5 275,210.7 "/>
<line class="st4" x1="239.6" y1="208.1" x2="280.8" y2="208.1"/>
<line class="st4" x1="93.1" y1="109.2" x2="239.6" y2="109.2"/>
<line class="st4" x1="239.6" y1="208.1" x2="239.6" y2="109.2"/>
<line class="st4" x1="310.4" y1="207.2" x2="334.4" y2="207.2"/>
<line class="st4" x1="334.4" y1="207.2" x2="334.4" y2="229.8"/>
<line class="st4" x1="334.4" y1="229.8" x2="408.2" y2="229.8"/>
<polygon class="st8" points="408.2,229.8 401.4,227.2 401.4,232.4 "/>
<rect x="408.2" y="216.3" class="st4" width="160.3" height="27"/>
<text transform="matrix(1 0 0 1 434.3579 232.8003)" class="st1 st2 st3">Virtual Address</text>
<text transform="matrix(1 0 0 1 434.3579 52.8002)" class="st1 st2 st3">Virtual Address</text>
<text transform="matrix(1 0 0 1 470.3579 67.2002)" class="st1 st2 st3">Space</text>
<rect x="102.9" y="256.3" class="st4" width="160.3" height="27"/>
<line class="st4" x1="224.1" y1="256.3" x2="224.1" y2="283.3"/>
<line class="st4" x1="171.9" y1="283.3" x2="171.9" y2="305.8"/>
<text transform="matrix(1 0 0 1 229.3234 273.0975)" class="st1 st2 st3">0000</text>
<line class="st4" x1="263.1" y1="269.8" x2="296.7" y2="269.8"/>
<line class="st4" x1="296.7" y1="269.8" x2="296.7" y2="220.9"/>
<rect x="102.9" y="256.3" class="st0" width="121.2" height="27"/>
<text transform="matrix(1 0 0 1 135.2085 272.8007)" class="st1 st2 st3">Selector</text>
</svg>
