<?xml version="1.0" encoding="utf-8"?>
<!-- Generator: Adobe Illustrator 19.1.0, SVG Export Plug-In . SVG Version: 6.00 Build 0)  -->
<svg version="1.1" id="Layer_1" xmlns="http://www.w3.org/2000/svg" xmlns:xlink="http://www.w3.org/1999/xlink" x="0px" y="0px"
	 viewBox="-71 139.3 647.5 335.7" style="enable-background:new -71 139.3 647.5 335.7;" xml:space="preserve">
<style type="text/css">
	.st0{fill:#B2DDC7;stroke:#231F20;stroke-width:0.25;stroke-miterlimit:10;}
	.st1{fill:#231F20;}
	.st2{font-family:'CourierNewPSMT';}
	.st3{font-size:12px;}
	.st4{fill:none;stroke:#231F20;stroke-width:0.25;stroke-miterlimit:10;}
	.st5{fill:#BBBDBF;}
	.st6{fill:#FFFFFF;stroke:#231F20;stroke-width:0.25;stroke-miterlimit:10;}
	.st7{fill:#BBBDBF;stroke:#231F20;stroke-width:0.25;stroke-miterlimit:10;}
	.st8{font-size:7px;}
	.st9{font-size:8px;}
	.st10{font-family:'CourierNewPS-BoldMT';}
	.st11{fill:none;stroke:#231F20;stroke-width:0.5;stroke-miterlimit:10;}
</style>
<g>
	<rect x="-2.1" y="157.6" class="st0" width="42.5" height="12.9"/>
	<text transform="matrix(1 0 0 1 -2.3543 167.3387)" class="st1 st2 st3">EFLAGS</text>
	<line class="st4" x1="19.2" y1="156.2" x2="19.2" y2="157.6"/>
	<line class="st4" x1="22.2" y1="156.2" x2="22.2" y2="157.6"/>
	<line class="st4" x1="25.2" y1="156.2" x2="25.2" y2="157.6"/>
	<line class="st4" x1="28.2" y1="156.2" x2="28.2" y2="157.6"/>
	<line class="st4" x1="31.2" y1="156.2" x2="31.2" y2="157.6"/>
	<line class="st4" x1="34.2" y1="156.2" x2="34.2" y2="157.6"/>
	<line class="st4" x1="4.2" y1="156.2" x2="4.2" y2="157.6"/>
	<line class="st4" x1="7.2" y1="156.2" x2="7.2" y2="157.6"/>
	<line class="st4" x1="10.2" y1="156.2" x2="10.2" y2="157.6"/>
	<line class="st4" x1="13.2" y1="156.2" x2="13.2" y2="157.6"/>
	<line class="st4" x1="16.2" y1="156.2" x2="16.2" y2="157.6"/>
	<line class="st4" x1="19.2" y1="170.5" x2="19.2" y2="171.8"/>
	<line class="st4" x1="22.2" y1="170.5" x2="22.2" y2="171.8"/>
	<line class="st4" x1="25.2" y1="170.5" x2="25.2" y2="171.8"/>
	<line class="st4" x1="28.2" y1="170.5" x2="28.2" y2="171.8"/>
	<line class="st4" x1="31.2" y1="170.5" x2="31.2" y2="171.8"/>
	<line class="st4" x1="34.2" y1="170.5" x2="34.2" y2="171.8"/>
	<line class="st4" x1="4.2" y1="170.5" x2="4.2" y2="171.8"/>
	<line class="st4" x1="7.2" y1="170.5" x2="7.2" y2="171.8"/>
	<line class="st4" x1="10.2" y1="170.5" x2="10.2" y2="171.8"/>
	<line class="st4" x1="13.2" y1="170.5" x2="13.2" y2="171.8"/>
	<line class="st4" x1="16.2" y1="170.5" x2="16.2" y2="171.8"/>
	<line class="st4" x1="1.2" y1="156.2" x2="1.2" y2="157.6"/>
	<line class="st4" x1="37.2" y1="156.2" x2="37.2" y2="157.6"/>
	<line class="st4" x1="37.2" y1="170.5" x2="37.2" y2="171.8"/>
	<line class="st4" x1="1.2" y1="170.5" x2="1.2" y2="171.8"/>
</g>
<line class="st4" x1="85.7" y1="275.4" x2="104.2" y2="275.4"/>
<rect x="112.2" y="430.7" class="st5" width="240.7" height="10"/>
<rect x="112.2" y="410.7" class="st5" width="240.7" height="10"/>
<rect x="112.2" y="450.7" class="st5" width="240.7" height="10"/>
<line class="st4" x1="421.2" y1="149.4" x2="421.2" y2="178.7"/>
<line class="st4" x1="433.2" y1="149.4" x2="433.2" y2="178.7"/>
<line class="st4" x1="445.2" y1="149.4" x2="445.2" y2="178.7"/>
<line class="st4" x1="457.2" y1="149.4" x2="457.2" y2="178.7"/>
<line class="st4" x1="469.2" y1="149.4" x2="469.2" y2="178.7"/>
<line class="st4" x1="481.2" y1="149.4" x2="481.2" y2="178.7"/>
<line class="st4" x1="108.2" y1="149.4" x2="108.2" y2="178.7"/>
<line class="st4" x1="120.2" y1="149.4" x2="120.2" y2="178.7"/>
<line class="st4" x1="132.2" y1="149.4" x2="132.2" y2="178.7"/>
<line class="st4" x1="144.2" y1="149.4" x2="144.2" y2="178.7"/>
<line class="st4" x1="156.2" y1="149.4" x2="156.2" y2="178.7"/>
<line class="st4" x1="168.2" y1="149.4" x2="168.2" y2="178.7"/>
<line class="st4" x1="180.2" y1="149.4" x2="180.2" y2="178.7"/>
<line class="st4" x1="192.2" y1="149.4" x2="192.2" y2="178.7"/>
<line class="st4" x1="204.2" y1="149.4" x2="204.2" y2="178.7"/>
<line class="st4" x1="216.2" y1="149.4" x2="216.2" y2="178.7"/>
<line class="st4" x1="228.2" y1="149.4" x2="228.2" y2="178.7"/>
<line class="st4" x1="240.2" y1="149.4" x2="240.2" y2="178.7"/>
<line class="st4" x1="252.2" y1="149.4" x2="252.2" y2="178.7"/>
<line class="st4" x1="264.2" y1="149.4" x2="264.2" y2="178.7"/>
<line class="st4" x1="276.2" y1="149.4" x2="276.2" y2="178.7"/>
<line class="st4" x1="288.2" y1="149.4" x2="288.2" y2="178.7"/>
<line class="st4" x1="300.2" y1="149.4" x2="300.2" y2="178.7"/>
<line class="st4" x1="312.2" y1="149.4" x2="312.2" y2="178.7"/>
<line class="st4" x1="324.2" y1="149.4" x2="324.2" y2="178.7"/>
<line class="st4" x1="336.2" y1="149.4" x2="336.2" y2="178.7"/>
<line class="st4" x1="348.2" y1="149.4" x2="348.2" y2="178.7"/>
<line class="st4" x1="360.2" y1="149.4" x2="360.2" y2="178.7"/>
<line class="st4" x1="372.2" y1="149.4" x2="372.2" y2="178.7"/>
<line class="st4" x1="384.2" y1="149.4" x2="384.2" y2="178.7"/>
<line class="st4" x1="396.2" y1="149.4" x2="396.2" y2="178.7"/>
<line class="st4" x1="408.2" y1="149.4" x2="408.2" y2="178.7"/>
<line class="st4" x1="493.2" y1="149.4" x2="493.2" y2="178.7"/>
<rect x="108.2" y="149.4" class="st6" width="12" height="29.3"/>
<rect x="120.2" y="149.4" class="st6" width="12" height="29.3"/>
<rect x="132.2" y="149.4" class="st6" width="12" height="29.3"/>
<rect x="144.2" y="149.4" class="st6" width="12" height="29.3"/>
<rect x="156.2" y="149.4" class="st6" width="12" height="29.3"/>
<rect x="168.2" y="149.4" class="st6" width="12" height="29.3"/>
<rect x="180.2" y="149.4" class="st6" width="12" height="29.3"/>
<rect x="192.2" y="149.4" class="st6" width="12" height="29.3"/>
<rect x="204.2" y="149.4" class="st6" width="12" height="29.3"/>
<rect x="216.2" y="149.4" class="st6" width="12" height="29.3"/>
<rect x="228.2" y="149.4" class="st0" width="12" height="29.3"/>
<rect x="240.2" y="149.4" class="st0" width="12" height="29.3"/>
<rect x="252.2" y="149.4" class="st0" width="12" height="29.3"/>
<rect x="264.2" y="149.4" class="st0" width="12" height="29.3"/>
<rect x="276.2" y="149.4" class="st0" width="12" height="29.3"/>
<rect x="288.2" y="149.4" class="st0" width="12" height="29.3"/>
<rect x="300.2" y="149.4" class="st7" width="12" height="29.3"/>
<rect x="312.2" y="149.4" class="st0" width="12" height="29.3"/>
<rect x="324.2" y="149.4" class="st6" width="12" height="29.3"/>
<rect x="336.2" y="149.4" class="st6" width="12" height="29.3"/>
<rect x="348.2" y="149.4" class="st0" width="12" height="29.3"/>
<rect x="360.2" y="149.4" class="st0" width="12" height="29.3"/>
<rect x="372.2" y="149.4" class="st0" width="12" height="29.3"/>
<rect x="384.2" y="149.4" class="st0" width="12" height="29.3"/>
<rect x="396.2" y="149.4" class="st0" width="12" height="29.3"/>
<rect x="408.2" y="149.4" class="st0" width="13" height="29.3"/>
<rect x="421.2" y="149.4" class="st7" width="12" height="29.3"/>
<rect x="433.2" y="149.4" class="st0" width="12" height="29.3"/>
<rect x="445.2" y="149.4" class="st7" width="12" height="29.3"/>
<rect x="457.2" y="149.4" class="st0" width="12" height="29.3"/>
<rect x="469.2" y="149.4" class="st7" width="12" height="29.3"/>
<rect x="481.2" y="149.4" class="st0" width="12" height="29.3"/>
<line class="st4" x1="108.2" y1="149.4" x2="493.2" y2="149.4"/>
<line class="st4" x1="108.2" y1="178.7" x2="493.2" y2="178.7"/>
<text transform="matrix(1 0 0 1 484.1538 148.0004)" class="st1 st2 st8">0</text>
<text transform="matrix(1 0 0 1 472.1538 148.0004)" class="st1 st2 st8">1</text>
<text transform="matrix(1 0 0 1 460.1538 148.0004)" class="st1 st2 st8">2</text>
<text transform="matrix(1 0 0 1 448.1538 148.0004)" class="st1 st2 st8">3</text>
<text transform="matrix(1 0 0 1 436.1538 148.0004)" class="st1 st2 st8">4</text>
<text transform="matrix(1 0 0 1 424.1538 148.0004)" class="st1 st2 st8">5</text>
<text transform="matrix(1 0 0 1 412.1538 148.0004)" class="st1 st2 st8">6</text>
<text transform="matrix(1 0 0 1 400.1538 148.0004)" class="st1 st2 st8">7</text>
<text transform="matrix(1 0 0 1 388.1538 148.0004)" class="st1 st2 st8">8</text>
<text transform="matrix(1 0 0 1 376.1538 148.0004)" class="st1 st2 st8">9</text>
<text transform="matrix(1 0 0 1 361.9536 148.0004)" class="st1 st2 st8">10</text>
<text transform="matrix(1 0 0 1 349.9536 148.0004)" class="st1 st2 st8">11</text>
<text transform="matrix(1 0 0 1 337.9536 148.0004)" class="st1 st2 st8">12</text>
<text transform="matrix(1 0 0 1 325.9536 148.0004)" class="st1 st2 st8">13</text>
<text transform="matrix(1 0 0 1 313.9536 148.0004)" class="st1 st2 st8">14</text>
<text transform="matrix(1 0 0 1 301.9536 148.0004)" class="st1 st2 st8">15</text>
<text transform="matrix(1 0 0 1 289.9536 148.0004)" class="st1 st2 st8">16</text>
<text transform="matrix(1 0 0 1 277.9536 148.0004)" class="st1 st2 st8">17</text>
<text transform="matrix(1 0 0 1 265.9536 148.0004)" class="st1 st2 st8">18</text>
<text transform="matrix(1 0 0 1 253.9536 148.0004)" class="st1 st2 st8">19</text>
<text transform="matrix(1 0 0 1 241.9536 148.0004)" class="st1 st2 st8">20</text>
<text transform="matrix(1 0 0 1 229.9536 148.0004)" class="st1 st2 st8">21</text>
<text transform="matrix(1 0 0 1 217.9536 148.0004)" class="st1 st2 st8">22</text>
<text transform="matrix(1 0 0 1 109.9536 148.0004)" class="st1 st2 st8">31</text>
<rect x="112.2" y="320.7" class="st5" width="240.7" height="10"/>
<rect x="112.2" y="250.7" class="st5" width="240.7" height="10"/>
<text transform="matrix(1 0 0 1 112.1499 258.0004)" class="st5 st2 st9">63:32</text>
<text transform="matrix(1 0 0 1 116.5522 238.0004)" class="st1 st10 st9">Bits</text>
<text transform="matrix(1 0 0 1 154.9507 238.0004)" class="st1 st10 st9">Mnemonic</text>
<text transform="matrix(1 0 0 1 207.7495 238.0004)" class="st1 st10 st9">Description</text>
<text transform="matrix(1 0 0 1 336.9526 238.0004)" class="st1 st10 st9">R/W</text>
<text transform="matrix(1 0 0 1 126.5522 268.0004)" class="st1 st2 st9">21</text>
<text transform="matrix(1 0 0 1 126.5522 278.0004)" class="st1 st2 st9">20</text>
<text transform="matrix(1 0 0 1 126.5522 288.0004)" class="st1 st2 st9">19</text>
<text transform="matrix(1 0 0 1 126.5522 298.0004)" class="st1 st2 st9">18</text>
<text transform="matrix(1 0 0 1 126.5522 308.0004)" class="st1 st2 st9">17</text>
<text transform="matrix(1 0 0 1 126.5522 318.0004)" class="st1 st2 st9">16</text>
<text transform="matrix(1 0 0 1 126.5522 328.0004)" class="st1 st2 st9">15</text>
<text transform="matrix(1 0 0 1 126.5522 338.0004)" class="st1 st2 st9">14</text>
<text transform="matrix(1 0 0 1 112.1499 348.0004)" class="st1 st2 st9">13:12</text>
<text transform="matrix(1 0 0 1 126.5522 358.0004)" class="st1 st2 st9">11</text>
<text transform="matrix(1 0 0 1 126.5522 368.0004)" class="st1 st2 st9">10</text>
<text transform="matrix(1 0 0 1 131.353 378.0004)" class="st1 st2 st9">9</text>
<text transform="matrix(1 0 0 1 131.353 388.0004)" class="st1 st2 st9">8</text>
<text transform="matrix(1 0 0 1 131.353 398.0004)" class="st1 st2 st9">7</text>
<text transform="matrix(1 0 0 1 336.9526 268.0004)" class="st1 st2 st9">R/W</text>
<text transform="matrix(1 0 0 1 336.9526 278.0004)" class="st1 st2 st9">R/W</text>
<text transform="matrix(1 0 0 1 336.9526 288.0004)" class="st1 st2 st9">R/W</text>
<text transform="matrix(1 0 0 1 336.9526 308.0004)" class="st1 st2 st9">R/W</text>
<text transform="matrix(1 0 0 1 336.9526 318.0004)" class="st1 st2 st9">R/W</text>
<text transform="matrix(1 0 0 1 336.9526 348.0004)" class="st1 st2 st9">R/W</text>
<text transform="matrix(1 0 0 1 336.9526 358.0004)" class="st1 st2 st9">R/W</text>
<text transform="matrix(1 0 0 1 336.9526 368.0004)" class="st1 st2 st9">R/W</text>
<text transform="matrix(1 0 0 1 336.9526 378.0004)" class="st1 st2 st9">R/W</text>
<text transform="matrix(1 0 0 1 336.9526 388.0004)" class="st1 st2 st9">R/W</text>
<text transform="matrix(1 0 0 1 336.9526 398.0004)" class="st1 st2 st9">R/W</text>
<text transform="matrix(1 0 0 1 168.353 268.0004)" class="st1 st2 st9">ID</text>
<text transform="matrix(1 0 0 1 165.9526 278.0004)" class="st1 st2 st9">VIP</text>
<text transform="matrix(1 0 0 1 165.9526 288.0004)" class="st1 st2 st9">VIF</text>
<text transform="matrix(1 0 0 1 168.353 308.0004)" class="st1 st2 st9">VM</text>
<text transform="matrix(1 0 0 1 163.5522 348.0004)" class="st1 st2 st9">IOPL</text>
<text transform="matrix(1 0 0 1 168.353 358.0004)" class="st1 st2 st9">OF</text>
<text transform="matrix(1 0 0 1 168.353 368.0004)" class="st1 st2 st9">DF</text>
<text transform="matrix(1 0 0 1 168.353 378.0004)" class="st1 st2 st9">IF</text>
<text transform="matrix(1 0 0 1 168.353 388.0004)" class="st1 st2 st9">TF</text>
<text transform="matrix(1 0 0 1 168.353 398.0004)" class="st1 st2 st9">SF</text>
<text transform="matrix(1 0 0 1 209.1538 258.0004)" class="st1 st2 st9">Reserved, Read as Zero</text>
<text transform="matrix(1 0 0 1 209.1538 268.0004)" class="st1 st2 st9">ID Flag</text>
<text transform="matrix(1 0 0 1 209.1538 278.0004)" class="st1 st2 st9">Virtual Interrupt Pending</text>
<text transform="matrix(1 0 0 1 209.1538 288.0004)" class="st1 st2 st9">Virtual Interrupt Flag</text>
<text transform="matrix(1 0 0 1 209.1538 298.0004)" class="st1 st2 st9">Alignment Check</text>
<text transform="matrix(1 0 0 1 209.1538 308.0004)" class="st1 st2 st9">Virtual-8086 Mode</text>
<text transform="matrix(1 0 0 1 209.1538 318.0004)" class="st1 st2 st9">Resume Flag</text>
<text transform="matrix(1 0 0 1 209.1538 328.0004)" class="st1 st2 st9">Reserved, Read as Zero</text>
<text transform="matrix(1 0 0 1 209.1538 338.0004)" class="st1 st2 st9">Nested Task</text>
<text transform="matrix(1 0 0 1 209.1538 348.0004)" class="st1 st2 st9">I/O Privelege level</text>
<text transform="matrix(1 0 0 1 209.1538 358.0004)" class="st1 st2 st9">Overflow Flag</text>
<text transform="matrix(1 0 0 1 209.1538 368.0004)" class="st1 st2 st9">Direction Flag</text>
<text transform="matrix(1 0 0 1 209.1538 378.0004)" class="st1 st2 st9">Interrupt Flag</text>
<text transform="matrix(1 0 0 1 209.1538 388.0004)" class="st1 st2 st9">Trap Flag</text>
<text transform="matrix(1 0 0 1 209.1538 398.0004)" class="st1 st2 st9">Sign Flag</text>
<text transform="matrix(1 0 0 1 112.1499 258.0004)" class="st1 st2 st9">31:22</text>
<line class="st11" x1="112.2" y1="244.4" x2="352.8" y2="244.4"/>
<line class="st4" x1="360.7" y1="447" x2="475.2" y2="447"/>
<line class="st4" x1="475.2" y1="447" x2="475.2" y2="191.7"/>
<line class="st4" x1="360.7" y1="467" x2="487.2" y2="467"/>
<line class="st4" x1="487.2" y1="187.6" x2="487.2" y2="467"/>
<line class="st4" x1="360.7" y1="427" x2="463.2" y2="427"/>
<line class="st4" x1="463.2" y1="194.7" x2="463.2" y2="427"/>
<line class="st4" x1="451.2" y1="197.7" x2="451.2" y2="407"/>
<line class="st4" x1="360.7" y1="407" x2="451.2" y2="407"/>
<line class="st4" x1="439.2" y1="200.7" x2="439.2" y2="397"/>
<line class="st4" x1="427.2" y1="203.7" x2="427.2" y2="387"/>
<line class="st4" x1="360.7" y1="397" x2="439.2" y2="397"/>
<line class="st4" x1="360.7" y1="387" x2="427.2" y2="387"/>
<line class="st4" x1="463.2" y1="191.7" x2="474.7" y2="191.7"/>
<line class="st4" x1="415.2" y1="206.7" x2="415.2" y2="377"/>
<line class="st4" x1="360.7" y1="377" x2="415.2" y2="377"/>
<line class="st4" x1="403.2" y1="209.7" x2="403.2" y2="367"/>
<line class="st4" x1="360.7" y1="367" x2="403.2" y2="367"/>
<line class="st4" x1="439.2" y1="194.7" x2="463.2" y2="194.7"/>
<line class="st4" x1="415.2" y1="197.7" x2="451.2" y2="197.7"/>
<line class="st4" x1="402.2" y1="200.7" x2="439.2" y2="200.7"/>
<line class="st4" x1="391.2" y1="212.7" x2="391.2" y2="357"/>
<line class="st4" x1="379.2" y1="215.7" x2="379.2" y2="347"/>
<line class="st4" x1="367.2" y1="218.7" x2="367.2" y2="337"/>
<line class="st4" x1="360.7" y1="357" x2="391.2" y2="357"/>
<line class="st4" x1="360.7" y1="337" x2="367.2" y2="337"/>
<line class="st4" x1="360.7" y1="347" x2="379.2" y2="347"/>
<text transform="matrix(1 0 0 1 484.7537 161.0003)"><tspan x="0" y="0" class="st1 st2 st9">C</tspan><tspan x="0" y="9.6" class="st1 st2 st9">F</tspan></text>
<text transform="matrix(1 0 0 1 460.7534 161.0003)"><tspan x="0" y="0" class="st1 st2 st9">P</tspan><tspan x="0" y="9.6" class="st1 st2 st9">F</tspan></text>
<text transform="matrix(1 0 0 1 436.7534 161.0003)"><tspan x="0" y="0" class="st1 st2 st9">A</tspan><tspan x="0" y="9.6" class="st1 st2 st9">F</tspan></text>
<text transform="matrix(1 0 0 1 411.7534 161.0003)"><tspan x="0" y="0" class="st1 st2 st9">Z</tspan><tspan x="0" y="9.6" class="st1 st2 st9">F</tspan></text>
<text transform="matrix(1 0 0 1 399.7534 161.0003)"><tspan x="0" y="0" class="st1 st2 st9">S</tspan><tspan x="0" y="9.6" class="st1 st2 st9">F</tspan></text>
<text transform="matrix(1 0 0 1 387.7534 161.0003)"><tspan x="0" y="0" class="st1 st2 st9">T</tspan><tspan x="0" y="9.6" class="st1 st2 st9">F</tspan></text>
<text transform="matrix(1 0 0 1 375.7534 161.0003)"><tspan x="0" y="0" class="st1 st2 st9">I</tspan><tspan x="0" y="9.6" class="st1 st2 st9">F</tspan></text>
<text transform="matrix(1 0 0 1 364.7534 161.0003)"><tspan x="0" y="0" class="st1 st2 st9">D</tspan><tspan x="0" y="9.6" class="st1 st2 st9">F</tspan></text>
<text transform="matrix(1 0 0 1 352.7534 161.0003)"><tspan x="0" y="0" class="st1 st2 st9">O</tspan><tspan x="0" y="9.6" class="st1 st2 st9">F</tspan></text>
<text transform="matrix(1 0 0 1 315.7534 161.0003)"><tspan x="0" y="0" class="st1 st2 st9">N</tspan><tspan x="0" y="9.6" class="st1 st2 st9">T</tspan></text>
<text transform="matrix(1 0 0 1 291.7534 161.0003)"><tspan x="0" y="0" class="st1 st2 st9">R</tspan><tspan x="0" y="9.6" class="st1 st2 st9">F</tspan></text>
<text transform="matrix(1 0 0 1 303.7534 166.0003)" class="st1 st2 st9">0</text>
<text transform="matrix(1 0 0 1 279.7534 161.0003)"><tspan x="0" y="0" class="st1 st2 st9">V</tspan><tspan x="0" y="9.6" class="st1 st2 st9">M</tspan></text>
<text transform="matrix(1 0 0 1 267.7534 161.0003)"><tspan x="0" y="0" class="st1 st2 st9">A</tspan><tspan x="0" y="9.6" class="st1 st2 st9">C</tspan></text>
<text transform="matrix(1 0 0 1 243.7534 157.0003)"><tspan x="0" y="0" class="st1 st2 st9">V</tspan><tspan x="0" y="9.6" class="st1 st2 st9">I</tspan><tspan x="0" y="19.2" class="st1 st2 st9">P</tspan></text>
<text transform="matrix(1 0 0 1 231.7534 161.0003)"><tspan x="0" y="0" class="st1 st2 st9">I</tspan><tspan x="0" y="9.6" class="st1 st2 st9">D</tspan></text>
<text transform="matrix(1 0 0 1 255.7534 157.0003)"><tspan x="0" y="0" class="st1 st2 st9">V</tspan><tspan x="0" y="9.6" class="st1 st2 st9">I</tspan><tspan x="0" y="19.2" class="st1 st2 st9">F</tspan></text>
<rect x="324.2" y="149.4" class="st0" width="24" height="29.3"/>
<text transform="matrix(1 0 0 1 472.7534 166.0003)" class="st1 st2 st9">1</text>
<text transform="matrix(1 0 0 1 448.7534 166.0003)" class="st1 st2 st9">0</text>
<text transform="matrix(1 0 0 1 424.7534 166.0003)" class="st1 st2 st9">0</text>
<text transform="matrix(1 0 0 1 326.5522 166.0003)" class="st1 st2 st9">IOPL</text>
<rect x="108.2" y="149.4" class="st7" width="120" height="29.3"/>
<text transform="matrix(1 0 0 1 168.353 298.0004)" class="st1 st2 st9">AC</text>
<text transform="matrix(1 0 0 1 168.353 318.0004)" class="st1 st2 st9">RF</text>
<text transform="matrix(1 0 0 1 168.353 338.0004)" class="st1 st2 st9">NT</text>
<text transform="matrix(1 0 0 1 336.9526 298.0004)" class="st1 st2 st9">R/W</text>
<text transform="matrix(1 0 0 1 336.9526 338.0004)" class="st1 st2 st9">R/W</text>
<text transform="matrix(1 0 0 1 131.353 408.0004)" class="st1 st2 st9">6</text>
<text transform="matrix(1 0 0 1 336.9526 408.0004)" class="st1 st2 st9">R/W</text>
<text transform="matrix(1 0 0 1 168.353 408.0004)" class="st1 st2 st9">ZF</text>
<text transform="matrix(1 0 0 1 209.1538 408.0004)" class="st1 st2 st9">Zero Flag</text>
<text transform="matrix(1 0 0 1 131.353 418.0004)" class="st1 st2 st9">5</text>
<text transform="matrix(1 0 0 1 209.1538 418.0004)" class="st1 st2 st9">Reserved, Read as Zero</text>
<text transform="matrix(1 0 0 1 131.353 428.0004)" class="st1 st2 st9">4</text>
<text transform="matrix(1 0 0 1 336.9526 428.0004)" class="st1 st2 st9">R/W</text>
<text transform="matrix(1 0 0 1 168.353 428.0004)" class="st1 st2 st9">AF</text>
<text transform="matrix(1 0 0 1 209.1538 428.0004)" class="st1 st2 st9">Auxiliary Flag</text>
<text transform="matrix(1 0 0 1 131.353 438.0004)" class="st1 st2 st9">3</text>
<text transform="matrix(1 0 0 1 209.1538 438.0004)" class="st1 st2 st9">Reserved, Read as Zero</text>
<text transform="matrix(1 0 0 1 131.353 448.0004)" class="st1 st2 st9">2</text>
<text transform="matrix(1 0 0 1 336.9526 448.0004)" class="st1 st2 st9">R/W</text>
<text transform="matrix(1 0 0 1 168.353 448.0004)" class="st1 st2 st9">PF</text>
<text transform="matrix(1 0 0 1 209.1538 448.0004)" class="st1 st2 st9">Parity Flag</text>
<text transform="matrix(1 0 0 1 131.353 458.0004)" class="st1 st2 st9">1</text>
<text transform="matrix(1 0 0 1 209.1538 458.0004)" class="st1 st2 st9">Reserved, Read as One</text>
<text transform="matrix(1 0 0 1 131.353 468.0004)" class="st1 st2 st9">0</text>
<text transform="matrix(1 0 0 1 336.9526 468.0004)" class="st1 st2 st9">R/W</text>
<text transform="matrix(1 0 0 1 168.353 468.0004)" class="st1 st2 st9">CF</text>
<text transform="matrix(1 0 0 1 209.1538 468.0004)" class="st1 st2 st9">Carry Flag</text>
<line class="st4" x1="463.2" y1="191.7" x2="463.2" y2="187.6"/>
<line class="st4" x1="439.2" y1="194.7" x2="439.2" y2="187.6"/>
<line class="st4" x1="415.2" y1="197.7" x2="415.2" y2="187.6"/>
<line class="st4" x1="402.2" y1="200.7" x2="402.2" y2="187.6"/>
<line class="st4" x1="390.2" y1="203.7" x2="427.2" y2="203.7"/>
<line class="st4" x1="390.2" y1="203.7" x2="390.2" y2="187.6"/>
<line class="st4" x1="378.2" y1="206.7" x2="415.2" y2="206.7"/>
<line class="st4" x1="378.2" y1="206.7" x2="378.2" y2="187.6"/>
<line class="st4" x1="366.2" y1="209.7" x2="403.2" y2="209.7"/>
<line class="st4" x1="366.2" y1="209.7" x2="366.2" y2="187.6"/>
<line class="st4" x1="354.2" y1="212.7" x2="354.2" y2="187.6"/>
<line class="st4" x1="354.2" y1="212.7" x2="391.2" y2="212.7"/>
<line class="st4" x1="336.2" y1="215.7" x2="379.2" y2="215.7"/>
<line class="st4" x1="318.2" y1="218.7" x2="367.2" y2="218.7"/>
<line class="st4" x1="318.2" y1="218.7" x2="318.2" y2="187.6"/>
<line class="st4" x1="336.2" y1="187.6" x2="336.2" y2="215.7"/>
<line class="st4" x1="37.7" y1="315.4" x2="37.7" y2="191.7"/>
<line class="st4" x1="49.7" y1="194.7" x2="49.7" y2="305.4"/>
<line class="st4" x1="61.7" y1="197.7" x2="61.7" y2="295.4"/>
<line class="st4" x1="73.7" y1="200.7" x2="73.7" y2="285.4"/>
<line class="st4" x1="85.7" y1="203.7" x2="85.7" y2="275.4"/>
<line class="st4" x1="233.7" y1="191.7" x2="37.7" y2="191.7"/>
<line class="st4" x1="97.7" y1="206.7" x2="97.7" y2="265.4"/>
<line class="st4" x1="245.7" y1="194.7" x2="49.7" y2="194.7"/>
<line class="st4" x1="257.7" y1="197.7" x2="61.7" y2="197.7"/>
<line class="st4" x1="270.7" y1="200.7" x2="73.7" y2="200.7"/>
<line class="st4" x1="233.7" y1="191.7" x2="233.7" y2="187.6"/>
<line class="st4" x1="245.7" y1="194.7" x2="245.7" y2="187.6"/>
<line class="st4" x1="257.7" y1="197.7" x2="257.7" y2="187.6"/>
<line class="st4" x1="270.7" y1="200.7" x2="270.7" y2="187.6"/>
<line class="st4" x1="282.7" y1="203.7" x2="85.7" y2="203.7"/>
<line class="st4" x1="282.7" y1="203.7" x2="282.7" y2="187.6"/>
<line class="st4" x1="294.7" y1="206.7" x2="97.7" y2="206.7"/>
<line class="st4" x1="294.7" y1="206.7" x2="294.7" y2="187.6"/>
<line class="st4" x1="97.7" y1="265.4" x2="104.2" y2="265.4"/>
<line class="st4" x1="73.7" y1="285.4" x2="104.2" y2="285.4"/>
<line class="st4" x1="61.7" y1="295.4" x2="104.2" y2="295.4"/>
<line class="st4" x1="49.7" y1="305.4" x2="104.2" y2="305.4"/>
<line class="st4" x1="37.7" y1="315.4" x2="104.2" y2="315.4"/>
</svg>
