<?xml version="1.0" encoding="utf-8"?>
<!-- Generator: Adobe Illustrator 19.1.0, SVG Export Plug-In . SVG Version: 6.00 Build 0)  -->
<svg version="1.1" id="Layer_1" xmlns="http://www.w3.org/2000/svg" xmlns:xlink="http://www.w3.org/1999/xlink" x="0px" y="0px"
	 viewBox="-71 139.3 647.5 552" style="enable-background:new -71 139.3 647.5 552;" xml:space="preserve">
<style type="text/css">
	.st0{fill:#FFFFFF;stroke:#211F1F;stroke-width:0.25;stroke-miterlimit:10;}
	.st1{fill:none;stroke:#B9BBBD;stroke-width:0.25;stroke-miterlimit:10;}
	.st2{fill:#BABCBE;stroke:#221F1F;stroke-width:0.25;stroke-miterlimit:10;}
	.st3{fill:none;stroke:#211F1F;stroke-width:0.25;stroke-miterlimit:10;}
	.st4{fill:#211F1F;stroke:#211F1F;stroke-width:0.25;stroke-miterlimit:10;}
	.st5{fill:#F49BB0;stroke:#221F1F;stroke-width:0.25;stroke-miterlimit:10;}
	.st6{fill:#211F1F;}
	.st7{font-family:'CourierNewPSMT';}
	.st8{font-size:12px;}
	.st9{fill:#E5E5E4;stroke:#211F1F;stroke-width:0.25;stroke-miterlimit:10;}
	.st10{fill:#FDF9D5;stroke:#221F1F;stroke-width:0.25;stroke-miterlimit:10;}
	.st11{fill:none;stroke:#221F1F;stroke-width:0.25;stroke-miterlimit:10;}
	.st12{fill:#BABCBE;}
	.st13{fill:#221F1F;}
	.st14{fill:#F49BB0;}
</style>
<g>
	<rect x="77.4" y="370.4" class="st0" width="160.3" height="43.2"/>
	<line class="st1" x1="77.4" y1="392" x2="237.6" y2="392"/>
	<line class="st1" x1="157.5" y1="370.6" x2="157.5" y2="392.2"/>
</g>
<rect x="77.8" y="663" class="st2" width="160.3" height="21.6"/>
<line class="st3" x1="77.4" y1="352.1" x2="237.6" y2="352.1"/>
<line class="st3" x1="26.2" y1="484.8" x2="87" y2="484.8"/>
<polygon class="st4" points="86.9,484.8 80.2,482.2 80.2,487.4 "/>
<rect x="-68" y="195.6" class="st5" width="160.3" height="27"/>
<text transform="matrix(1 0 0 1 -49.0768 212.1166)" class="st6 st7 st8">Effective Address</text>
<text transform="matrix(1 0 0 1 -34.9578 342.0126)"><tspan x="0" y="0" class="st6 st7 st8">Segment </tspan><tspan x="-3.6" y="14.4" class="st6 st7 st8">Registers</tspan></text>
<text transform="matrix(1 0 0 1 92.637 342.0126)" class="st6 st7 st8">Descriptors Table</text>
<rect x="407.4" y="182.1" class="st9" width="160.3" height="490.2"/>
<rect x="407.4" y="291.4" class="st0" width="160.3" height="173.7"/>
<polygon class="st4" points="407.3,465.1 400.6,462.5 400.6,467.7 "/>
<polygon class="st4" points="295.8,321.4 293.2,328.1 298.4,328.1 "/>
<circle class="st3" cx="295.8" cy="306.5" r="13.7"/>
<rect x="295" y="302.3" class="st4" width="1.5" height="8.4"/>
<rect x="291.6" y="305.8" class="st4" width="8.4" height="1.5"/>
<polygon class="st4" points="280.8,307.4 274.1,304.8 274.1,310 "/>
<line class="st3" x1="238.7" y1="307.4" x2="279.9" y2="307.4"/>
<line class="st3" x1="92.3" y1="208.5" x2="238.7" y2="208.5"/>
<line class="st3" x1="238.7" y1="307.4" x2="238.7" y2="208.5"/>
<line class="st3" x1="309.5" y1="306.5" x2="333.6" y2="306.5"/>
<line class="st3" x1="333.6" y1="306.5" x2="333.6" y2="329.1"/>
<line class="st3" x1="333.6" y1="329.1" x2="407.4" y2="329.1"/>
<polygon class="st4" points="407.3,329.1 400.6,326.5 400.6,331.7 "/>
<rect x="407.4" y="315.6" class="st3" width="160.3" height="27"/>
<text transform="matrix(1 0 0 1 433.4779 332.1162)" class="st6 st7 st8">Virtual Address</text>
<text transform="matrix(1 0 0 1 433.4779 152.1161)"><tspan x="0" y="0" class="st6 st7 st8">Virtual Address</tspan><tspan x="36" y="14.4" class="st6 st7 st8">Space</tspan></text>
<text transform="matrix(1 0 0 1 93.8287 677.6122)" class="st6 st7 st8">0x0000000000000000</text>
<line class="st3" x1="407.4" y1="672" x2="237.6" y2="672"/>
<polygon class="st4" points="407.3,672.3 400.6,669.7 400.6,674.9 "/>
<g>
	<rect x="-22" y="378.7" class="st10" width="23.7" height="12.9"/>
	<line class="st11" x1="-10.2" y1="391.6" x2="-10.2" y2="392.9"/>
	<line class="st11" x1="-13.5" y1="391.6" x2="-13.5" y2="392.9"/>
	<line class="st11" x1="-6.8" y1="391.6" x2="-6.8" y2="392.9"/>
	<line class="st11" x1="-3.4" y1="391.6" x2="-3.4" y2="392.9"/>
	<line class="st11" x1="-16.9" y1="391.6" x2="-16.9" y2="392.9"/>
	<line class="st11" x1="-10.2" y1="377.4" x2="-10.2" y2="378.7"/>
	<line class="st11" x1="-13.5" y1="377.4" x2="-13.5" y2="378.7"/>
	<line class="st11" x1="-6.8" y1="377.4" x2="-6.8" y2="378.7"/>
	<line class="st11" x1="-3.4" y1="377.4" x2="-3.4" y2="378.7"/>
	<line class="st11" x1="-16.9" y1="377.4" x2="-16.9" y2="378.7"/>
	<rect x="-22" y="378.7" class="st12" width="18" height="12.9"/>
	<text transform="matrix(1 0 0 1 -17.356 388.4135)" class="st13 st7 st8">CS</text>
</g>
<g>
	<rect x="-22" y="398.7" class="st2" width="23.7" height="12.9"/>
	<line class="st11" x1="-10.2" y1="411.6" x2="-10.2" y2="412.9"/>
	<line class="st11" x1="-13.5" y1="411.6" x2="-13.5" y2="412.9"/>
	<line class="st11" x1="-6.8" y1="411.6" x2="-6.8" y2="412.9"/>
	<line class="st11" x1="-3.4" y1="411.6" x2="-3.4" y2="412.9"/>
	<line class="st11" x1="-16.9" y1="411.6" x2="-16.9" y2="412.9"/>
	<line class="st11" x1="-10.2" y1="397.4" x2="-10.2" y2="398.7"/>
	<line class="st11" x1="-13.5" y1="397.4" x2="-13.5" y2="398.7"/>
	<line class="st11" x1="-6.8" y1="397.4" x2="-6.8" y2="398.7"/>
	<line class="st11" x1="-3.4" y1="397.4" x2="-3.4" y2="398.7"/>
	<line class="st11" x1="-16.9" y1="397.4" x2="-16.9" y2="398.7"/>
	<text transform="matrix(1 0 0 1 -17.356 408.4135)" class="st13 st7 st8">DS</text>
</g>
<g>
	<rect x="-21.4" y="418.7" class="st2" width="23.7" height="12.9"/>
	<line class="st11" x1="-9.5" y1="431.6" x2="-9.5" y2="432.9"/>
	<line class="st11" x1="-12.9" y1="431.6" x2="-12.9" y2="432.9"/>
	<line class="st11" x1="-6.2" y1="431.6" x2="-6.2" y2="432.9"/>
	<line class="st11" x1="-2.8" y1="431.6" x2="-2.8" y2="432.9"/>
	<line class="st11" x1="-16.3" y1="431.6" x2="-16.3" y2="432.9"/>
	<line class="st11" x1="-9.5" y1="417.4" x2="-9.5" y2="418.7"/>
	<line class="st11" x1="-12.9" y1="417.4" x2="-12.9" y2="418.7"/>
	<line class="st11" x1="-6.2" y1="417.4" x2="-6.2" y2="418.7"/>
	<line class="st11" x1="-2.8" y1="417.4" x2="-2.8" y2="418.7"/>
	<line class="st11" x1="-16.3" y1="417.4" x2="-16.3" y2="418.7"/>
	<text transform="matrix(1 0 0 1 -16.7461 428.4135)" class="st13 st7 st8">ES</text>
</g>
<g>
	<rect x="-22" y="478.4" class="st2" width="23.7" height="12.9"/>
	<line class="st11" x1="-10.2" y1="491.2" x2="-10.2" y2="492.6"/>
	<line class="st11" x1="-13.5" y1="491.2" x2="-13.5" y2="492.6"/>
	<line class="st11" x1="-6.8" y1="491.2" x2="-6.8" y2="492.6"/>
	<line class="st11" x1="-3.4" y1="491.2" x2="-3.4" y2="492.6"/>
	<line class="st11" x1="-16.9" y1="491.2" x2="-16.9" y2="492.6"/>
	<line class="st11" x1="-10.2" y1="477" x2="-10.2" y2="478.4"/>
	<line class="st11" x1="-13.5" y1="477" x2="-13.5" y2="478.4"/>
	<line class="st11" x1="-6.8" y1="477" x2="-6.8" y2="478.4"/>
	<line class="st11" x1="-3.4" y1="477" x2="-3.4" y2="478.4"/>
	<line class="st11" x1="-16.9" y1="477" x2="-16.9" y2="478.4"/>
	<rect x="-22" y="478.4" class="st14" width="18" height="12.9"/>
	<text transform="matrix(1 0 0 1 -17.3573 488.0654)" class="st13 st7 st8">FS</text>
</g>
<g>
	<rect x="-22" y="498.4" class="st2" width="23.7" height="12.9"/>
	<line class="st11" x1="-10.2" y1="511.2" x2="-10.2" y2="512.6"/>
	<line class="st11" x1="-13.5" y1="511.2" x2="-13.5" y2="512.6"/>
	<line class="st11" x1="-6.8" y1="511.2" x2="-6.8" y2="512.6"/>
	<line class="st11" x1="-3.4" y1="511.2" x2="-3.4" y2="512.6"/>
	<line class="st11" x1="-16.9" y1="511.2" x2="-16.9" y2="512.6"/>
	<line class="st11" x1="-10.2" y1="497" x2="-10.2" y2="498.4"/>
	<line class="st11" x1="-13.5" y1="497" x2="-13.5" y2="498.4"/>
	<line class="st11" x1="-6.8" y1="497" x2="-6.8" y2="498.4"/>
	<line class="st11" x1="-3.4" y1="497" x2="-3.4" y2="498.4"/>
	<line class="st11" x1="-16.9" y1="497" x2="-16.9" y2="498.4"/>
	<rect x="-22" y="498.4" class="st14" width="18" height="12.9"/>
	<text transform="matrix(1 0 0 1 -17.356 508.0654)" class="st13 st7 st8">GS</text>
</g>
<g>
	<rect x="-21.4" y="438.7" class="st2" width="23.7" height="12.9"/>
	<line class="st11" x1="-9.5" y1="451.6" x2="-9.5" y2="452.9"/>
	<line class="st11" x1="-12.9" y1="451.6" x2="-12.9" y2="452.9"/>
	<line class="st11" x1="-6.2" y1="451.6" x2="-6.2" y2="452.9"/>
	<line class="st11" x1="-2.8" y1="451.6" x2="-2.8" y2="452.9"/>
	<line class="st11" x1="-16.3" y1="451.6" x2="-16.3" y2="452.9"/>
	<line class="st11" x1="-9.5" y1="437.4" x2="-9.5" y2="438.7"/>
	<line class="st11" x1="-12.9" y1="437.4" x2="-12.9" y2="438.7"/>
	<line class="st11" x1="-6.2" y1="437.4" x2="-6.2" y2="438.7"/>
	<line class="st11" x1="-2.8" y1="437.4" x2="-2.8" y2="438.7"/>
	<line class="st11" x1="-16.3" y1="437.4" x2="-16.3" y2="438.7"/>
	<text transform="matrix(1 0 0 1 -16.7461 448.4135)" class="st13 st7 st8">SS</text>
</g>
<rect x="87.4" y="474" class="st5" width="160.3" height="21.6"/>
<text transform="matrix(1 0 0 1 153.7805 488.6122)" class="st6 st7 st8">Base</text>
<line class="st3" x1="-22" y1="484.8" x2="-30.7" y2="484.8"/>
<line class="st3" x1="-30.7" y1="484.8" x2="-30.7" y2="461"/>
<line class="st3" x1="-30.7" y1="461" x2="26.6" y2="461"/>
<line class="st3" x1="26.6" y1="461" x2="26.6" y2="484.8"/>
<line class="st3" x1="77.4" y1="452.1" x2="237.6" y2="452.1"/>
<line class="st3" x1="77.4" y1="352.1" x2="77.4" y2="452.1"/>
<line class="st3" x1="237.6" y1="352.1" x2="237.6" y2="452.1"/>
<line class="st11" x1="-23" y1="385.2" x2="-36.3" y2="385.2"/>
<line class="st11" x1="-36.3" y1="385.2" x2="-36.3" y2="673.8"/>
<line class="st11" x1="-36.3" y1="673.8" x2="77.8" y2="673.8"/>
<polygon class="st4" points="77.3,673.8 70.6,671.2 70.6,676.4 "/>
<line class="st3" x1="-22" y1="405.2" x2="-36.3" y2="405.2"/>
<line class="st3" x1="-21.4" y1="425.2" x2="-36.3" y2="425.2"/>
<line class="st3" x1="-22" y1="444.4" x2="-36.3" y2="444.4"/>
<line class="st3" x1="1.7" y1="385.2" x2="42" y2="385.2"/>
<line class="st3" x1="42" y1="385.2" x2="42" y2="413.6"/>
<line class="st3" x1="42" y1="413.6" x2="77.4" y2="413.6"/>
<polygon class="st4" points="77.3,413.6 70.6,411 70.6,416.2 "/>
<line class="st3" x1="295.8" y1="321.4" x2="295.8" y2="484.8"/>
<line class="st3" x1="362.3" y1="484.8" x2="247.6" y2="484.8"/>
<line class="st3" x1="407.3" y1="465.1" x2="362.3" y2="465.1"/>
<line class="st3" x1="362.3" y1="465.1" x2="362.3" y2="484.8"/>
</svg>
